<svg width="27" height="27" viewBox="0 0 27 27" fill="none" xmlns="http://www.w3.org/2000/svg">
<path d="M2.25 4.5C2.25 4.20163 2.36853 3.91548 2.5795 3.7045C2.79048 3.49353 3.07663 3.375 3.375 3.375H23.625C23.9234 3.375 24.2095 3.49353 24.4205 3.7045C24.6315 3.91548 24.75 4.20163 24.75 4.5C24.75 4.79837 24.6315 5.08452 24.4205 5.29549C24.2095 5.50647 23.9234 5.625 23.625 5.625H3.375C3.07663 5.625 2.79048 5.50647 2.5795 5.29549C2.36853 5.08452 2.25 4.79837 2.25 4.5ZM3.375 14.625H23.625C23.9234 14.625 24.2095 14.5065 24.4205 14.2955C24.6315 14.0845 24.75 13.7984 24.75 13.5C24.75 13.2016 24.6315 12.9155 24.4205 12.7045C24.2095 12.4935 23.9234 12.375 23.625 12.375H3.375C3.07663 12.375 2.79048 12.4935 2.5795 12.7045C2.36853 12.9155 2.25 13.2016 2.25 13.5C2.25 13.7984 2.36853 14.0845 2.5795 14.2955C2.79048 14.5065 3.07663 14.625 3.375 14.625ZM3.375 23.625H23.625C23.9234 23.625 24.2095 23.5065 24.4205 23.2955C24.6315 23.0845 24.75 22.7984 24.75 22.5C24.75 22.2016 24.6315 21.9155 24.4205 21.7045C24.2095 21.4935 23.9234 21.375 23.625 21.375H3.375C3.07663 21.375 2.79048 21.4935 2.5795 21.7045C2.36853 21.9155 2.25 22.2016 2.25 22.5C2.25 22.7984 2.36853 23.0845 2.5795 23.2955C2.79048 23.5065 3.07663 23.625 3.375 23.625Z" fill="#573828"/>
</svg>
