<svg width="28" height="28" viewBox="0 0 28 28" fill="none" xmlns="http://www.w3.org/2000/svg">
<path d="M8.4056 18.4361H23.8336C25.583 18.4361 27.0102 17.009 27.0102 15.2596V8.76843C27.0102 8.76267 27.0102 8.75116 27.0102 8.74541C27.0102 8.72814 27.0102 8.71663 27.0102 8.69937C27.0102 8.68786 27.0102 8.67635 27.0044 8.66484C27.0044 8.65333 26.9986 8.63607 26.9986 8.62456C26.9986 8.61305 26.9929 8.60154 26.9929 8.59003C26.9871 8.57852 26.9871 8.56702 26.9814 8.54975C26.9756 8.53824 26.9756 8.52673 26.9699 8.51522C26.9641 8.50371 26.9641 8.49221 26.9584 8.4807C26.9526 8.46919 26.9469 8.45768 26.9411 8.44041C26.9353 8.42891 26.9296 8.4174 26.9238 8.41164C26.9181 8.40013 26.9123 8.38862 26.9066 8.37711C26.9008 8.36561 26.8951 8.35985 26.8893 8.34834C26.8836 8.33683 26.872 8.32532 26.8663 8.31381C26.8605 8.3023 26.8548 8.29655 26.8433 8.28504C26.8375 8.27353 26.826 8.26778 26.8203 8.25627C26.8145 8.24476 26.803 8.239 26.7972 8.22749C26.7915 8.21599 26.78 8.21023 26.7742 8.20448C26.7627 8.19297 26.757 8.18721 26.7454 8.1757C26.7339 8.16995 26.7282 8.15844 26.7167 8.15269C26.7052 8.14693 26.6937 8.13542 26.6821 8.12967C26.6706 8.12391 26.6649 8.11816 26.6534 8.1124C26.6419 8.10665 26.6304 8.10089 26.6188 8.08939C26.6073 8.08363 26.5958 8.07788 26.5843 8.07212C26.5728 8.06637 26.5613 8.06061 26.5498 8.05486C26.5383 8.0491 26.5268 8.04335 26.5153 8.03759C26.5038 8.03184 26.4922 8.03184 26.4807 8.02608C26.4692 8.02033 26.452 8.01458 26.4405 8.01458C26.4289 8.01458 26.4174 8.00882 26.4117 8.00882C26.3944 8.00307 26.3829 8.00307 26.3656 8.00307C26.3599 8.00307 26.3541 7.99731 26.3426 7.99731L6.78856 5.29841V2.57074C6.78856 2.54197 6.78856 2.5132 6.78281 2.49018C6.78281 2.48442 6.78281 2.47867 6.77705 2.46716C6.77705 2.4499 6.7713 2.43263 6.7713 2.41537C6.76555 2.39811 6.76555 2.3866 6.75979 2.36933C6.75979 2.35782 6.75404 2.35207 6.75404 2.34056C6.74828 2.3233 6.74253 2.30603 6.73677 2.28877C6.73677 2.28301 6.73102 2.2715 6.73102 2.26575C6.72526 2.24849 6.71951 2.23698 6.708 2.21971C6.70225 2.21396 6.70225 2.20245 6.69649 2.1967C6.69074 2.18519 6.68498 2.17368 6.67347 2.16217C6.66772 2.15066 6.66196 2.1449 6.65621 2.13339C6.65045 2.12189 6.6447 2.11613 6.63894 2.10462C6.63319 2.09311 6.62168 2.0816 6.61593 2.07009C6.61017 2.06434 6.60442 2.05859 6.59866 2.05283C6.58715 2.04132 6.57564 2.02981 6.56414 2.0183C6.55838 2.01255 6.55263 2.00679 6.54687 2.00104C6.53536 1.98953 6.52385 1.97802 6.50659 1.96651C6.50083 1.96076 6.48933 1.955 6.48357 1.94925C6.47206 1.93774 6.46055 1.93198 6.44904 1.92048C6.43178 1.90897 6.41452 1.89746 6.40301 1.8917C6.39725 1.88595 6.3915 1.88595 6.38574 1.88019C6.36272 1.86868 6.33395 1.85717 6.31093 1.84567L2.06981 0.0617462C1.67274 -0.105137 1.21813 0.07901 1.05125 0.476076C0.884365 0.873142 1.06851 1.32775 1.46558 1.49464L5.22907 3.0829V6.6047V7.1629V11.4443V15.2711V20.1049C5.22907 21.7162 6.43753 23.0513 7.99703 23.2527C7.71505 23.7246 7.54817 24.277 7.54817 24.864C7.54817 26.5961 8.95804 28.0002 10.6844 28.0002C12.4108 28.0002 13.8207 26.5904 13.8207 24.864C13.8207 24.2885 13.6653 23.7418 13.3891 23.2815H20.3751C20.0989 23.7476 19.9435 24.2885 19.9435 24.864C19.9435 26.5961 21.3534 28.0002 23.0798 28.0002C24.8062 28.0002 26.216 26.5904 26.216 24.864C26.216 23.1376 24.8062 21.7277 23.0798 21.7277H8.4056C7.50789 21.7277 6.78281 20.9969 6.78281 20.1049V17.9988C7.25468 18.275 7.81288 18.4361 8.4056 18.4361ZM12.2727 24.8582C12.2727 25.7329 11.5591 26.4407 10.6902 26.4407C9.82123 26.4407 9.10766 25.7272 9.10766 24.8582C9.10766 23.9893 9.82123 23.2757 10.6902 23.2757C11.5591 23.2757 12.2727 23.9835 12.2727 24.8582ZM24.668 24.8582C24.668 25.7329 23.9545 26.4407 23.0855 26.4407C22.2166 26.4407 21.503 25.7272 21.503 24.8582C21.503 23.9893 22.2166 23.2757 23.0855 23.2757C23.9545 23.2757 24.668 23.9835 24.668 24.8582ZM23.8336 16.8824H8.4056C7.50789 16.8824 6.78281 16.1516 6.78281 15.2596V11.4328V7.15139V6.86366L25.4564 9.43596V15.2538C25.4564 16.1573 24.7256 16.8824 23.8336 16.8824Z"/>
</svg>
