<svg width="15" height="15" viewBox="0 0 15 15" fill="none" xmlns="http://www.w3.org/2000/svg">
<g clip-path="url(#clip0)">
<path d="M8.32819 7.50076L14.8279 1.00102C15.0567 0.772184 15.0567 0.401169 14.8279 0.172361C14.5991 -0.0564477 14.228 -0.056477 13.9992 0.172361L7.4995 6.6721L0.9998 0.172361C0.770963 -0.056477 0.399948 -0.056477 0.17114 0.172361C-0.0576684 0.401198 -0.0576976 0.772213 0.17114 1.00102L6.67084 7.50073L0.17114 14.0005C-0.0576976 14.2293 -0.0576976 14.6003 0.17114 14.8291C0.285544 14.9435 0.435514 15.0007 0.585485 15.0007C0.735455 15.0007 0.885396 14.9435 0.99983 14.8291L7.4995 8.32942L13.9992 14.8291C14.1136 14.9435 14.2636 15.0007 14.4136 15.0007C14.5635 15.0007 14.7135 14.9435 14.8279 14.8291C15.0567 14.6003 15.0567 14.2293 14.8279 14.0005L8.32819 7.50076Z" fill="white"/>
</g>
<defs>
<clipPath id="clip0">
<rect width="15" height="15" fill="black"/>
</clipPath>
</defs>
</svg>
