<svg width="32" height="32" viewBox="0 0 32 32" fill="none" xmlns="http://www.w3.org/2000/svg">
<path d="M16 32C24.8094 32 32 24.8094 32 16C32 7.19059 24.8094 0 16 0C7.19059 0 0 7.19059 0 16C0 24.8094 7.19059 32 16 32ZM16 1.50588C23.9812 1.50588 30.4941 8.01882 30.4941 16C30.4941 23.9812 23.9812 30.4941 16 30.4941C8.01882 30.4941 1.50588 23.9812 1.50588 16C1.50588 8.01882 8.01882 1.50588 16 1.50588Z" fill="#233131"/>
<path d="M22.9647 20.9696L23.7177 19.6896L16.753 15.7366V5.45898H15.2471V16.1884L15.6235 16.8284L22.9647 20.9696Z" fill="#233131"/>
</svg>
