<svg xmlns="http://www.w3.org/2000/svg" width="32" height="32"><path fill="#233131" d="M30.465 22.945l-3.871-3.906c-.64-.64-1.504-1.023-2.305-1.023-.863 0-1.633.351-2.305 1.023l-2.242 2.242a1.34 1.34 0 00-.316-.16s-.035 0-.035-.031l-.032-.035a5.74 5.74 0 00-.992-.543c-1.953-1.215-3.773-2.91-5.633-5.184-.863-1.09-1.468-2.047-1.949-3.105.512-.414.895-.832 1.184-1.153l.992-.992c.766-.703 1.152-1.504 1.152-2.336 0-.863-.386-1.664-1.12-2.43l-3.04-3.039c-.289-.289-.578-.578-.898-.867C8.415.801 7.617.45 6.785.45c-.93 0-1.695.32-2.402 1.024L2.047 3.809C1.12 4.672.574 5.762.449 7.105v.032c-.066 1.664.192 3.199.895 5.12 1.12 3.009 2.816 5.821 5.343 8.927 3.297 3.71 7.008 6.593 11.137 8.578l.098.031c1.215.543 3.52 1.566 6.078 1.727h.352c1.695 0 2.976-.543 4.03-1.696.388-.449.802-.863 1.153-1.25.29-.222.48-.445.672-.672l.258-.254.062-.062c1.344-1.473 1.344-3.266-.062-4.64zm-1.121 3.551l-.32.32-.032.063c-.16.191-.289.351-.449.48l-.094.098a26.21 26.21 0 00-1.281 1.344c-.734.8-1.566 1.152-2.816 1.152h-.254c-2.243-.16-4.29-1.058-5.504-1.601l-.067-.032c-3.933-1.886-7.488-4.64-10.59-8.16-2.433-2.945-4.035-5.633-5.09-8.45-.64-1.757-.863-3.038-.8-4.48.098-.925.45-1.664 1.09-2.238l2.367-2.367c.383-.387.77-.547 1.25-.547.414 0 .797.195 1.148.516l.035.031c.286.254.575.543.864.832l3.039 3.04c.574.573.672 1.023.672 1.28 0 .254-.063.637-.672 1.184l-1.024 1.023c-.351.383-.77.801-1.312 1.246l-.063.067-.066.094c-.285.386-.32.738-.16 1.25l.031.129.035.125c.543 1.183 1.215 2.273 2.176 3.488 1.984 2.433 3.969 4.258 6.078 5.57l.098.063c.254.129.512.257.734.382.098.098.227.16.32.196.13.062.223.093.29.16l.222.156h.067l.093.035c.192.063.32.063.418.063.32 0 .606-.13.895-.414l2.398-2.403c.387-.382.739-.543 1.188-.543.476 0 .926.29 1.183.543l3.903 3.907c.77.765.8 1.566 0 2.398zm0 0"/></svg>