<svg width="26" height="26" fill="none" xmlns="http://www.w3.org/2000/svg"><path d="M25.644 13.05c0 1.768-.035 3.54.01 5.308.077 3.128-1.889 5.545-4.392 6.621a7.943 7.943 0 01-3.154.66c-3.417.006-6.84.051-10.257-.015-2.575-.05-4.693-1.127-6.211-3.25C.843 21.257.462 19.988.462 18.611V7.693c0-2.97 1.447-5.047 4.017-6.398C5.596.711 6.809.462 8.074.457c3.316 0 6.637-.02 9.953.01 2.575.02 4.723 1.006 6.307 3.078.884 1.157 1.31 2.488 1.31 3.95v5.556zm-23.308 0v5.587c0 .833.193 1.615.624 2.32 1.133 1.854 2.844 2.758 4.967 2.793 3.407.051 6.82.02 10.232.01.838 0 1.65-.172 2.407-.533 2.062-.985 3.215-2.554 3.204-4.91-.02-3.606-.005-7.211-.005-10.817 0-1.02-.289-1.955-.893-2.777-1.168-1.58-2.783-2.357-4.713-2.377-3.402-.04-6.804-.015-10.207-.01a5.99 5.99 0 00-2.107.401c-1.869.696-3.606 2.458-3.524 5.053.06 1.757.015 3.509.015 5.26z"/><path d="M13.081 18.434c-3.275 0-5.916-2.61-5.921-5.86-.005-3.2 2.656-5.82 5.91-5.82 3.266-.005 5.917 2.61 5.922 5.835 0 3.22-2.646 5.84-5.911 5.845zm0-1.88c2.23 0 4.037-1.782 4.032-3.975-.005-2.174-1.813-3.951-4.032-3.951-2.23 0-4.047 1.772-4.047 3.96.005 2.195 1.818 3.972 4.047 3.967zm6.597-11.577c.685 0 1.244.584 1.244 1.3-.005.716-.569 1.294-1.255 1.29-.675-.006-1.229-.585-1.229-1.285-.005-.716.554-1.305 1.24-1.305z"/></svg>