<svg width="260" height="260" viewBox="0 0 260 260" fill="none" xmlns="http://www.w3.org/2000/svg">
<path d="M235 193.748C230.956 196.45 228.539 193.421 223.635 190.997C215.597 187.038 199.368 192.531 196.527 206.021C198.084 196.638 203.726 187.592 211.117 187.097C213.352 186.949 215 185.593 215 184.425C215 183.257 213.433 181.456 210.885 181.456C209.318 181.456 196.729 183.633 196.072 206.199C196.072 200.013 196.962 186.266 203.281 180.743C212.128 180.298 213.271 168.381 203.918 164.373C205.94 167.164 205.556 170.727 203.635 170.687C203.736 170.47 203.827 170.242 203.938 170.014C204.229 169.368 204.33 168.655 204.23 167.956C204.13 167.257 203.833 166.599 203.372 166.055C203.2 165.798 202.998 165.541 202.786 165.273C200.703 162.71 196.982 159.81 195 155C192.978 159.81 189.297 162.71 187.214 165.273C187.002 165.541 186.8 165.798 186.628 166.055C186.167 166.599 185.87 167.257 185.77 167.956C185.67 168.655 185.771 169.368 186.062 170.014C186.173 170.242 186.264 170.47 186.365 170.687C184.444 170.687 184.06 167.164 186.082 164.373C176.729 168.332 177.872 180.298 186.719 180.743C193.038 186.266 193.888 200.013 193.928 206.199C193.22 183.663 180.683 181.456 179.115 181.456C176.567 181.456 175 183.217 175 184.425C175 185.632 176.648 186.949 178.883 187.097C186.274 187.592 191.916 196.638 193.473 206.021C190.672 192.531 174.403 187.028 166.365 190.997C161.461 193.421 159.034 196.45 155 193.748C156.132 198.35 157.518 199.568 161.684 198.202C156.132 202.161 156.254 211.484 165.991 214.938C163.332 206.812 177.872 212.157 177.74 200.092C177.235 205.546 165.991 205.437 166.112 200.538C166.385 189.918 186.668 195.589 187.831 209.297H179.085V213.879H187.71C186.062 218.699 178.994 221.965 174.292 217.927C174.476 217.959 174.662 217.975 174.848 217.977C175.275 217.885 175.666 217.678 175.977 217.378C176.288 217.078 176.507 216.698 176.607 216.282C176.707 215.866 176.685 215.431 176.543 215.027C176.401 214.623 176.146 214.266 175.806 213.998C175.466 213.73 175.055 213.561 174.622 213.511C174.188 213.462 173.749 213.533 173.355 213.717C172.961 213.902 172.628 214.191 172.395 214.552C172.162 214.914 172.038 215.332 172.037 215.76C172.037 216.126 171.835 215.819 172.037 216.126C172.887 223.113 189.065 223.875 193.018 215.215C192.25 217.195 192.664 219.392 188.862 221.47C183.554 224.36 185.536 231.704 180.147 229.754C186.122 233.793 189.378 230.675 191.138 228.428C191.259 228.765 191.4 229.091 191.552 229.418L191.613 229.537C191.913 230.159 192.251 230.764 192.624 231.348V231.397C193.038 232.021 193.453 232.605 193.837 233.159L194.282 233.822C194.282 233.822 194.282 233.872 194.282 233.901C194.414 234.109 194.545 234.317 194.656 234.525L194.757 234.703L194.899 235L195.04 234.703L195.142 234.525C195.253 234.317 195.384 234.109 195.516 233.901C195.516 233.901 195.516 233.852 195.516 233.822L195.961 233.159C196.345 232.605 196.759 232.021 197.174 231.397V231.348C197.547 230.764 197.885 230.159 198.185 229.537L198.246 229.418C198.397 229.101 198.539 228.775 198.66 228.428C200.42 230.675 203.716 233.793 209.651 229.754C204.262 231.734 206.244 224.36 200.935 221.47C197.133 219.392 197.548 217.215 196.78 215.215C200.733 223.875 216.911 223.133 217.76 216.126C217.963 215.819 217.76 216.126 217.76 215.76C217.888 215.189 217.832 214.594 217.599 214.056C217.367 213.518 216.969 213.065 216.462 212.757C215.954 212.45 215.362 212.304 214.767 212.341C214.171 212.377 213.602 212.593 213.137 212.959C212.673 213.326 212.336 213.824 212.173 214.386C212.01 214.948 212.03 215.545 212.229 216.096C212.427 216.647 212.796 217.123 213.283 217.46C213.771 217.797 214.353 217.977 214.949 217.977C215.136 217.975 215.322 217.959 215.506 217.927C210.804 221.965 203.736 218.699 202.088 213.879H210.713V209.326H201.967C203.129 195.599 223.413 189.947 223.686 200.567C223.807 205.516 212.563 205.575 212.058 200.122C211.926 212.147 226.466 206.803 223.807 214.968C233.544 211.514 233.665 202.161 228.114 198.231C232.482 199.568 233.868 198.35 235 193.748Z" fill="#040404" fill-opacity="0.1"/>
<path d="M105 63.748C100.956 66.4499 98.5389 63.4214 93.635 60.9965C85.5966 57.0376 69.368 62.5306 66.5268 76.0207C68.0839 66.638 73.726 57.5919 81.1173 57.097C83.3519 56.9485 85 55.5926 85 54.4247C85 53.2568 83.4328 51.4555 80.8847 51.4555C79.3175 51.4555 66.729 53.6329 66.0718 76.1988C66.0718 70.013 66.9616 56.2656 73.2811 50.7429C82.1284 50.2975 83.271 38.3812 73.9181 34.3728C75.9404 37.1638 75.5561 40.7268 73.635 40.6873C73.7361 40.4695 73.8271 40.2419 73.9383 40.0142C74.229 39.368 74.3299 38.6553 74.2299 37.956C74.1299 37.2567 73.8329 36.5986 73.3721 36.0553C73.2002 35.798 72.998 35.5406 72.7856 35.2734C70.7027 32.71 66.9818 29.8101 65 25C62.9778 29.8101 59.2973 32.71 57.2144 35.2734C57.002 35.5406 56.7998 35.798 56.6279 36.0553C56.1671 36.5986 55.8701 37.2567 55.7701 37.956C55.6701 38.6553 55.771 39.368 56.0617 40.0142C56.1729 40.2419 56.2639 40.4695 56.365 40.6873C54.4439 40.6873 54.0596 37.1638 56.0819 34.3728C46.729 38.3317 47.8716 50.2975 56.7189 50.7429C63.0384 56.2656 63.8878 70.013 63.9282 76.1988C63.2204 53.6626 50.6825 51.4555 49.1153 51.4555C46.5672 51.4555 45 53.2172 45 54.4247C45 55.6322 46.6481 56.9485 48.8827 57.097C56.274 57.5919 61.9161 66.638 63.4732 76.0207C60.6724 62.5306 44.4034 57.0277 36.365 60.9965C31.4611 63.4214 29.0344 66.4499 25 63.748C26.1325 68.3502 27.5177 69.5676 31.6835 68.2018C26.1325 72.1607 26.2538 81.484 35.9909 84.9381C33.3316 76.8124 47.8716 82.157 47.7401 70.0922C47.2346 75.5456 35.9909 75.4367 36.1122 70.5375C36.3852 59.9177 56.6684 65.5889 57.8311 79.2967H49.0849V83.8791H57.7098C56.0617 88.6991 48.9939 91.9652 44.2922 87.9271C44.4759 87.9588 44.6619 87.9753 44.8483 87.9766C45.2748 87.8852 45.6662 87.6776 45.9773 87.3778C46.2884 87.078 46.5066 86.6982 46.6067 86.2822C46.7068 85.8662 46.6847 85.431 46.5429 85.0268C46.4012 84.6226 46.1456 84.2659 45.8057 83.9978C45.4657 83.7296 45.0552 83.5611 44.6216 83.5115C44.188 83.4619 43.7488 83.5333 43.3549 83.7175C42.9609 83.9017 42.6282 84.1911 42.3951 84.5525C42.162 84.9138 42.038 85.3323 42.0374 85.7596C42.0374 86.1258 41.8352 85.819 42.0374 86.1258C42.8867 93.1133 59.0647 93.8754 63.0182 85.2153C62.2497 87.1947 62.6643 89.3919 58.8625 91.4704C53.5541 94.3604 55.5359 101.704 50.1466 99.7544C56.1223 103.793 59.3782 100.675 61.1375 98.4282C61.2588 98.7647 61.4004 99.0913 61.5521 99.4179L61.6127 99.5367C61.9132 100.159 62.2509 100.764 62.6239 101.348V101.397C63.0384 102.021 63.453 102.605 63.8372 103.159L64.2821 103.822C64.2821 103.822 64.2821 103.872 64.2821 103.901C64.4135 104.109 64.545 104.317 64.6562 104.525L64.7573 104.703L64.8989 105L65.0404 104.703L65.1416 104.525C65.2528 104.317 65.3842 104.109 65.5157 103.901C65.5157 103.901 65.5157 103.852 65.5157 103.822L65.9606 103.159C66.3448 102.605 66.7593 102.021 67.1739 101.397V101.348C67.5469 100.764 67.8845 100.159 68.185 99.5367L68.2457 99.4179C68.3974 99.1012 68.5389 98.7746 68.6603 98.4282C70.4196 100.675 73.7159 103.793 79.6512 99.7544C74.2619 101.734 76.2437 94.3604 70.9353 91.4704C67.1335 89.3919 67.548 87.2145 66.7796 85.2153C70.7331 93.8754 86.911 93.1331 87.7604 86.1258C87.9626 85.819 87.7604 86.1258 87.7604 85.7596C87.8881 85.1892 87.8317 84.594 87.5991 84.0562C87.3665 83.5184 86.9691 83.0645 86.4618 82.7572C85.9545 82.4499 85.3622 82.3044 84.7667 82.3406C84.1713 82.3768 83.602 82.593 83.1374 82.9594C82.6728 83.3259 82.3359 83.8244 82.1731 84.3862C82.0103 84.948 82.0297 85.5455 82.2285 86.0961C82.4274 86.6467 82.7959 87.1233 83.2833 87.4601C83.7707 87.797 84.3528 87.9774 84.9494 87.9766C85.1359 87.9753 85.3219 87.9588 85.5056 87.9271C80.8038 91.9652 73.7361 88.6991 72.088 83.8791H80.7128V79.3264H71.9666C73.1294 65.5988 93.4125 59.9474 93.6855 70.5672C93.8069 75.5159 82.5632 75.5753 82.0576 70.1219C81.9262 82.1471 96.4661 76.8025 93.8069 84.9678C103.544 81.5137 103.665 72.1607 98.1143 68.2315C102.482 69.5676 103.868 68.3502 105 63.748Z" fill="#040404" fill-opacity="0.1"/>
</svg>
