<svg version="1.1" id="Слой_1" xmlns="http://www.w3.org/2000/svg" x="0" y="0" viewBox="0 0 122.9 134" xml:space="preserve"><linearGradient id="SVGID_1_" gradientUnits="userSpaceOnUse" x1="33.027" y1="29.93" x2="33.027" y2="93.46" gradientTransform="matrix(1 0 0 -1 0 136)"><stop offset="0" stop-color="#bbefe6"/><stop offset="1" stop-color="#d6ceb4"/></linearGradient><path d="M33.8 75.2c2.2 6-1 9.7-4 10-1.4 0-2.7-.4-3.8-1.3-1.1-.9-1.8-2.2-2.1-3.6-.8-7.2-11.4-1.7-8.9 6.4 2.5 8.4 9.1 13.9 17.4 12.8C51 96.9 57.3 73 45.9 58.8c-6.1-7.6-14.7-11.9-23.3-16.3h12c4.1 2.2 8 4.9 11.6 8 3.4 3 6.2 6.7 8.2 10.9 2 4.2 3.1 8.8 3.3 13.5.3 5.3-.8 10.5-3.2 15.2-2.3 4.7-5.9 8.6-10.2 11.4-8.5 5.6-20.3 6.5-28.4-.5-7.1-6.3-10.5-18.3-4.6-26.8 5.9-8.3 19-8.7 22.5 1z" fill="url(#SVGID_1_)"/><linearGradient id="SVGID_2_" gradientUnits="userSpaceOnUse" x1="43.666" y1="41.785" x2="43.666" y2="62.417" gradientTransform="matrix(1 0 0 -1 0 136)"><stop offset="0" stop-color="#bbefe6"/><stop offset="1" stop-color="#d6ceb4"/></linearGradient><path d="M38.5 77.7c0-.1.1-.1.1-.2s.1-.2.1-.3c.1-.1.2-.1.2-.2h.3c.1 0 .2.1.3.1 3 2.5 9.1.5 10.2-3.2 0-.1.1-.3.2-.3.1-.1.3-.1.4-.1h.2c.1 0 .1.1.2.1.1.1.1.1.1.2v.2c-.4 8.2-4.4 20.4-14.1 20.1-.1 0-.3-.1-.3-.2-.1-.1-.2-.2-.2-.4 0-.1 0-.3.1-.4.1-.1.2-.2.3-.2 2.6-2 6-4.3 6.3-8.7-2.2 1.9-5.8-2.3-4.4-6.5z" fill="url(#SVGID_2_)"/><linearGradient id="SVGID_3_" gradientUnits="userSpaceOnUse" x1="30.542" y1="60.933" x2="30.542" y2="93.59" gradientTransform="matrix(1 0 0 -1 0 136)"><stop offset="0" stop-color="#bbefe6"/><stop offset="1" stop-color="#d6ceb4"/></linearGradient><path d="M32.5 50.5c3.8 2 7.4 4.5 10.7 7.3 1.7 1.5 3.1 3.3 4.3 5.2.5 1.1.9 2.3 1 3.5.1 1.2 0 2.4-.2 3.6-.3 1.2-.9 2.4-1.8 3.2-.7.6-1.5 1.1-2.3 1.3-.8.3-1.7.4-2.6.3-.9-.1-1.7-.4-2.5-.9s-1.4-1.1-2-1.8c-.7-1-1.1-2.2-1.1-3.4 0-1.2.5-2.3 1.2-3.2.4-.5.8-.8 1.3-1.1.5-.3 1.1-.4 1.6-.4s1.1.2 1.5.5c.5.3.8.7 1.1 1.3-.3-.5-.7-.8-1.1-1.1-.5-.2-1-.4-1.5-.3-.5.1-1 .2-1.4.5-.4.3-.8.6-1.1 1-.6.8-.9 1.8-.8 2.8.1 1 .5 1.9 1.1 2.7.6.8 1.4 1.3 2.3 1.7.9.3 1.8.4 2.8.2.9-.2 1.7-.6 2.4-1.3.6-.7 1.1-1.5 1.2-2.4.2-1 .2-2 .1-3s-.4-1.9-.8-2.7c-1.1-1.7-2.5-3.3-4.1-4.6-3.2-2.7-6.7-5.1-10.4-7-6.2-3.4-12.7-6.4-18.9-10h4.1c5.3 2.8 10.6 5.3 15.9 8.1z" fill="url(#SVGID_3_)"/><linearGradient id="SVGID_4_" gradientUnits="userSpaceOnUse" x1="34.305" y1="40.136" x2="34.305" y2="42.538" gradientTransform="matrix(1 0 0 -1 0 136)"><stop offset="0" stop-color="#bbefe6"/><stop offset="1" stop-color="#d6ceb4"/></linearGradient><path d="M33.5 95.5c-.2-.2-.3-.5-.3-.8 0-.2 0-.3.1-.5 0-.2.1-.3.2-.4.1-.1.2-.2.4-.3.1-.1.3-.1.4-.1.2 0 .3 0 .4.1.1.1.3.2.4.3.1.1.2.3.2.4 0 .2.1.3.1.5s0 .3-.1.4c-.1.1-.1.3-.2.4-.2.2-.5.3-.8.3-.3.1-.6-.1-.8-.3z" fill="url(#SVGID_4_)"/><linearGradient id="SVGID_5_" gradientUnits="userSpaceOnUse" x1="24.586" y1="40.505" x2="24.586" y2="42.881" gradientTransform="matrix(1 0 0 -1 0 136)"><stop offset="0" stop-color="#bbefe6"/><stop offset="1" stop-color="#d6ceb4"/></linearGradient><path d="M24 95.3c-.3-.1-.5-.4-.5-.7-.1-.3-.1-.6.1-.9.1-.2.2-.3.4-.4.2-.1.4-.2.6-.2.2 0 .4 0 .5.1.2.1.3.1.4.3.1.1.2.3.3.4.1.2.1.3.1.5s-.1.3-.1.5c-.1.1-.2.3-.3.4-.1.1-.3.2-.4.2h-.5c-.3-.1-.5-.1-.6-.2z" fill="url(#SVGID_5_)"/><linearGradient id="SVGID_6_" gradientUnits="userSpaceOnUse" x1="31.043" y1="39.11" x2="31.043" y2="41.437" gradientTransform="matrix(1 0 0 -1 0 136)"><stop offset="0" stop-color="#bbefe6"/><stop offset="1" stop-color="#d6ceb4"/></linearGradient><path d="M30 95.8c0-.3.1-.6.2-.8.2-.2.4-.4.7-.4h.1c.2 0 .4.1.6.2.2.1.3.3.4.5.1.2.1.4.1.7 0 .2-.1.4-.3.6-.1.2-.3.3-.5.3-.2.1-.4.1-.6 0-.2-.1-.4-.2-.5-.4-.2-.2-.2-.4-.2-.7z" fill="url(#SVGID_6_)"/><linearGradient id="SVGID_7_" gradientUnits="userSpaceOnUse" x1="18.979" y1="70.278" x2="18.979" y2="93.47" gradientTransform="matrix(1 0 0 -1 0 136)"><stop offset="0" stop-color="#bbefe6"/><stop offset="1" stop-color="#d6ceb4"/></linearGradient><path d="M27.6 55c-2.4-1.9-5-3.5-7.7-4.7-4.8-2.2-9.5-4.8-13.9-7.8h3.6c3.6 2.1 7.4 3.9 11.3 5.7 2.9 1.3 5.7 3 8.2 5.1 1.3 1.2 2.3 2.8 2.8 4.5.3.9.4 1.9.2 2.8-.1.9-.4 1.8-.9 2.7-.5.8-1.2 1.4-2 1.8-.8.4-1.7.6-2.6.6-.9 0-1.8-.2-2.6-.7-.8-.4-1.5-1.1-2-1.8-.4-.8-.7-1.7-.7-2.6-.1-.9.2-1.8.8-2.5.3-.3.6-.6 1-.8.4-.2.8-.2 1.2-.1.4.1.8.3 1.1.5.3.3.6.6.7 1.1-.2-.3-.4-.6-.8-.9-.3-.2-.7-.4-1-.4-.4 0-.7.1-1 .2-.3.2-.6.4-.8.7-.4.6-.5 1.3-.4 2 .1.7.3 1.4.7 2 .4.6 1 1 1.6 1.3.6.3 1.3.4 2 .3.6 0 1.3-.2 1.8-.5.6-.3 1-.8 1.4-1.3.3-.6.4-1.3.5-1.9 0-.7-.1-1.3-.3-2-.4-1.3-1.2-2.4-2.2-3.3z" fill="url(#SVGID_7_)"/><linearGradient id="SVGID_8_" gradientUnits="userSpaceOnUse" x1="18.556" y1="52.053" x2="18.556" y2="54.45" gradientTransform="matrix(1 0 0 -1 0 136)"><stop offset="0" stop-color="#bbefe6"/><stop offset="1" stop-color="#d6ceb4"/></linearGradient><path d="M18.5 81.6h.2c.3 0 .6.2.8.4.2.2.3.5.3.8 0 .3-.1.6-.4.8-.2.2-.5.3-.8.3-.3 0-.6-.1-.8-.3-.2-.2-.3-.5-.4-.8 0-.3.1-.6.3-.8.2-.3.5-.4.8-.4z" fill="url(#SVGID_8_)"/><linearGradient id="SVGID_9_" gradientUnits="userSpaceOnUse" x1="27.709" y1="39.365" x2="27.709" y2="41.68" gradientTransform="matrix(1 0 0 -1 0 136)"><stop offset="0" stop-color="#bbefe6"/><stop offset="1" stop-color="#d6ceb4"/></linearGradient><path d="M27.5 96.6c-.3-.1-.5-.2-.7-.5-.2-.2-.2-.5-.2-.8 0-.3.2-.5.4-.7.2-.2.5-.3.7-.3h.2c.1 0 .3.1.4.2l.3.3c.1.1.1.3.2.4v.4c0 .2-.1.3-.2.4l-.3.3c-.1.1-.3.1-.4.2-.1.1-.3.1-.4.1z" fill="url(#SVGID_9_)"/><linearGradient id="SVGID_10_" gradientUnits="userSpaceOnUse" x1="68.716" y1="10.53" x2="68.716" y2="36.73" gradientTransform="matrix(1 0 0 -1 0 136)"><stop offset="0" stop-color="#bbefe6"/><stop offset="1" stop-color="#d6ceb4"/></linearGradient><path d="M71 113.8c1.9 3.6 3 7.6 3.3 11.7-3.2-2.4-5.8-5.5-7.8-9.1-3.1-5.7-3.3-17.1-3.3-17.1s4.7 8.7 7.8 14.5z" fill="url(#SVGID_10_)"/><linearGradient id="SVGID_11_" gradientUnits="userSpaceOnUse" x1="53.106" y1="34" x2="53.106" y2="66.33" gradientTransform="matrix(1 0 0 -1 0 136)"><stop offset="0" stop-color="#bbefe6"/><stop offset="1" stop-color="#d6ceb4"/></linearGradient><path d="M59.8 79c-.2 3.1-.8 6.2-1.9 9.2-1.1 2.9-2.7 5.6-4.7 8-1 1.2-2.1 2.3-3.2 3.3-1.2 1-2.4 1.8-3.7 2.6 2.4-1.8 4.5-4 6.3-6.4 1.8-2.4 3.2-5.1 4.3-7.9C58 85 58.7 82 59 79c.2-1.5.3-3 .3-4.6 0-1.5 0-3.1-.1-4.6.7 2.9.9 6.1.6 9.2z" fill="url(#SVGID_11_)"/><linearGradient id="SVGID_12_" gradientUnits="userSpaceOnUse" x1="7.658" y1="57.798" x2="7.658" y2="83.082" gradientTransform="matrix(1 0 0 -1 0 136)"><stop offset="0" stop-color="#bbefe6"/><stop offset="1" stop-color="#d6ceb4"/></linearGradient><path d="M6 70c-.2-2.7-1.9-4.5-3.6-6.4-2.2-2.3-1.6-7.3.5-9.1 3.2-2.7 6.8-1.9 10.1 2 3.8 4.5 2.4 11.6-1 15.8-1.5 1.9-3.3 3.4-5.4 4.4-2.1 1-4.4 1.5-6.7 1.5v-4.4c4 0 6.2-2.2 6.1-3.8z" fill="url(#SVGID_12_)"/><linearGradient id="SVGID_13_" gradientUnits="userSpaceOnUse" x1="69.388" y1="33.96" x2="69.388" y2="66.25" gradientTransform="matrix(1 0 0 -1 0 136)"><stop offset="0" stop-color="#bbefe6"/><stop offset="1" stop-color="#d6ceb4"/></linearGradient><path d="M65.6 87.7c1.1 2.8 2.5 5.5 4.3 7.9 1.8 2.4 4 4.6 6.3 6.4-1.3-.8-2.5-1.6-3.7-2.6-1.2-1-2.2-2.1-3.2-3.3-2-2.4-3.6-5.1-4.7-8-1.1-2.9-1.7-6-1.9-9.2-.2-3.1 0-6.2.7-9.3-.1 1.5-.2 3.1-.1 4.6-.1 4.8.8 9.3 2.3 13.5z" fill="url(#SVGID_13_)"/><linearGradient id="SVGID_14_" gradientUnits="userSpaceOnUse" x1="79.999" y1="15.431" x2="79.999" y2="38.48" gradientTransform="matrix(1 0 0 -1 0 136)"><stop offset="0" stop-color="#bbefe6"/><stop offset="1" stop-color="#d6ceb4"/></linearGradient><path d="M85.8 109.3c2.5 2.8-3.2 6.2-5.9 4.2 2.2 3.8 10 4.6 10.6-.1 0 0 .5-.8 1.2.1 1.6 1.9 0 4.3-1.7 5.8-3.9 3.7-19.3.3-22.5-21.8 3 7.5 10.2 17.1 18.3 11.8z" fill="url(#SVGID_14_)"/><linearGradient id="SVGID_15_" gradientUnits="userSpaceOnUse" x1="42.272" y1="15.431" x2="42.272" y2="38.48" gradientTransform="matrix(1 0 0 -1 0 136)"><stop offset="0" stop-color="#bbefe6"/><stop offset="1" stop-color="#d6ceb4"/></linearGradient><path d="M31.7 113.4c.7 4.8 8.4 3.9 10.6.1-2.7 1.9-8.4-1.4-5.9-4.2 8.2 5.2 15.3-4.3 18.2-11.8-3.1 22.1-18.5 25.5-22.4 21.8-1.7-1.5-3.3-3.9-1.7-5.8.7-.9 1.2-.1 1.2-.1z" fill="url(#SVGID_15_)"/><linearGradient id="SVGID_16_" gradientUnits="userSpaceOnUse" x1="18.341" y1="48.715" x2="18.341" y2="50.93" gradientTransform="matrix(1 0 0 -1 0 136)"><stop offset="0" stop-color="#bbefe6"/><stop offset="1" stop-color="#d6ceb4"/></linearGradient><path d="M18.2 85.1h.2c.3 0 .5.2.7.4.2.2.3.5.3.8 0 .3-.1.6-.3.8-.2.2-.5.3-.7.3-.3 0-.5-.1-.7-.3-.2-.2-.3-.5-.3-.8 0-.3.1-.6.3-.8 0-.3.3-.4.5-.4z" fill="url(#SVGID_16_)"/><linearGradient id="SVGID_17_" gradientUnits="userSpaceOnUse" x1="54.085" y1="10.53" x2="54.085" y2="36.73" gradientTransform="matrix(1 0 0 -1 0 136)"><stop offset="0" stop-color="#bbefe6"/><stop offset="1" stop-color="#d6ceb4"/></linearGradient><path d="M59.6 99.3s-.2 11.4-3.3 17.1c-2 3.6-4.6 6.7-7.8 9.1.3-4.1 1.4-8.1 3.3-11.7 3.1-5.8 7.8-14.5 7.8-14.5z" fill="url(#SVGID_17_)"/><linearGradient id="SVGID_18_" gradientUnits="userSpaceOnUse" x1="61.304" y1="2" x2="61.304" y2="36.21" gradientTransform="matrix(1 0 0 -1 0 136)"><stop offset="0" stop-color="#bbefe6"/><stop offset="1" stop-color="#d6ceb4"/></linearGradient><path d="M63.9 119.6c0 4.9-.9 9.8-2.6 14.4-1.7-4.6-2.5-9.5-2.6-14.4 0-8 2.6-19.8 2.6-19.8s2.6 11.8 2.6 19.8z" fill="url(#SVGID_18_)"/><linearGradient id="SVGID_19_" gradientUnits="userSpaceOnUse" x1="79.251" y1="41.785" x2="79.251" y2="62.417" gradientTransform="matrix(1 0 0 -1 0 136)"><stop offset="0" stop-color="#bbefe6"/><stop offset="1" stop-color="#d6ceb4"/></linearGradient><path d="M86.2 93.1c.1 0 .2.1.3.2.1.1.1.3.1.4 0 .1-.1.3-.2.4-.1.1-.2.2-.3.2-9.8.3-13.7-11.9-14.1-20.1V74c0-.1.1-.1.1-.2.1-.1.1-.1.2-.1h.2c.1 0 .3 0 .4.1s.2.2.2.3c1.1 3.7 7.2 5.7 10.2 3.2.1-.1.2-.1.3-.1h.3c.1 0 .2.1.2.2.1.1.1.2.1.3 0 0 .1.1.1.2 1.4 4.2-2.2 8.4-4.5 6.7.4 4.1 3.7 6.4 6.4 8.5z" fill="url(#SVGID_19_)"/><linearGradient id="SVGID_20_" gradientUnits="userSpaceOnUse" x1="103.278" y1="45.336" x2="103.278" y2="47.65" gradientTransform="matrix(1 0 0 -1 0 136)"><stop offset="0" stop-color="#bbefe6"/><stop offset="1" stop-color="#d6ceb4"/></linearGradient><path d="M102.7 90.5l-.3-.3c-.1-.1-.2-.3-.2-.4v-.4c0-.2.1-.3.1-.4.1-.2.2-.3.4-.4s.4-.2.6-.2c.2 0 .4.1.5.2l.3.3c.1.1.2.3.2.4v.4c0 .2-.1.3-.1.4l-.3.3c-.1.1-.2.2-.4.2h-.4c-.1 0-.2 0-.4-.1z" fill="url(#SVGID_20_)"/><linearGradient id="SVGID_21_" gradientUnits="userSpaceOnUse" x1="104.466" y1="52.156" x2="104.466" y2="54.441" gradientTransform="matrix(1 0 0 -1 0 136)"><stop offset="0" stop-color="#bbefe6"/><stop offset="1" stop-color="#d6ceb4"/></linearGradient><path d="M105.5 82.5v.5c0 .2-.1.3-.2.4l-.3.3c-.1.1-.3.1-.4.1-.3 0-.6-.1-.8-.2-.2-.2-.4-.4-.4-.7 0-.3 0-.6.2-.8.2-.2.4-.4.7-.5h.2c.3 0 .5.1.7.2.1.2.3.4.3.7z" fill="url(#SVGID_21_)"/><linearGradient id="SVGID_22_" gradientUnits="userSpaceOnUse" x1="104.407" y1="48.633" x2="104.407" y2="50.942" gradientTransform="matrix(1 0 0 -1 0 136)"><stop offset="0" stop-color="#bbefe6"/><stop offset="1" stop-color="#d6ceb4"/></linearGradient><path d="M104.2 87.3c-.3 0-.5-.2-.7-.4-.2-.2-.3-.5-.2-.8s.2-.6.4-.8c.2-.2.5-.3.8-.3h.2c.1 0 .3.1.4.2l.3.3c.1.1.1.3.2.4v.5c-.1.3-.2.6-.5.7s-.6.3-.9.2z" fill="url(#SVGID_22_)"/><linearGradient id="SVGID_23_" gradientUnits="userSpaceOnUse" x1="103.376" y1="55.526" x2="103.376" y2="57.82" gradientTransform="matrix(1 0 0 -1 0 136)"><stop offset="0" stop-color="#bbefe6"/><stop offset="1" stop-color="#d6ceb4"/></linearGradient><path d="M102.6 80.2c-.2-.2-.3-.5-.3-.8 0-.3.1-.6.3-.8.2-.2.5-.3.8-.3.3 0 .6.1.8.3.2.2.3.5.3.8 0 .3-.1.6-.3.8-.2.2-.5.3-.8.3-.3 0-.6-.1-.8-.3z" fill="url(#SVGID_23_)"/><linearGradient id="SVGID_24_" gradientUnits="userSpaceOnUse" x1="101.155" y1="42.603" x2="101.155" y2="44.94" gradientTransform="matrix(1 0 0 -1 0 136)"><stop offset="0" stop-color="#bbefe6"/><stop offset="1" stop-color="#d6ceb4"/></linearGradient><path d="M100.3 93c-.1-.1-.2-.2-.2-.4 0-.1-.1-.3-.1-.4 0-.2 0-.3.1-.4.1-.1.1-.3.3-.4.2-.2.5-.3.7-.3.2 0 .3 0 .4.1s.3.2.4.3c.1.1.2.2.2.4.1.1.1.3.1.4 0 .2 0 .3-.1.4-.1.1-.1.3-.2.4-.1.1-.2.2-.4.3-.1.1-.3.1-.4.1-.2 0-.3 0-.4-.1-.1-.2-.3-.3-.4-.4z" fill="url(#SVGID_24_)"/><linearGradient id="SVGID_25_" gradientUnits="userSpaceOnUse" x1="103.927" y1="70.258" x2="103.927" y2="93.5" gradientTransform="matrix(1 0 0 -1 0 136)"><stop offset="0" stop-color="#bbefe6"/><stop offset="1" stop-color="#d6ceb4"/></linearGradient><path d="M117 42.5c-4.4 3-9.1 5.6-13.9 7.8-2.8 1.2-5.4 2.8-7.7 4.7-1.1.9-1.9 2.1-2.3 3.4-.2.6-.3 1.3-.3 2s.2 1.3.5 1.9c.4.6.8 1 1.4 1.3.6.3 1.2.5 1.8.5.7.1 1.3-.1 2-.3.6-.3 1.2-.7 1.6-1.3.4-.6.7-1.3.7-2 .1-.7 0-1.4-.4-2-.2-.3-.5-.5-.8-.7-.3-.2-.7-.2-1-.2-.4 0-.7.2-1 .4-.3.2-.6.5-.8.9.1-.4.4-.8.7-1.1.3-.3.7-.5 1.1-.5.4-.1.8 0 1.2.1.4.2.7.4 1 .8.6.7.9 1.6.8 2.5 0 .9-.2 1.8-.7 2.6-.5.8-1.2 1.4-2 1.8-.8.4-1.7.7-2.6.7-.9 0-1.8-.2-2.6-.6-.8-.4-1.5-1-2-1.8s-.8-1.7-.9-2.7c-.1-.9 0-1.9.2-2.8.5-1.8 1.4-3.3 2.8-4.5 2.5-2.1 5.3-3.8 8.2-5.1 3.8-1.8 7.7-3.6 11.3-5.7l3.7-.1z" fill="url(#SVGID_25_)"/><linearGradient id="SVGID_26_" gradientUnits="userSpaceOnUse" x1="92.36" y1="60.823" x2="92.36" y2="93.48" gradientTransform="matrix(1 0 0 -1 0 136)"><stop offset="0" stop-color="#bbefe6"/><stop offset="1" stop-color="#d6ceb4"/></linearGradient><path d="M75.4 63.1c1.2-1.9 2.7-3.7 4.3-5.2 3.3-2.9 6.9-5.3 10.8-7.3 5.2-2.9 10.6-5.4 15.8-8h4.2c-6.2 3.6-12.7 6.6-18.9 10.1-3.7 1.9-7.2 4.3-10.4 7-1.6 1.3-2.9 2.9-4.1 4.6-.4.9-.7 1.8-.8 2.7-.2 1-.1 2 .1 3 .2.9.6 1.8 1.2 2.4.7.7 1.5 1.1 2.4 1.3.9.2 1.9.1 2.8-.2s1.7-.9 2.3-1.7c.6-.7 1-1.7 1.1-2.7.1-1-.2-2-.8-2.8-.3-.4-.7-.8-1.1-1s-.9-.4-1.4-.5c-.5 0-1 .1-1.5.3-.5.2-.8.6-1.1 1.1.2-.5.6-.9 1.1-1.3.5-.3 1-.5 1.5-.5.6 0 1.1.2 1.6.4s.9.6 1.3 1.1c.8.9 1.2 2 1.2 3.2 0 1.2-.4 2.4-1.1 3.4-.5.7-1.2 1.4-2 1.8s-1.6.8-2.5.9c-.9.1-1.8 0-2.6-.3s-1.6-.7-2.3-1.3c-.9-.9-1.5-2-1.8-3.2-.3-1.2-.4-2.4-.2-3.6 0-1.4.3-2.6.9-3.7z" fill="url(#SVGID_26_)"/><linearGradient id="SVGID_27_" gradientUnits="userSpaceOnUse" x1="73.256" y1="69.661" x2="73.256" y2="93.5" gradientTransform="matrix(1 0 0 -1 0 136)"><stop offset="0" stop-color="#bbefe6"/><stop offset="1" stop-color="#d6ceb4"/></linearGradient><path d="M62.3 65.6c-.8-5.7.9-15.3 6.1-23.1h16c-9.9 5.6-18.5 12.3-21 23.4-.2.8-1 .4-1.1-.3z" fill="url(#SVGID_27_)"/><linearGradient id="SVGID_28_" gradientUnits="userSpaceOnUse" x1="19.531" y1="55.527" x2="19.531" y2="57.82" gradientTransform="matrix(1 0 0 -1 0 136)"><stop offset="0" stop-color="#bbefe6"/><stop offset="1" stop-color="#d6ceb4"/></linearGradient><path d="M19.5 78.2c.3 0 .6.1.8.3.2.2.3.5.3.8 0 .3-.1.6-.3.8-.2.2-.5.3-.8.3-.3 0-.6-.1-.8-.3-.2-.2-.3-.5-.3-.8 0-.3.1-.6.3-.8.3-.2.5-.3.8-.3z" fill="url(#SVGID_28_)"/><linearGradient id="SVGID_29_" gradientUnits="userSpaceOnUse" x1="21.765" y1="42.598" x2="21.765" y2="44.91" gradientTransform="matrix(1 0 0 -1 0 136)"><stop offset="0" stop-color="#bbefe6"/><stop offset="1" stop-color="#d6ceb4"/></linearGradient><path d="M21.8 91.1c.3 0 .6.1.8.3.1.1.2.2.3.4.1.1.1.3.1.4 0 .2 0 .3-.1.4-.1.1-.1.3-.2.4-.2.2-.5.4-.8.4-.3 0-.6-.1-.8-.3-.2-.2-.3-.4-.3-.6v-.7c.1-.2.2-.4.4-.5s.3-.2.6-.2z" fill="url(#SVGID_29_)"/><linearGradient id="SVGID_30_" gradientUnits="userSpaceOnUse" x1="49.65" y1="69.679" x2="49.65" y2="93.5" gradientTransform="matrix(1 0 0 -1 0 136)"><stop offset="0" stop-color="#bbefe6"/><stop offset="1" stop-color="#d6ceb4"/></linearGradient><path d="M38.5 42.5h16c5.2 7.8 6.9 17.4 6.1 23.1-.1.7-.9 1-1.1.3-2.5-11.1-11.1-17.8-21-23.4z" fill="url(#SVGID_30_)"/><linearGradient id="SVGID_31_" gradientUnits="userSpaceOnUse" x1="98.357" y1="40.575" x2="98.357" y2="42.881" gradientTransform="matrix(1 0 0 -1 0 136)"><stop offset="0" stop-color="#bbefe6"/><stop offset="1" stop-color="#d6ceb4"/></linearGradient><path d="M98.4 93.1c.2 0 .4.1.6.2.2.1.3.3.4.4.1.3.2.6.1.9-.1.3-.3.5-.5.7-.1.1-.3.1-.4.1h-.4c-.1 0-.3-.1-.4-.2l-.3-.3c-.1-.1-.1-.3-.1-.4v-.4c0-.1.1-.3.2-.4l.3-.3c.1-.2.3-.3.5-.3z" fill="url(#SVGID_31_)"/><linearGradient id="SVGID_32_" gradientUnits="userSpaceOnUse" x1="19.608" y1="45.336" x2="19.608" y2="47.65" gradientTransform="matrix(1 0 0 -1 0 136)"><stop offset="0" stop-color="#bbefe6"/><stop offset="1" stop-color="#d6ceb4"/></linearGradient><path d="M20.2 90.5c-.1.1-.3.1-.4.1h-.4c-.1 0-.3-.1-.4-.2l-.3-.3c-.1-.1-.1-.3-.1-.4v-.4c0-.1.1-.3.2-.4l.3-.3c.2-.1.4-.2.5-.2.2 0 .4.1.6.2.2.1.3.2.4.4.1.1.1.3.1.4v.5c0 .1-.1.3-.2.4-.1 0-.2.1-.3.2z" fill="url(#SVGID_32_)"/><linearGradient id="SVGID_33_" gradientUnits="userSpaceOnUse" x1="89.865" y1="30.03" x2="89.865" y2="93.51" gradientTransform="matrix(1 0 0 -1 0 136)"><stop offset="0" stop-color="#bbefe6"/><stop offset="1" stop-color="#d6ceb4"/></linearGradient><path d="M65.2 74.9c.2-4.7 1.3-9.3 3.3-13.5 2-4.2 4.8-7.9 8.2-10.9 3.6-3.1 7.5-5.8 11.6-8h11.9c-8.6 4.4-17.1 8.6-23.3 16.3-11.3 14.2-5 38 13.7 40.5 8.3 1.1 14.9-4.4 17.4-12.8 2.4-8.1-8.1-13.6-8.9-6.4-.3 1.4-1 2.7-2.1 3.6s-2.4 1.4-3.8 1.3c-3-.3-6.2-4-4-10 3.5-9.7 16.6-9.2 22.4-.9 5.9 8.5 2.5 20.5-4.6 26.8-8 7.1-19.9 6.1-28.4.6-4.3-2.8-7.8-6.8-10.1-11.4-2.4-4.7-3.5-10-3.3-15.2z" fill="url(#SVGID_33_)"/><linearGradient id="SVGID_34_" gradientUnits="userSpaceOnUse" x1="91.799" y1="39.15" x2="91.799" y2="41.455" gradientTransform="matrix(1 0 0 -1 0 136)"><stop offset="0" stop-color="#bbefe6"/><stop offset="1" stop-color="#d6ceb4"/></linearGradient><path d="M91.9 94.6c.3 0 .5.2.7.4.2.2.3.5.2.8 0 .2-.1.4-.2.6-.1.2-.3.3-.5.4s-.4.1-.6 0c-.2-.1-.4-.2-.5-.3l-.3-.6c0-.2 0-.4.1-.6.1-.2.2-.4.4-.5.2-.1.4-.2.6-.2 0-.1.1-.1.1 0z" fill="url(#SVGID_34_)"/><linearGradient id="SVGID_35_" gradientUnits="userSpaceOnUse" x1="95.077" y1="39.346" x2="95.077" y2="41.68" gradientTransform="matrix(1 0 0 -1 0 136)"><stop offset="0" stop-color="#bbefe6"/><stop offset="1" stop-color="#d6ceb4"/></linearGradient><path d="M95.2 94.3c.3 0 .6.2.7.4.2.2.3.5.3.8 0 .3-.1.6-.3.8-.2.2-.5.3-.8.3-.3 0-.6-.1-.8-.3-.2-.2-.3-.5-.3-.8 0-.3.1-.6.3-.8.2-.2.5-.4.7-.4h.2z" fill="url(#SVGID_35_)"/><linearGradient id="SVGID_36_" gradientUnits="userSpaceOnUse" x1="88.601" y1="40.136" x2="88.601" y2="42.43" gradientTransform="matrix(1 0 0 -1 0 136)"><stop offset="0" stop-color="#bbefe6"/><stop offset="1" stop-color="#d6ceb4"/></linearGradient><path d="M89.4 93.9c.2.2.3.5.3.8 0 .3-.1.6-.3.8-.2.2-.5.3-.8.3-.3 0-.6-.1-.8-.3-.1-.1-.2-.2-.2-.4-.1-.1-.1-.3-.1-.4 0-.3.1-.6.3-.8.1-.1.2-.2.4-.3.1-.1.3-.1.4-.1.3.1.6.2.8.4z" fill="url(#SVGID_36_)"/><linearGradient id="SVGID_37_" gradientUnits="userSpaceOnUse" x1="115.267" y1="57.908" x2="115.267" y2="83.204" gradientTransform="matrix(1 0 0 -1 0 136)"><stop offset="0" stop-color="#bbefe6"/><stop offset="1" stop-color="#d6ceb4"/></linearGradient><path d="M110.9 72.2c-3.4-4.2-4.8-11.3-1-15.8 3.3-3.9 7-4.7 10.2-2 2.1 1.8 2.6 6.8.5 9.1-1.7 1.8-3.4 3.7-3.6 6.4-.1 1.6 2.1 3.8 6 3.8v4.4c-2.3 0-4.6-.5-6.7-1.5-2.1-1-4-2.6-5.4-4.4z" fill="url(#SVGID_37_)"/><linearGradient id="SVGID_38_" gradientUnits="userSpaceOnUse" x1="61.473" y1="96" x2="61.473" y2="108.5" gradientTransform="matrix(1 0 0 -1 0 136)"><stop offset="0" stop-color="#bbefe6"/><stop offset="1" stop-color="#d6ceb4"/></linearGradient><path d="M122.9 40H0V27.5h122.9V40z" fill="url(#SVGID_38_)"/><linearGradient id="SVGID_39_" gradientUnits="userSpaceOnUse" x1="61.473" y1="123.5" x2="61.473" y2="136" gradientTransform="matrix(1 0 0 -1 0 136)"><stop offset="0" stop-color="#bbefe6"/><stop offset="1" stop-color="#d6ceb4"/></linearGradient><path d="M122.9 12.5H0V0h122.9v12.5z" fill="url(#SVGID_39_)"/><linearGradient id="SVGID_40_" gradientUnits="userSpaceOnUse" x1="61.473" y1="113.5" x2="61.473" y2="118.5" gradientTransform="matrix(1 0 0 -1 0 136)"><stop offset="0" stop-color="#bbefe6"/><stop offset="1" stop-color="#d6ceb4"/></linearGradient><path d="M122.9 22.5H0v-5h122.9v5z" fill="url(#SVGID_40_)"/></svg>