<svg width="260" height="260" fill="none" xmlns="http://www.w3.org/2000/svg"><path d="M235 193.748c-4.044 2.702-6.461-.327-11.365-2.751-8.038-3.959-24.267 1.534-27.108 15.024 1.557-9.383 7.199-18.429 14.59-18.924 2.235-.148 3.883-1.504 3.883-2.672 0-1.168-1.567-2.969-4.115-2.969-1.567 0-14.156 2.177-14.813 24.743 0-6.186.89-19.933 7.209-25.456 8.847-.445 9.99-12.362.637-16.37 2.022 2.791 1.638 6.354-.283 6.314.101-.217.192-.445.303-.673a3.724 3.724 0 00.292-2.058 3.765 3.765 0 00-.858-1.901 12.522 12.522 0 00-.586-.782c-2.083-2.563-5.804-5.463-7.786-10.273-2.022 4.81-5.703 7.71-7.786 10.273-.212.268-.414.525-.586.782a3.765 3.765 0 00-.858 1.901c-.1.699.001 1.412.292 2.058.111.228.202.456.303.673-1.921 0-2.305-3.523-.283-6.314-9.353 3.959-8.21 15.925.637 16.37 6.319 5.523 7.169 19.27 7.209 25.456-.708-22.536-13.245-24.743-14.813-24.743-2.548 0-4.115 1.761-4.115 2.969 0 1.207 1.648 2.524 3.883 2.672 7.391.495 13.033 9.541 14.59 18.924-2.801-13.49-19.07-18.993-27.108-15.024-4.904 2.424-7.331 5.453-11.365 2.751 1.132 4.602 2.518 5.82 6.684 4.454-5.552 3.959-5.43 13.282 4.307 16.736-2.659-8.126 11.881-2.781 11.749-14.846-.505 5.454-11.749 5.345-11.628.446.273-10.62 20.556-4.949 21.719 8.759h-8.746v4.582h8.625c-1.648 4.82-8.716 8.086-13.418 4.048.184.032.37.048.556.05a2.331 2.331 0 001.129-.599c.311-.3.53-.68.63-1.096.1-.416.078-.851-.064-1.255a2.269 2.269 0 00-.737-1.029 2.35 2.35 0 00-3.411.554 2.24 2.24 0 00-.358 1.208c0 .366-.202.059 0 .366.85 6.987 17.028 7.749 20.981-.911-.768 1.98-.354 4.177-4.156 6.255-5.308 2.89-3.326 10.234-8.715 8.284 5.975 4.039 9.231.921 10.991-1.326.121.337.262.663.414.99l.061.119c.3.622.638 1.227 1.011 1.811v.049c.414.624.829 1.208 1.213 1.762l.445.663v.079c.132.208.263.416.374.624l.101.178.142.297.141-.297.102-.178c.111-.208.242-.416.374-.624v-.079l.445-.663c.384-.554.798-1.138 1.213-1.762v-.049c.373-.584.711-1.189 1.011-1.811l.061-.119c.151-.317.293-.643.414-.99 1.76 2.247 5.056 5.365 10.991 1.326-5.389 1.98-3.407-5.394-8.716-8.284-3.802-2.078-3.387-4.255-4.155-6.255 3.953 8.66 20.131 7.918 20.98.911.203-.307 0 0 0-.366a2.762 2.762 0 00-.161-1.704 2.839 2.839 0 00-1.137-1.299 2.928 2.928 0 00-1.695-.416 2.92 2.92 0 00-1.63.618 2.824 2.824 0 00-.964 1.427 2.762 2.762 0 00.056 1.71 2.822 2.822 0 001.054 1.364c.488.337 1.07.517 1.666.517.187-.002.373-.018.557-.05-4.702 4.038-11.77.772-13.418-4.048h8.625v-4.553h-8.746c1.162-13.727 21.446-19.379 21.719-8.759.121 4.949-11.123 5.008-11.628-.445-.132 12.025 14.408 6.681 11.749 14.846 9.737-3.454 9.858-12.807 4.307-16.737 4.368 1.337 5.754.119 6.886-4.483zm-130-130c-4.044 2.702-6.461-.327-11.365-2.752-8.038-3.958-24.267 1.535-27.108 15.025 1.557-9.383 7.199-18.43 14.59-18.924C83.352 56.949 85 55.593 85 54.425c0-1.168-1.567-2.97-4.115-2.97-1.568 0-14.156 2.178-14.813 24.744 0-6.186.89-19.933 7.21-25.456 8.846-.446 9.989-12.362.636-16.37 2.022 2.79 1.638 6.354-.283 6.314.101-.218.192-.445.303-.673a3.724 3.724 0 00.292-2.058c-.1-.7-.397-1.357-.858-1.9a12.034 12.034 0 00-.586-.783C70.703 32.71 66.982 29.81 65 25c-2.022 4.81-5.703 7.71-7.786 10.273-.212.268-.414.525-.586.782a3.762 3.762 0 00-.858 1.901c-.1.7.001 1.412.292 2.058.11.228.202.455.303.673-1.921 0-2.305-3.523-.283-6.314-9.353 3.959-8.21 15.925.637 16.37 6.32 5.523 7.169 19.27 7.21 25.456-.709-22.536-13.247-24.743-14.814-24.743-2.548 0-4.115 1.761-4.115 2.969 0 1.207 1.648 2.524 3.883 2.672 7.391.495 13.033 9.541 14.59 18.924-2.8-13.49-19.07-18.993-27.108-15.025-4.904 2.425-7.33 5.454-11.365 2.752 1.133 4.602 2.518 5.82 6.683 4.454-5.55 3.959-5.43 13.282 4.308 16.736-2.66-8.126 11.88-2.781 11.75-14.846-.506 5.454-11.75 5.345-11.629.445.273-10.62 20.556-4.948 21.72 8.76h-8.747v4.582h8.625c-1.648 4.82-8.716 8.086-13.418 4.048.184.032.37.048.556.05a2.33 2.33 0 001.13-.6c.31-.299.529-.679.629-1.095a2.22 2.22 0 00-.064-1.255 2.267 2.267 0 00-.737-1.03 2.36 2.36 0 00-2.45-.28 2.3 2.3 0 00-.96.835c-.234.362-.358.78-.359 1.208 0 .366-.202.059 0 .366.85 6.987 17.028 7.75 20.981-.91-.768 1.979-.354 4.176-4.156 6.254-5.308 2.89-3.326 10.234-8.715 8.284 5.975 4.039 9.231.921 10.99-1.326.122.337.263.663.415.99l.06.119c.301.622.639 1.227 1.012 1.811v.049c.414.624.829 1.208 1.213 1.762l.445.663v.079c.132.208.263.416.374.624l.101.178.142.297.141-.297.102-.178c.11-.208.242-.416.374-.624v-.079l.445-.663c.384-.554.798-1.138 1.213-1.762v-.049c.373-.584.71-1.189 1.011-1.811l.06-.12c.152-.316.294-.642.415-.989 1.76 2.247 5.056 5.365 10.991 1.326-5.39 1.98-3.407-5.394-8.716-8.284-3.802-2.078-3.387-4.255-4.155-6.255 3.953 8.66 20.131 7.918 20.98.91.203-.306 0 0 0-.365a2.765 2.765 0 00-.16-1.704 2.839 2.839 0 00-1.138-1.299 2.93 2.93 0 00-3.325.202 2.818 2.818 0 00-.964 1.427 2.765 2.765 0 00.055 1.71c.2.55.568 1.027 1.055 1.364.488.337 1.07.517 1.666.517a3.41 3.41 0 00.557-.05c-4.702 4.038-11.77.772-13.418-4.048h8.625v-4.553h-8.746c1.162-13.727 21.445-19.379 21.719-8.759.12 4.949-11.123 5.008-11.628-.445-.132 12.025 14.408 6.68 11.749 14.846 9.737-3.454 9.858-12.807 4.307-16.737 4.368 1.337 5.754.12 6.886-4.483z" fill="#040404" fill-opacity=".1"/></svg>