<svg width="28" height="28" fill="none" xmlns="http://www.w3.org/2000/svg"><path d="M8.406 18.436h15.428a3.183 3.183 0 003.176-3.176V8.7c0-.011 0-.023-.006-.034 0-.012-.005-.029-.005-.04 0-.012-.006-.023-.006-.035-.006-.011-.006-.023-.012-.04-.005-.012-.005-.023-.011-.035-.006-.011-.006-.023-.012-.034a.28.28 0 01-.017-.04c-.006-.012-.011-.024-.017-.03l-.017-.034c-.006-.011-.012-.017-.018-.029-.005-.011-.017-.023-.023-.034a.102.102 0 00-.023-.029c-.006-.011-.017-.017-.023-.029-.006-.011-.017-.017-.023-.029-.006-.011-.017-.017-.023-.023l-.029-.028c-.011-.006-.017-.018-.028-.023-.012-.006-.023-.018-.035-.023-.011-.006-.017-.012-.029-.018a.122.122 0 01-.034-.023l-.035-.017-.034-.017-.035-.017c-.011-.006-.023-.006-.034-.012a.106.106 0 00-.04-.011c-.012 0-.024-.006-.03-.006-.017-.006-.028-.006-.045-.006-.006 0-.012-.006-.023-.006l-19.554-2.7V2.571c0-.029 0-.058-.006-.08 0-.007 0-.012-.006-.024 0-.017-.006-.034-.006-.052-.005-.017-.005-.028-.011-.046 0-.011-.006-.017-.006-.028l-.017-.052c0-.006-.006-.018-.006-.023a.173.173 0 00-.023-.046c-.006-.006-.006-.018-.012-.023a.12.12 0 00-.023-.035c-.005-.011-.011-.017-.017-.029l-.017-.028c-.006-.012-.017-.023-.023-.035l-.017-.017-.035-.035-.017-.017c-.012-.011-.023-.023-.04-.034-.006-.006-.018-.012-.023-.018-.012-.011-.023-.017-.035-.029-.017-.011-.034-.023-.046-.028-.006-.006-.011-.006-.017-.012l-.075-.034L2.07.062a.776.776 0 00-1.02.414.776.776 0 00.415 1.019l3.763 1.588v17.022a3.18 3.18 0 002.768 3.148 3.139 3.139 0 00-.449 1.611A3.14 3.14 0 0010.684 28a3.144 3.144 0 003.137-3.136c0-.576-.156-1.122-.432-1.582h6.986a3.092 3.092 0 00-.431 1.582A3.14 3.14 0 0023.08 28a3.143 3.143 0 003.136-3.136 3.144 3.144 0 00-3.136-3.136H8.406a1.625 1.625 0 01-1.623-1.623v-2.106c.472.276 1.03.437 1.623.437zm3.867 6.422c0 .875-.714 1.583-1.583 1.583a1.589 1.589 0 01-1.582-1.583 1.59 1.59 0 011.582-1.582c.87 0 1.583.707 1.583 1.582zm12.395 0c0 .875-.713 1.583-1.582 1.583a1.589 1.589 0 01-1.583-1.583 1.59 1.59 0 011.582-1.582c.87 0 1.583.707 1.583 1.582zm-.834-7.976H8.406c-.898 0-1.623-.73-1.623-1.622V6.864l18.673 2.572v5.818c0 .903-.73 1.628-1.622 1.628z"/></svg>