<svg width="32" height="40" fill="none" xmlns="http://www.w3.org/2000/svg"><path d="M13.232 35.322v-.003c-.66-1.965-1.838-3.413-3.178-4.663-.667-.621-1.38-1.2-2.092-1.766l-.344-.274c-.6-.476-1.194-.948-1.776-1.449-1.38-1.186-2.64-2.495-3.564-4.232C1.358 21.206.75 19.003.75 16A15.248 15.248 0 0126.783 5.216 15.249 15.249 0 0131.25 16c0 3.004-.602 5.207-1.513 6.94-.913 1.737-2.16 3.045-3.52 4.231a57.44 57.44 0 01-1.732 1.433l-.359.29c-.7.566-1.403 1.146-2.059 1.768-1.316 1.25-2.468 2.7-3.1 4.664l-.001.003-1.017 3.07v.002a1.25 1.25 0 01-1.25.848H15.5a1.251 1.251 0 01-1.249-.848v-.002l-1.019-3.076zM12.25 21.61a6.75 6.75 0 107.5-11.225 6.75 6.75 0 00-7.5 11.225z" stroke="#233131" stroke-width="1.5"/></svg>