<svg width="70" height="70" fill="none" xmlns="http://www.w3.org/2000/svg"><path d="M36.422 19.808a1.521 1.521 0 10-2.151 2.151l11.523 11.524H15.177a1.527 1.527 0 000 3.052h30.602L34.255 48.06a1.52 1.52 0 001.084 2.595 1.563 1.563 0 001.083-.443L50.54 36.093c.288-.288.448-.678.444-1.084a1.574 1.574 0 00-.444-1.083L36.422 19.808z" fill="#32917F"/><path d="M35.019 2.194a32.81 32.81 0 00-23.2 56.014c12.814 12.814 33.587 12.814 46.4 0 12.812-12.812 12.812-33.585 0-46.398a32.606 32.606 0 00-23.2-9.616zm0 62.578c-16.407 0-29.762-13.356-29.762-29.763 0-16.407 13.354-29.762 29.762-29.762 16.407 0 29.762 13.355 29.762 29.762S51.426 64.772 35.02 64.772z" fill="#32917F"/></svg>