<svg width="70" height="71" fill="none" xmlns="http://www.w3.org/2000/svg"><g filter="url(#filter0_d)" fill="#99E1D4"><path d="M33.578 19.808a1.521 1.521 0 112.151 2.151L24.206 33.483h30.617a1.527 1.527 0 010 3.052H24.221L35.745 48.06a1.52 1.52 0 01-1.084 2.595 1.564 1.564 0 01-1.083-.443L19.46 36.093a1.512 1.512 0 01-.444-1.084c.003-.405.162-.792.444-1.083l14.118-14.118z"/><path d="M34.982 2.194a32.81 32.81 0 0123.2 56.014c-12.814 12.814-33.587 12.814-46.4 0-12.812-12.812-12.812-33.585 0-46.398a32.606 32.606 0 0123.2-9.616zm0 62.578c16.407 0 29.762-13.356 29.762-29.763 0-16.407-13.355-29.762-29.762-29.762S5.22 18.602 5.22 35.009s13.356 29.763 29.763 29.763z"/></g><defs><filter id="filter0_d" x="-2" y="-1" width="74" height="74" filterUnits="userSpaceOnUse" color-interpolation-filters="sRGB"><feFlood flood-opacity="0" result="BackgroundImageFix"/><feColorMatrix in="SourceAlpha" values="0 0 0 0 0 0 0 0 0 0 0 0 0 0 0 0 0 0 127 0"/><feOffset dy="1"/><feGaussianBlur stdDeviation="1"/><feColorMatrix values="0 0 0 0 0 0 0 0 0 0 0 0 0 0 0 0 0 0 0.25 0"/><feBlend in2="BackgroundImageFix" result="effect1_dropShadow"/><feBlend in="SourceGraphic" in2="effect1_dropShadow" result="shape"/></filter></defs></svg>