<svg width="70" height="70" fill="none" xmlns="http://www.w3.org/2000/svg"><path d="M33.578 19.808a1.521 1.521 0 112.151 2.151L24.206 33.483h30.617a1.527 1.527 0 010 3.052H24.221L35.745 48.06a1.52 1.52 0 01-1.084 2.595 1.564 1.564 0 01-1.083-.443L19.46 36.093a1.512 1.512 0 01-.444-1.084c.003-.405.162-.792.444-1.083l14.118-14.118z" fill="url(#paint0_linear)"/><path d="M34.981 2.194a32.81 32.81 0 0123.2 56.014c-12.814 12.814-33.587 12.814-46.4 0-12.812-12.812-12.812-33.585 0-46.398a32.606 32.606 0 0123.2-9.616zm0 62.578c16.407 0 29.762-13.356 29.762-29.763 0-16.407-13.354-29.762-29.762-29.762-16.407 0-29.763 13.355-29.763 29.762s13.356 29.763 29.763 29.763z" fill="url(#paint1_linear)"/><defs><linearGradient id="paint0_linear" x1="37.683" y1="19.362" x2="37.683" y2="50.654" gradientUnits="userSpaceOnUse"><stop stop-color="#5BCFBA"/><stop offset="1" stop-color="#508C81"/></linearGradient><linearGradient id="paint1_linear" x1="34.984" y1="2.194" x2="34.984" y2="67.818" gradientUnits="userSpaceOnUse"><stop stop-color="#5BCFBA"/><stop offset="1" stop-color="#508C81"/></linearGradient></defs></svg>