<?xml version="1.0" encoding="utf-8"?>
<!-- Generator: Adobe Illustrator 24.3.0, SVG Export Plug-In . SVG Version: 6.00 Build 0)  -->
<svg version="1.1" id="Слой_1" xmlns="http://www.w3.org/2000/svg" xmlns:xlink="http://www.w3.org/1999/xlink" x="0px" y="0px"
	 viewBox="0 0 122.9 134" style="enable-background:new 0 0 122.9 134;" xml:space="preserve">
<style type="text/css">
	.st0{fill:url(#SVGID_1_);}
	.st1{fill:url(#SVGID_2_);}
	.st2{fill:url(#SVGID_3_);}
	.st3{fill:url(#SVGID_4_);}
	.st4{fill:url(#SVGID_5_);}
	.st5{fill:url(#SVGID_6_);}
	.st6{fill:url(#SVGID_7_);}
	.st7{fill:url(#SVGID_8_);}
	.st8{fill:url(#SVGID_9_);}
	.st9{fill:url(#SVGID_10_);}
	.st10{fill:url(#SVGID_11_);}
	.st11{fill:url(#SVGID_12_);}
	.st12{fill:url(#SVGID_13_);}
	.st13{fill:url(#SVGID_14_);}
	.st14{fill:url(#SVGID_15_);}
	.st15{fill:url(#SVGID_16_);}
	.st16{fill:url(#SVGID_17_);}
	.st17{fill:url(#SVGID_18_);}
	.st18{fill:url(#SVGID_19_);}
	.st19{fill:url(#SVGID_20_);}
	.st20{fill:url(#SVGID_21_);}
	.st21{fill:url(#SVGID_22_);}
	.st22{fill:url(#SVGID_23_);}
	.st23{fill:url(#SVGID_24_);}
	.st24{fill:url(#SVGID_25_);}
	.st25{fill:url(#SVGID_26_);}
	.st26{fill:url(#SVGID_27_);}
	.st27{fill:url(#SVGID_28_);}
	.st28{fill:url(#SVGID_29_);}
	.st29{fill:url(#SVGID_30_);}
	.st30{fill:url(#SVGID_31_);}
	.st31{fill:url(#SVGID_32_);}
	.st32{fill:url(#SVGID_33_);}
	.st33{fill:url(#SVGID_34_);}
	.st34{fill:url(#SVGID_35_);}
	.st35{fill:url(#SVGID_36_);}
	.st36{fill:url(#SVGID_37_);}
	.st37{fill:url(#SVGID_38_);}
	.st38{fill:url(#SVGID_39_);}
	.st39{fill:url(#SVGID_40_);}
</style>
<linearGradient id="SVGID_1_" gradientUnits="userSpaceOnUse" x1="33.0267" y1="29.93" x2="33.0267" y2="93.46" gradientTransform="matrix(1 0 0 -1 0 136)">
	<stop  offset="0" style="stop-color:#BBEFE6"/>
	<stop  offset="1" style="stop-color:#D6CEB4"/>
</linearGradient>
<path class="st0" d="M33.8,75.2c2.2,6-1,9.7-4,10c-1.4,0-2.7-0.4-3.8-1.3c-1.1-0.9-1.8-2.2-2.1-3.6c-0.8-7.2-11.4-1.7-8.9,6.4
	c2.5,8.4,9.1,13.9,17.4,12.8C51,96.9,57.3,73,45.9,58.8c-6.1-7.6-14.7-11.9-23.3-16.3h12c4.1,2.2,8,4.9,11.6,8
	c3.4,3,6.2,6.7,8.2,10.9c2,4.2,3.1,8.8,3.3,13.5c0.3,5.3-0.8,10.5-3.2,15.2c-2.3,4.7-5.9,8.6-10.2,11.4c-8.5,5.6-20.3,6.5-28.4-0.5
	c-7.1-6.3-10.5-18.3-4.6-26.8C17.2,65.9,30.3,65.5,33.8,75.2z"/>
<linearGradient id="SVGID_2_" gradientUnits="userSpaceOnUse" x1="43.6655" y1="41.7846" x2="43.6655" y2="62.4174" gradientTransform="matrix(1 0 0 -1 0 136)">
	<stop  offset="0" style="stop-color:#BBEFE6"/>
	<stop  offset="1" style="stop-color:#D6CEB4"/>
</linearGradient>
<path class="st1" d="M38.5,77.7c0-0.1,0.1-0.1,0.1-0.2c0-0.1,0.1-0.2,0.1-0.3c0.1-0.1,0.2-0.1,0.2-0.2c0.1,0,0.2,0,0.3,0
	c0.1,0,0.2,0.1,0.3,0.1c3,2.5,9.1,0.5,10.2-3.2c0-0.1,0.1-0.3,0.2-0.3c0.1-0.1,0.3-0.1,0.4-0.1c0.1,0,0.2,0,0.2,0
	c0.1,0,0.1,0.1,0.2,0.1c0.1,0.1,0.1,0.1,0.1,0.2c0,0.1,0,0.2,0,0.2c-0.4,8.2-4.4,20.4-14.1,20.1c-0.1,0-0.3-0.1-0.3-0.2
	c-0.1-0.1-0.2-0.2-0.2-0.4c0-0.1,0-0.3,0.1-0.4c0.1-0.1,0.2-0.2,0.3-0.2c2.6-2,6-4.3,6.3-8.7C40.7,86.1,37.1,81.9,38.5,77.7z"/>
<linearGradient id="SVGID_3_" gradientUnits="userSpaceOnUse" x1="30.5417" y1="60.9328" x2="30.5417" y2="93.59" gradientTransform="matrix(1 0 0 -1 0 136)">
	<stop  offset="0" style="stop-color:#BBEFE6"/>
	<stop  offset="1" style="stop-color:#D6CEB4"/>
</linearGradient>
<path class="st2" d="M32.5,50.5c3.8,2,7.4,4.5,10.7,7.3c1.7,1.5,3.1,3.3,4.3,5.2c0.5,1.1,0.9,2.3,1,3.5c0.1,1.2,0,2.4-0.2,3.6
	c-0.3,1.2-0.9,2.4-1.8,3.2c-0.7,0.6-1.5,1.1-2.3,1.3c-0.8,0.3-1.7,0.4-2.6,0.3c-0.9-0.1-1.7-0.4-2.5-0.9c-0.8-0.5-1.4-1.1-2-1.8
	c-0.7-1-1.1-2.2-1.1-3.4c0-1.2,0.5-2.3,1.2-3.2c0.4-0.5,0.8-0.8,1.3-1.1c0.5-0.3,1.1-0.4,1.6-0.4c0.5,0,1.1,0.2,1.5,0.5
	c0.5,0.3,0.8,0.7,1.1,1.3c-0.3-0.5-0.7-0.8-1.1-1.1c-0.5-0.2-1-0.4-1.5-0.3c-0.5,0.1-1,0.2-1.4,0.5c-0.4,0.3-0.8,0.6-1.1,1
	c-0.6,0.8-0.9,1.8-0.8,2.8c0.1,1,0.5,1.9,1.1,2.7c0.6,0.8,1.4,1.3,2.3,1.7c0.9,0.3,1.8,0.4,2.8,0.2c0.9-0.2,1.7-0.6,2.4-1.3
	c0.6-0.7,1.1-1.5,1.2-2.4c0.2-1,0.2-2,0.1-3c-0.1-1-0.4-1.9-0.8-2.7c-1.1-1.7-2.5-3.3-4.1-4.6c-3.2-2.7-6.7-5.1-10.4-7
	C25.2,49,18.7,46,12.5,42.4h4.1C21.9,45.2,27.2,47.7,32.5,50.5z"/>
<linearGradient id="SVGID_4_" gradientUnits="userSpaceOnUse" x1="34.305" y1="40.1361" x2="34.305" y2="42.5376" gradientTransform="matrix(1 0 0 -1 0 136)">
	<stop  offset="0" style="stop-color:#BBEFE6"/>
	<stop  offset="1" style="stop-color:#D6CEB4"/>
</linearGradient>
<path class="st3" d="M33.5,95.5c-0.2-0.2-0.3-0.5-0.3-0.8c0-0.2,0-0.3,0.1-0.5c0-0.2,0.1-0.3,0.2-0.4c0.1-0.1,0.2-0.2,0.4-0.3
	c0.1-0.1,0.3-0.1,0.4-0.1c0.2,0,0.3,0,0.4,0.1c0.1,0.1,0.3,0.2,0.4,0.3c0.1,0.1,0.2,0.3,0.2,0.4c0,0.2,0.1,0.3,0.1,0.5
	c0,0.2,0,0.3-0.1,0.4c-0.1,0.1-0.1,0.3-0.2,0.4c-0.2,0.2-0.5,0.3-0.8,0.3C34,95.9,33.7,95.7,33.5,95.5z"/>
<linearGradient id="SVGID_5_" gradientUnits="userSpaceOnUse" x1="24.5856" y1="40.5045" x2="24.5856" y2="42.8806" gradientTransform="matrix(1 0 0 -1 0 136)">
	<stop  offset="0" style="stop-color:#BBEFE6"/>
	<stop  offset="1" style="stop-color:#D6CEB4"/>
</linearGradient>
<path class="st4" d="M24,95.3c-0.3-0.1-0.5-0.4-0.5-0.7c-0.1-0.3-0.1-0.6,0.1-0.9c0.1-0.2,0.2-0.3,0.4-0.4c0.2-0.1,0.4-0.2,0.6-0.2
	c0.2,0,0.4,0,0.5,0.1c0.2,0.1,0.3,0.1,0.4,0.3c0.1,0.1,0.2,0.3,0.3,0.4c0.1,0.2,0.1,0.3,0.1,0.5c0,0.2-0.1,0.3-0.1,0.5
	c-0.1,0.1-0.2,0.3-0.3,0.4c-0.1,0.1-0.3,0.2-0.4,0.2c-0.2,0-0.3,0-0.5,0C24.3,95.4,24.1,95.4,24,95.3L24,95.3z"/>
<linearGradient id="SVGID_6_" gradientUnits="userSpaceOnUse" x1="31.0432" y1="39.11" x2="31.0432" y2="41.437" gradientTransform="matrix(1 0 0 -1 0 136)">
	<stop  offset="0" style="stop-color:#BBEFE6"/>
	<stop  offset="1" style="stop-color:#D6CEB4"/>
</linearGradient>
<path class="st5" d="M30,95.8c0-0.3,0.1-0.6,0.2-0.8c0.2-0.2,0.4-0.4,0.7-0.4c0,0,0.1,0,0.1,0c0.2,0,0.4,0.1,0.6,0.2
	c0.2,0.1,0.3,0.3,0.4,0.5c0.1,0.2,0.1,0.4,0.1,0.7c0,0.2-0.1,0.4-0.3,0.6c-0.1,0.2-0.3,0.3-0.5,0.3c-0.2,0.1-0.4,0.1-0.6,0
	c-0.2-0.1-0.4-0.2-0.5-0.4C30,96.3,30,96.1,30,95.8L30,95.8z"/>
<linearGradient id="SVGID_7_" gradientUnits="userSpaceOnUse" x1="18.979" y1="70.2783" x2="18.979" y2="93.47" gradientTransform="matrix(1 0 0 -1 0 136)">
	<stop  offset="0" style="stop-color:#BBEFE6"/>
	<stop  offset="1" style="stop-color:#D6CEB4"/>
</linearGradient>
<path class="st6" d="M27.6,55c-2.4-1.9-5-3.5-7.7-4.7c-4.8-2.2-9.5-4.8-13.9-7.8h3.6c3.6,2.1,7.4,3.9,11.3,5.7
	c2.9,1.3,5.7,3,8.2,5.1c1.3,1.2,2.3,2.8,2.8,4.5c0.3,0.9,0.4,1.9,0.2,2.8c-0.1,0.9-0.4,1.8-0.9,2.7c-0.5,0.8-1.2,1.4-2,1.8
	c-0.8,0.4-1.7,0.6-2.6,0.6c-0.9,0-1.8-0.2-2.6-0.7c-0.8-0.4-1.5-1.1-2-1.8c-0.4-0.8-0.7-1.7-0.7-2.6c-0.1-0.9,0.2-1.8,0.8-2.5
	c0.3-0.3,0.6-0.6,1-0.8c0.4-0.2,0.8-0.2,1.2-0.1c0.4,0.1,0.8,0.3,1.1,0.5c0.3,0.3,0.6,0.6,0.7,1.1c-0.2-0.3-0.4-0.6-0.8-0.9
	c-0.3-0.2-0.7-0.4-1-0.4c-0.4,0-0.7,0.1-1,0.2c-0.3,0.2-0.6,0.4-0.8,0.7c-0.4,0.6-0.5,1.3-0.4,2c0.1,0.7,0.3,1.4,0.7,2
	c0.4,0.6,1,1,1.6,1.3c0.6,0.3,1.3,0.4,2,0.3c0.6,0,1.3-0.2,1.8-0.5c0.6-0.3,1-0.8,1.4-1.3c0.3-0.6,0.4-1.3,0.5-1.9
	c0-0.7-0.1-1.3-0.3-2C29.4,57,28.6,55.9,27.6,55z"/>
<linearGradient id="SVGID_8_" gradientUnits="userSpaceOnUse" x1="18.5562" y1="52.0533" x2="18.5562" y2="54.45" gradientTransform="matrix(1 0 0 -1 0 136)">
	<stop  offset="0" style="stop-color:#BBEFE6"/>
	<stop  offset="1" style="stop-color:#D6CEB4"/>
</linearGradient>
<path class="st7" d="M18.5,81.6h0.2c0.3,0,0.6,0.2,0.8,0.4c0.2,0.2,0.3,0.5,0.3,0.8c0,0.3-0.1,0.6-0.4,0.8c-0.2,0.2-0.5,0.3-0.8,0.3
	c-0.3,0-0.6-0.1-0.8-0.3c-0.2-0.2-0.3-0.5-0.4-0.8c0-0.3,0.1-0.6,0.3-0.8C17.9,81.7,18.2,81.6,18.5,81.6z"/>
<linearGradient id="SVGID_9_" gradientUnits="userSpaceOnUse" x1="27.7094" y1="39.3649" x2="27.7094" y2="41.68" gradientTransform="matrix(1 0 0 -1 0 136)">
	<stop  offset="0" style="stop-color:#BBEFE6"/>
	<stop  offset="1" style="stop-color:#D6CEB4"/>
</linearGradient>
<path class="st8" d="M27.5,96.6c-0.3-0.1-0.5-0.2-0.7-0.5c-0.2-0.2-0.2-0.5-0.2-0.8c0-0.3,0.2-0.5,0.4-0.7c0.2-0.2,0.5-0.3,0.7-0.3
	h0.2c0.1,0,0.3,0.1,0.4,0.2c0.1,0.1,0.2,0.2,0.3,0.3c0.1,0.1,0.1,0.3,0.2,0.4c0,0.1,0,0.3,0,0.4c0,0.2-0.1,0.3-0.2,0.4
	c-0.1,0.1-0.2,0.2-0.3,0.3c-0.1,0.1-0.3,0.1-0.4,0.2C27.8,96.6,27.6,96.6,27.5,96.6z"/>
<linearGradient id="SVGID_10_" gradientUnits="userSpaceOnUse" x1="68.7155" y1="10.53" x2="68.7155" y2="36.73" gradientTransform="matrix(1 0 0 -1 0 136)">
	<stop  offset="0" style="stop-color:#BBEFE6"/>
	<stop  offset="1" style="stop-color:#D6CEB4"/>
</linearGradient>
<path class="st9" d="M71,113.8c1.9,3.6,3,7.6,3.3,11.7c-3.2-2.4-5.8-5.5-7.8-9.1c-3.1-5.7-3.3-17.1-3.3-17.1S67.9,108,71,113.8z"/>
<linearGradient id="SVGID_11_" gradientUnits="userSpaceOnUse" x1="53.1056" y1="34" x2="53.1056" y2="66.33" gradientTransform="matrix(1 0 0 -1 0 136)">
	<stop  offset="0" style="stop-color:#BBEFE6"/>
	<stop  offset="1" style="stop-color:#D6CEB4"/>
</linearGradient>
<path class="st10" d="M59.8,79c-0.2,3.1-0.8,6.2-1.9,9.2c-1.1,2.9-2.7,5.6-4.7,8c-1,1.2-2.1,2.3-3.2,3.3c-1.2,1-2.4,1.8-3.7,2.6
	c2.4-1.8,4.5-4,6.3-6.4c1.8-2.4,3.2-5.1,4.3-7.9c1.1-2.8,1.8-5.8,2.1-8.8c0.2-1.5,0.3-3,0.3-4.6c0-1.5,0-3.1-0.1-4.6
	C59.9,72.7,60.1,75.9,59.8,79z"/>
<linearGradient id="SVGID_12_" gradientUnits="userSpaceOnUse" x1="7.6584" y1="57.7983" x2="7.6584" y2="83.0817" gradientTransform="matrix(1 0 0 -1 0 136)">
	<stop  offset="0" style="stop-color:#BBEFE6"/>
	<stop  offset="1" style="stop-color:#D6CEB4"/>
</linearGradient>
<path class="st11" d="M6,70c-0.2-2.7-1.9-4.5-3.6-6.4c-2.2-2.3-1.6-7.3,0.5-9.1c3.2-2.7,6.8-1.9,10.1,2c3.8,4.5,2.4,11.6-1,15.8
	c-1.5,1.9-3.3,3.4-5.4,4.4c-2.1,1-4.4,1.5-6.7,1.5v-4.4C3.9,73.8,6.1,71.6,6,70z"/>
<linearGradient id="SVGID_13_" gradientUnits="userSpaceOnUse" x1="69.3881" y1="33.96" x2="69.3881" y2="66.25" gradientTransform="matrix(1 0 0 -1 0 136)">
	<stop  offset="0" style="stop-color:#BBEFE6"/>
	<stop  offset="1" style="stop-color:#D6CEB4"/>
</linearGradient>
<path class="st12" d="M65.6,87.7c1.1,2.8,2.5,5.5,4.3,7.9c1.8,2.4,4,4.6,6.3,6.4c-1.3-0.8-2.5-1.6-3.7-2.6c-1.2-1-2.2-2.1-3.2-3.3
	c-2-2.4-3.6-5.1-4.7-8c-1.1-2.9-1.7-6-1.9-9.2c-0.2-3.1,0-6.2,0.7-9.3c-0.1,1.5-0.2,3.1-0.1,4.6C63.2,79,64.1,83.5,65.6,87.7
	L65.6,87.7z"/>
<linearGradient id="SVGID_14_" gradientUnits="userSpaceOnUse" x1="79.9994" y1="15.4314" x2="79.9994" y2="38.48" gradientTransform="matrix(1 0 0 -1 0 136)">
	<stop  offset="0" style="stop-color:#BBEFE6"/>
	<stop  offset="1" style="stop-color:#D6CEB4"/>
</linearGradient>
<path class="st13" d="M85.8,109.3c2.5,2.8-3.2,6.2-5.9,4.2c2.2,3.8,10,4.6,10.6-0.1c0,0,0.5-0.8,1.2,0.1c1.6,1.9,0,4.3-1.7,5.8
	c-3.9,3.7-19.3,0.3-22.5-21.8C70.5,105,77.7,114.6,85.8,109.3z"/>
<linearGradient id="SVGID_15_" gradientUnits="userSpaceOnUse" x1="42.2719" y1="15.4314" x2="42.2719" y2="38.48" gradientTransform="matrix(1 0 0 -1 0 136)">
	<stop  offset="0" style="stop-color:#BBEFE6"/>
	<stop  offset="1" style="stop-color:#D6CEB4"/>
</linearGradient>
<path class="st14" d="M31.7,113.4c0.7,4.8,8.4,3.9,10.6,0.1c-2.7,1.9-8.4-1.4-5.9-4.2c8.2,5.2,15.3-4.3,18.2-11.8
	c-3.1,22.1-18.5,25.5-22.4,21.8c-1.7-1.5-3.3-3.9-1.7-5.8C31.2,112.6,31.7,113.4,31.7,113.4z"/>
<linearGradient id="SVGID_16_" gradientUnits="userSpaceOnUse" x1="18.3407" y1="48.715" x2="18.3407" y2="50.9301" gradientTransform="matrix(1 0 0 -1 0 136)">
	<stop  offset="0" style="stop-color:#BBEFE6"/>
	<stop  offset="1" style="stop-color:#D6CEB4"/>
</linearGradient>
<path class="st15" d="M18.2,85.1h0.2c0.3,0,0.5,0.2,0.7,0.4c0.2,0.2,0.3,0.5,0.3,0.8c0,0.3-0.1,0.6-0.3,0.8
	c-0.2,0.2-0.5,0.3-0.7,0.3c-0.3,0-0.5-0.1-0.7-0.3c-0.2-0.2-0.3-0.5-0.3-0.8c0-0.3,0.1-0.6,0.3-0.8C17.7,85.2,18,85.1,18.2,85.1z"/>
<linearGradient id="SVGID_17_" gradientUnits="userSpaceOnUse" x1="54.0854" y1="10.53" x2="54.0854" y2="36.73" gradientTransform="matrix(1 0 0 -1 0 136)">
	<stop  offset="0" style="stop-color:#BBEFE6"/>
	<stop  offset="1" style="stop-color:#D6CEB4"/>
</linearGradient>
<path class="st16" d="M59.6,99.3c0,0-0.2,11.4-3.3,17.1c-2,3.6-4.6,6.7-7.8,9.1c0.3-4.1,1.4-8.1,3.3-11.7
	C54.9,108,59.6,99.3,59.6,99.3z"/>
<linearGradient id="SVGID_18_" gradientUnits="userSpaceOnUse" x1="61.3043" y1="2" x2="61.3043" y2="36.21" gradientTransform="matrix(1 0 0 -1 0 136)">
	<stop  offset="0" style="stop-color:#BBEFE6"/>
	<stop  offset="1" style="stop-color:#D6CEB4"/>
</linearGradient>
<path class="st17" d="M63.9,119.6c0,4.9-0.9,9.8-2.6,14.4c-1.7-4.6-2.5-9.5-2.6-14.4c0-8,2.6-19.8,2.6-19.8S63.9,111.6,63.9,119.6z"
	/>
<linearGradient id="SVGID_19_" gradientUnits="userSpaceOnUse" x1="79.2505" y1="41.7846" x2="79.2505" y2="62.4174" gradientTransform="matrix(1 0 0 -1 0 136)">
	<stop  offset="0" style="stop-color:#BBEFE6"/>
	<stop  offset="1" style="stop-color:#D6CEB4"/>
</linearGradient>
<path class="st18" d="M86.2,93.1c0.1,0,0.2,0.1,0.3,0.2c0.1,0.1,0.1,0.3,0.1,0.4c0,0.1-0.1,0.3-0.2,0.4c-0.1,0.1-0.2,0.2-0.3,0.2
	c-9.8,0.3-13.7-11.9-14.1-20.1c0-0.1,0-0.2,0-0.2c0-0.1,0.1-0.1,0.1-0.2c0.1-0.1,0.1-0.1,0.2-0.1c0.1,0,0.2,0,0.2,0
	c0.1,0,0.3,0,0.4,0.1s0.2,0.2,0.2,0.3c1.1,3.7,7.2,5.7,10.2,3.2c0.1-0.1,0.2-0.1,0.3-0.1c0.1,0,0.2,0,0.3,0c0.1,0,0.2,0.1,0.2,0.2
	c0.1,0.1,0.1,0.2,0.1,0.3c0,0,0.1,0.1,0.1,0.2c1.4,4.2-2.2,8.4-4.5,6.7C80.2,88.7,83.5,91,86.2,93.1z"/>
<linearGradient id="SVGID_20_" gradientUnits="userSpaceOnUse" x1="103.2783" y1="45.3364" x2="103.2783" y2="47.65" gradientTransform="matrix(1 0 0 -1 0 136)">
	<stop  offset="0" style="stop-color:#BBEFE6"/>
	<stop  offset="1" style="stop-color:#D6CEB4"/>
</linearGradient>
<path class="st19" d="M102.7,90.5c-0.1-0.1-0.2-0.2-0.3-0.3c-0.1-0.1-0.2-0.3-0.2-0.4c0-0.1,0-0.3,0-0.4c0-0.2,0.1-0.3,0.1-0.4
	c0.1-0.2,0.2-0.3,0.4-0.4s0.4-0.2,0.6-0.2c0.2,0,0.4,0.1,0.5,0.2c0.1,0.1,0.2,0.2,0.3,0.3c0.1,0.1,0.2,0.3,0.2,0.4
	c0,0.1,0,0.3,0,0.4c0,0.2-0.1,0.3-0.1,0.4c-0.1,0.1-0.2,0.2-0.3,0.3c-0.1,0.1-0.2,0.2-0.4,0.2c-0.1,0-0.3,0-0.4,0
	C103,90.6,102.9,90.6,102.7,90.5L102.7,90.5z"/>
<linearGradient id="SVGID_21_" gradientUnits="userSpaceOnUse" x1="104.4662" y1="52.1564" x2="104.4662" y2="54.4414" gradientTransform="matrix(1 0 0 -1 0 136)">
	<stop  offset="0" style="stop-color:#BBEFE6"/>
	<stop  offset="1" style="stop-color:#D6CEB4"/>
</linearGradient>
<path class="st20" d="M105.5,82.5c0,0.2,0,0.3,0,0.5c0,0.2-0.1,0.3-0.2,0.4c-0.1,0.1-0.2,0.2-0.3,0.3c-0.1,0.1-0.3,0.1-0.4,0.1
	c-0.3,0-0.6-0.1-0.8-0.2c-0.2-0.2-0.4-0.4-0.4-0.7c0-0.3,0-0.6,0.2-0.8c0.2-0.2,0.4-0.4,0.7-0.5h0.2c0.3,0,0.5,0.1,0.7,0.2
	C105.3,82,105.5,82.2,105.5,82.5z"/>
<linearGradient id="SVGID_22_" gradientUnits="userSpaceOnUse" x1="104.4071" y1="48.6328" x2="104.4071" y2="50.9416" gradientTransform="matrix(1 0 0 -1 0 136)">
	<stop  offset="0" style="stop-color:#BBEFE6"/>
	<stop  offset="1" style="stop-color:#D6CEB4"/>
</linearGradient>
<path class="st21" d="M104.2,87.3c-0.3,0-0.5-0.2-0.7-0.4c-0.2-0.2-0.3-0.5-0.2-0.8s0.2-0.6,0.4-0.8c0.2-0.2,0.5-0.3,0.8-0.3h0.2
	c0.1,0,0.3,0.1,0.4,0.2c0.1,0.1,0.2,0.2,0.3,0.3c0.1,0.1,0.1,0.3,0.2,0.4c0,0.1,0,0.3,0,0.5c-0.1,0.3-0.2,0.6-0.5,0.7
	S104.5,87.4,104.2,87.3z"/>
<linearGradient id="SVGID_23_" gradientUnits="userSpaceOnUse" x1="103.3755" y1="55.5261" x2="103.3755" y2="57.8199" gradientTransform="matrix(1 0 0 -1 0 136)">
	<stop  offset="0" style="stop-color:#BBEFE6"/>
	<stop  offset="1" style="stop-color:#D6CEB4"/>
</linearGradient>
<path class="st22" d="M102.6,80.2c-0.2-0.2-0.3-0.5-0.3-0.8c0-0.3,0.1-0.6,0.3-0.8c0.2-0.2,0.5-0.3,0.8-0.3c0.3,0,0.6,0.1,0.8,0.3
	c0.2,0.2,0.3,0.5,0.3,0.8c0,0.3-0.1,0.6-0.3,0.8c-0.2,0.2-0.5,0.3-0.8,0.3C103.1,80.5,102.8,80.4,102.6,80.2z"/>
<linearGradient id="SVGID_24_" gradientUnits="userSpaceOnUse" x1="101.1549" y1="42.6028" x2="101.1549" y2="44.94" gradientTransform="matrix(1 0 0 -1 0 136)">
	<stop  offset="0" style="stop-color:#BBEFE6"/>
	<stop  offset="1" style="stop-color:#D6CEB4"/>
</linearGradient>
<path class="st23" d="M100.3,93c-0.1-0.1-0.2-0.2-0.2-0.4c0-0.1-0.1-0.3-0.1-0.4c0-0.2,0-0.3,0.1-0.4c0.1-0.1,0.1-0.3,0.3-0.4
	c0.2-0.2,0.5-0.3,0.7-0.3c0.2,0,0.3,0,0.4,0.1s0.3,0.2,0.4,0.3c0.1,0.1,0.2,0.2,0.2,0.4c0.1,0.1,0.1,0.3,0.1,0.4
	c0,0.2,0,0.3-0.1,0.4c-0.1,0.1-0.1,0.3-0.2,0.4c-0.1,0.1-0.2,0.2-0.4,0.3c-0.1,0.1-0.3,0.1-0.4,0.1c-0.2,0-0.3,0-0.4-0.1
	C100.6,93.2,100.4,93.1,100.3,93z"/>
<linearGradient id="SVGID_25_" gradientUnits="userSpaceOnUse" x1="103.9269" y1="70.2583" x2="103.9269" y2="93.5" gradientTransform="matrix(1 0 0 -1 0 136)">
	<stop  offset="0" style="stop-color:#BBEFE6"/>
	<stop  offset="1" style="stop-color:#D6CEB4"/>
</linearGradient>
<path class="st24" d="M117,42.5c-4.4,3-9.1,5.6-13.9,7.8c-2.8,1.2-5.4,2.8-7.7,4.7c-1.1,0.9-1.9,2.1-2.3,3.4c-0.2,0.6-0.3,1.3-0.3,2
	c0,0.7,0.2,1.3,0.5,1.9c0.4,0.6,0.8,1,1.4,1.3c0.6,0.3,1.2,0.5,1.8,0.5c0.7,0.1,1.3-0.1,2-0.3c0.6-0.3,1.2-0.7,1.6-1.3
	c0.4-0.6,0.7-1.3,0.7-2c0.1-0.7,0-1.4-0.4-2c-0.2-0.3-0.5-0.5-0.8-0.7c-0.3-0.2-0.7-0.2-1-0.2c-0.4,0-0.7,0.2-1,0.4
	c-0.3,0.2-0.6,0.5-0.8,0.9c0.1-0.4,0.4-0.8,0.7-1.1c0.3-0.3,0.7-0.5,1.1-0.5c0.4-0.1,0.8,0,1.2,0.1c0.4,0.2,0.7,0.4,1,0.8
	c0.6,0.7,0.9,1.6,0.8,2.5c0,0.9-0.2,1.8-0.7,2.6c-0.5,0.8-1.2,1.4-2,1.8c-0.8,0.4-1.7,0.7-2.6,0.7c-0.9,0-1.8-0.2-2.6-0.6
	c-0.8-0.4-1.5-1-2-1.8c-0.5-0.8-0.8-1.7-0.9-2.7c-0.1-0.9,0-1.9,0.2-2.8c0.5-1.8,1.4-3.3,2.8-4.5c2.5-2.1,5.3-3.8,8.2-5.1
	c3.8-1.8,7.7-3.6,11.3-5.7L117,42.5z"/>
<linearGradient id="SVGID_26_" gradientUnits="userSpaceOnUse" x1="92.3601" y1="60.8229" x2="92.3601" y2="93.48" gradientTransform="matrix(1 0 0 -1 0 136)">
	<stop  offset="0" style="stop-color:#BBEFE6"/>
	<stop  offset="1" style="stop-color:#D6CEB4"/>
</linearGradient>
<path class="st25" d="M75.4,63.1c1.2-1.9,2.7-3.7,4.3-5.2c3.3-2.9,6.9-5.3,10.8-7.3c5.2-2.9,10.6-5.4,15.8-8h4.2
	c-6.2,3.6-12.7,6.6-18.9,10.1c-3.7,1.9-7.2,4.3-10.4,7c-1.6,1.3-2.9,2.9-4.1,4.6c-0.4,0.9-0.7,1.8-0.8,2.7c-0.2,1-0.1,2,0.1,3
	c0.2,0.9,0.6,1.8,1.2,2.4c0.7,0.7,1.5,1.1,2.4,1.3c0.9,0.2,1.9,0.1,2.8-0.2s1.7-0.9,2.3-1.7c0.6-0.7,1-1.7,1.1-2.7
	c0.1-1-0.2-2-0.8-2.8c-0.3-0.4-0.7-0.8-1.1-1s-0.9-0.4-1.4-0.5c-0.5,0-1,0.1-1.5,0.3c-0.5,0.2-0.8,0.6-1.1,1.1
	c0.2-0.5,0.6-0.9,1.1-1.3c0.5-0.3,1-0.5,1.5-0.5c0.6,0,1.1,0.2,1.6,0.4s0.9,0.6,1.3,1.1c0.8,0.9,1.2,2,1.2,3.2
	c0,1.2-0.4,2.4-1.1,3.4c-0.5,0.7-1.2,1.4-2,1.8s-1.6,0.8-2.5,0.9c-0.9,0.1-1.8,0-2.6-0.3c-0.8-0.3-1.6-0.7-2.3-1.3
	c-0.9-0.9-1.5-2-1.8-3.2c-0.3-1.2-0.4-2.4-0.2-3.6C74.5,65.4,74.8,64.2,75.4,63.1z"/>
<linearGradient id="SVGID_27_" gradientUnits="userSpaceOnUse" x1="73.2564" y1="69.6613" x2="73.2564" y2="93.5" gradientTransform="matrix(1 0 0 -1 0 136)">
	<stop  offset="0" style="stop-color:#BBEFE6"/>
	<stop  offset="1" style="stop-color:#D6CEB4"/>
</linearGradient>
<path class="st26" d="M62.3,65.6c-0.8-5.7,0.9-15.3,6.1-23.1h16c-9.9,5.6-18.5,12.3-21,23.4C63.2,66.7,62.4,66.3,62.3,65.6z"/>
<linearGradient id="SVGID_28_" gradientUnits="userSpaceOnUse" x1="19.5309" y1="55.5271" x2="19.5309" y2="57.8199" gradientTransform="matrix(1 0 0 -1 0 136)">
	<stop  offset="0" style="stop-color:#BBEFE6"/>
	<stop  offset="1" style="stop-color:#D6CEB4"/>
</linearGradient>
<path class="st27" d="M19.5,78.2c0.3,0,0.6,0.1,0.8,0.3c0.2,0.2,0.3,0.5,0.3,0.8c0,0.3-0.1,0.6-0.3,0.8c-0.2,0.2-0.5,0.3-0.8,0.3
	c-0.3,0-0.6-0.1-0.8-0.3c-0.2-0.2-0.3-0.5-0.3-0.8c0-0.3,0.1-0.6,0.3-0.8C19,78.3,19.2,78.2,19.5,78.2z"/>
<linearGradient id="SVGID_29_" gradientUnits="userSpaceOnUse" x1="21.765" y1="42.598" x2="21.765" y2="44.9101" gradientTransform="matrix(1 0 0 -1 0 136)">
	<stop  offset="0" style="stop-color:#BBEFE6"/>
	<stop  offset="1" style="stop-color:#D6CEB4"/>
</linearGradient>
<path class="st28" d="M21.8,91.1c0.3,0,0.6,0.1,0.8,0.3c0.1,0.1,0.2,0.2,0.3,0.4c0.1,0.1,0.1,0.3,0.1,0.4c0,0.2,0,0.3-0.1,0.4
	c-0.1,0.1-0.1,0.3-0.2,0.4c-0.2,0.2-0.5,0.4-0.8,0.4c-0.3,0-0.6-0.1-0.8-0.3c-0.2-0.2-0.3-0.4-0.3-0.6c0-0.2,0-0.5,0-0.7
	c0.1-0.2,0.2-0.4,0.4-0.5S21.5,91.1,21.8,91.1L21.8,91.1z"/>
<linearGradient id="SVGID_30_" gradientUnits="userSpaceOnUse" x1="49.6498" y1="69.6786" x2="49.6498" y2="93.5" gradientTransform="matrix(1 0 0 -1 0 136)">
	<stop  offset="0" style="stop-color:#BBEFE6"/>
	<stop  offset="1" style="stop-color:#D6CEB4"/>
</linearGradient>
<path class="st29" d="M38.5,42.5h16c5.2,7.8,6.9,17.4,6.1,23.1c-0.1,0.7-0.9,1-1.1,0.3C57,54.8,48.4,48.1,38.5,42.5z"/>
<linearGradient id="SVGID_31_" gradientUnits="userSpaceOnUse" x1="98.3568" y1="40.575" x2="98.3568" y2="42.881" gradientTransform="matrix(1 0 0 -1 0 136)">
	<stop  offset="0" style="stop-color:#BBEFE6"/>
	<stop  offset="1" style="stop-color:#D6CEB4"/>
</linearGradient>
<path class="st30" d="M98.4,93.1c0.2,0,0.4,0.1,0.6,0.2c0.2,0.1,0.3,0.3,0.4,0.4c0.1,0.3,0.2,0.6,0.1,0.9c-0.1,0.3-0.3,0.5-0.5,0.7
	c-0.1,0.1-0.3,0.1-0.4,0.1c-0.1,0-0.3,0-0.4,0c-0.1,0-0.3-0.1-0.4-0.2s-0.2-0.2-0.3-0.3c-0.1-0.1-0.1-0.3-0.1-0.4c0-0.2,0-0.3,0-0.4
	c0-0.1,0.1-0.3,0.2-0.4c0.1-0.1,0.2-0.2,0.3-0.3C98,93.2,98.2,93.1,98.4,93.1z"/>
<linearGradient id="SVGID_32_" gradientUnits="userSpaceOnUse" x1="19.6075" y1="45.3364" x2="19.6075" y2="47.65" gradientTransform="matrix(1 0 0 -1 0 136)">
	<stop  offset="0" style="stop-color:#BBEFE6"/>
	<stop  offset="1" style="stop-color:#D6CEB4"/>
</linearGradient>
<path class="st31" d="M20.2,90.5c-0.1,0.1-0.3,0.1-0.4,0.1s-0.3,0-0.4,0c-0.1,0-0.3-0.1-0.4-0.2c-0.1-0.1-0.2-0.2-0.3-0.3
	s-0.1-0.3-0.1-0.4c0-0.2,0-0.3,0-0.4c0-0.1,0.1-0.3,0.2-0.4c0.1-0.1,0.2-0.2,0.3-0.3c0.2-0.1,0.4-0.2,0.5-0.2c0.2,0,0.4,0.1,0.6,0.2
	c0.2,0.1,0.3,0.2,0.4,0.4c0.1,0.1,0.1,0.3,0.1,0.4c0,0.2,0,0.3,0,0.5c0,0.1-0.1,0.3-0.2,0.4C20.4,90.3,20.3,90.4,20.2,90.5z"/>
<linearGradient id="SVGID_33_" gradientUnits="userSpaceOnUse" x1="89.8645" y1="30.03" x2="89.8645" y2="93.51" gradientTransform="matrix(1 0 0 -1 0 136)">
	<stop  offset="0" style="stop-color:#BBEFE6"/>
	<stop  offset="1" style="stop-color:#D6CEB4"/>
</linearGradient>
<path class="st32" d="M65.2,74.9c0.2-4.7,1.3-9.3,3.3-13.5c2-4.2,4.8-7.9,8.2-10.9c3.6-3.1,7.5-5.8,11.6-8h11.9
	c-8.6,4.4-17.1,8.6-23.3,16.3C65.6,73,71.9,96.8,90.6,99.3c8.3,1.1,14.9-4.4,17.4-12.8c2.4-8.1-8.1-13.6-8.9-6.4
	c-0.3,1.4-1,2.7-2.1,3.6s-2.4,1.4-3.8,1.3c-3-0.3-6.2-4-4-10c3.5-9.7,16.6-9.2,22.4-0.9c5.9,8.5,2.5,20.5-4.6,26.8
	c-8,7.1-19.9,6.1-28.4,0.6c-4.3-2.8-7.8-6.8-10.1-11.4C66.1,85.4,65,80.1,65.2,74.9z"/>
<linearGradient id="SVGID_34_" gradientUnits="userSpaceOnUse" x1="91.7992" y1="39.15" x2="91.7992" y2="41.4552" gradientTransform="matrix(1 0 0 -1 0 136)">
	<stop  offset="0" style="stop-color:#BBEFE6"/>
	<stop  offset="1" style="stop-color:#D6CEB4"/>
</linearGradient>
<path class="st33" d="M91.9,94.6c0.3,0,0.5,0.2,0.7,0.4c0.2,0.2,0.3,0.5,0.2,0.8c0,0.2-0.1,0.4-0.2,0.6c-0.1,0.2-0.3,0.3-0.5,0.4
	s-0.4,0.1-0.6,0c-0.2-0.1-0.4-0.2-0.5-0.3c-0.1-0.2-0.2-0.4-0.3-0.6c0-0.2,0-0.4,0.1-0.6c0.1-0.2,0.2-0.4,0.4-0.5
	c0.2-0.1,0.4-0.2,0.6-0.2C91.8,94.5,91.9,94.5,91.9,94.6z"/>
<linearGradient id="SVGID_35_" gradientUnits="userSpaceOnUse" x1="95.0768" y1="39.3462" x2="95.0768" y2="41.6801" gradientTransform="matrix(1 0 0 -1 0 136)">
	<stop  offset="0" style="stop-color:#BBEFE6"/>
	<stop  offset="1" style="stop-color:#D6CEB4"/>
</linearGradient>
<path class="st34" d="M95.2,94.3c0.3,0,0.6,0.2,0.7,0.4c0.2,0.2,0.3,0.5,0.3,0.8c0,0.3-0.1,0.6-0.3,0.8c-0.2,0.2-0.5,0.3-0.8,0.3
	c-0.3,0-0.6-0.1-0.8-0.3c-0.2-0.2-0.3-0.5-0.3-0.8c0-0.3,0.1-0.6,0.3-0.8c0.2-0.2,0.5-0.4,0.7-0.4H95.2z"/>
<linearGradient id="SVGID_36_" gradientUnits="userSpaceOnUse" x1="88.6011" y1="40.1361" x2="88.6011" y2="42.4301" gradientTransform="matrix(1 0 0 -1 0 136)">
	<stop  offset="0" style="stop-color:#BBEFE6"/>
	<stop  offset="1" style="stop-color:#D6CEB4"/>
</linearGradient>
<path class="st35" d="M89.4,93.9c0.2,0.2,0.3,0.5,0.3,0.8c0,0.3-0.1,0.6-0.3,0.8c-0.2,0.2-0.5,0.3-0.8,0.3c-0.3,0-0.6-0.1-0.8-0.3
	c-0.1-0.1-0.2-0.2-0.2-0.4c-0.1-0.1-0.1-0.3-0.1-0.4c0-0.3,0.1-0.6,0.3-0.8c0.1-0.1,0.2-0.2,0.4-0.3c0.1-0.1,0.3-0.1,0.4-0.1
	C88.9,93.6,89.2,93.7,89.4,93.9z"/>
<linearGradient id="SVGID_37_" gradientUnits="userSpaceOnUse" x1="115.2673" y1="57.9078" x2="115.2673" y2="83.2039" gradientTransform="matrix(1 0 0 -1 0 136)">
	<stop  offset="0" style="stop-color:#BBEFE6"/>
	<stop  offset="1" style="stop-color:#D6CEB4"/>
</linearGradient>
<path class="st36" d="M110.9,72.2c-3.4-4.2-4.8-11.3-1-15.8c3.3-3.9,7-4.7,10.2-2c2.1,1.8,2.6,6.8,0.5,9.1c-1.7,1.8-3.4,3.7-3.6,6.4
	c-0.1,1.6,2.1,3.8,6,3.8v4.4c-2.3,0-4.6-0.5-6.7-1.5C114.2,75.6,112.3,74,110.9,72.2z"/>
<linearGradient id="SVGID_38_" gradientUnits="userSpaceOnUse" x1="61.4733" y1="96" x2="61.4733" y2="108.5" gradientTransform="matrix(1 0 0 -1 0 136)">
	<stop  offset="0" style="stop-color:#BBEFE6"/>
	<stop  offset="1" style="stop-color:#D6CEB4"/>
</linearGradient>
<path class="st37" d="M122.9,40H0V27.5h122.9V40z"/>
<linearGradient id="SVGID_39_" gradientUnits="userSpaceOnUse" x1="61.4733" y1="123.5" x2="61.4733" y2="136" gradientTransform="matrix(1 0 0 -1 0 136)">
	<stop  offset="0" style="stop-color:#BBEFE6"/>
	<stop  offset="1" style="stop-color:#D6CEB4"/>
</linearGradient>
<path class="st38" d="M122.9,12.5H0V0h122.9V12.5z"/>
<linearGradient id="SVGID_40_" gradientUnits="userSpaceOnUse" x1="61.4733" y1="113.5" x2="61.4733" y2="118.5" gradientTransform="matrix(1 0 0 -1 0 136)">
	<stop  offset="0" style="stop-color:#BBEFE6"/>
	<stop  offset="1" style="stop-color:#D6CEB4"/>
</linearGradient>
<path class="st39" d="M122.9,22.5H0v-5h122.9V22.5z"/>
</svg>
