<?xml version="1.0" encoding="utf-8"?>
<!-- Generator: Adobe Illustrator 24.3.0, SVG Export Plug-In . SVG Version: 6.00 Build 0)  -->
<svg version="1.1" id="Слой_1" xmlns="http://www.w3.org/2000/svg" xmlns:xlink="http://www.w3.org/1999/xlink" x="0px" y="0px"
	 viewBox="0 0 131.4 134" style="enable-background:new 0 0 131.4 134;" xml:space="preserve">
<style type="text/css">
	.st0{fill:url(#SVGID_1_);}
	.st1{fill:url(#SVGID_2_);}
	.st2{fill:url(#SVGID_3_);}
	.st3{fill:url(#SVGID_4_);}
	.st4{fill:url(#SVGID_5_);}
	.st5{fill:url(#SVGID_6_);}
	.st6{fill:url(#SVGID_7_);}
	.st7{fill:url(#SVGID_8_);}
	.st8{fill:url(#SVGID_9_);}
	.st9{fill:url(#SVGID_10_);}
	.st10{fill:url(#SVGID_11_);}
	.st11{fill:url(#SVGID_12_);}
	.st12{fill:url(#SVGID_13_);}
	.st13{fill:url(#SVGID_14_);}
	.st14{fill:url(#SVGID_15_);}
	.st15{fill:url(#SVGID_16_);}
	.st16{fill:url(#SVGID_17_);}
	.st17{fill:url(#SVGID_18_);}
	.st18{fill:url(#SVGID_19_);}
	.st19{fill:url(#SVGID_20_);}
	.st20{fill:url(#SVGID_21_);}
	.st21{fill:url(#SVGID_22_);}
	.st22{fill:url(#SVGID_23_);}
	.st23{fill:url(#SVGID_24_);}
	.st24{fill:url(#SVGID_25_);}
	.st25{fill:url(#SVGID_26_);}
	.st26{fill:url(#SVGID_27_);}
	.st27{fill:url(#SVGID_28_);}
	.st28{fill:url(#SVGID_29_);}
	.st29{fill:url(#SVGID_30_);}
	.st30{fill:url(#SVGID_31_);}
	.st31{fill:url(#SVGID_32_);}
	.st32{fill:url(#SVGID_33_);}
	.st33{fill:url(#SVGID_34_);}
	.st34{fill:url(#SVGID_35_);}
	.st35{fill:url(#SVGID_36_);}
	.st36{fill:url(#SVGID_37_);}
	.st37{fill:url(#SVGID_38_);}
	.st38{fill:url(#SVGID_39_);}
	.st39{fill:url(#SVGID_40_);}
</style>
<linearGradient id="SVGID_1_" gradientUnits="userSpaceOnUse" x1="118.9558" y1="58" x2="118.9558" y2="83.1117" gradientTransform="matrix(1 0 0 -1 0 136)">
	<stop  offset="0" style="stop-color:#C6B5B1"/>
	<stop  offset="1" style="stop-color:#D4EDF2"/>
</linearGradient>
<path class="st0" d="M109.8,72.3c-3.4-4.2-4.8-11.3-1-15.8c3.3-3.9,6.9-4.7,10.1-2c3.2-2.7,6.8-1.9,10.1,2c3.8,4.5,2.4,11.6-1,15.8
	c-2.3,3-5.6,5-9.2,5.7C115.3,77.3,112.1,75.3,109.8,72.3z M118.9,73.3c2.1-0.7,3.2-2.2,3.1-3.3c-0.2-2.4-1.6-4.2-3.1-5.8
	c-1.5,1.7-2.9,3.4-3.1,5.8C115.8,71.1,116.9,72.6,118.9,73.3L118.9,73.3z"/>
<linearGradient id="SVGID_2_" gradientUnits="userSpaceOnUse" x1="32.0101" y1="29.93" x2="32.0101" y2="93.4601" gradientTransform="matrix(1 0 0 -1 0 136)">
	<stop  offset="0" style="stop-color:#C6B5B1"/>
	<stop  offset="1" style="stop-color:#D4EDF2"/>
</linearGradient>
<path class="st1" d="M32.8,75.1c2.1,6-1,9.7-4,10c-1.4,0-2.7-0.4-3.8-1.3c-1.1-0.9-1.8-2.2-2.1-3.6c-0.8-7.2-11.4-1.7-8.9,6.4
	c2.5,8.4,9.1,13.9,17.4,12.8C50,96.9,56.2,73,44.8,58.8c-6.1-7.6-14.7-11.9-23.2-16.3h11.9c4.1,2.2,8,4.9,11.6,8
	c3.4,3,6.2,6.7,8.2,10.9c2,4.2,3.1,8.8,3.3,13.5c0.3,5.3-0.8,10.5-3.2,15.2c-2.3,4.7-5.9,8.6-10.2,11.4c-8.5,5.6-20.3,6.5-28.4-0.5
	c-7.1-6.3-10.5-18.3-4.6-26.8C16.2,65.9,29.3,65.5,32.8,75.1z"/>
<linearGradient id="SVGID_3_" gradientUnits="userSpaceOnUse" x1="42.6436" y1="41.7847" x2="42.6436" y2="62.4175" gradientTransform="matrix(1 0 0 -1 0 136)">
	<stop  offset="0" style="stop-color:#C6B5B1"/>
	<stop  offset="1" style="stop-color:#D4EDF2"/>
</linearGradient>
<path class="st2" d="M37.5,77.7c0-0.1,0.1-0.1,0.1-0.2c0-0.1,0.1-0.2,0.1-0.3c0.1-0.1,0.2-0.1,0.2-0.2c0.1,0,0.2,0,0.3,0
	c0.1,0,0.2,0.1,0.3,0.1c3,2.5,9.1,0.5,10.2-3.2c0-0.1,0.1-0.3,0.2-0.3c0.1-0.1,0.3-0.1,0.4-0.1c0.1,0,0.2,0,0.2,0
	c0.1,0,0.1,0.1,0.2,0.1c0.1,0.1,0.1,0.1,0.1,0.2c0,0.1,0,0.2,0,0.2c-0.4,8.2-4.4,20.4-14.1,20.1c-0.1,0-0.3-0.1-0.3-0.2
	c-0.1-0.1-0.2-0.2-0.2-0.4c0-0.1,0-0.3,0.1-0.4c0.1-0.1,0.2-0.2,0.3-0.2c2.6-2,5.9-4.3,6.3-8.7C39.7,86.1,36.1,81.9,37.5,77.7z"/>
<linearGradient id="SVGID_4_" gradientUnits="userSpaceOnUse" x1="29.5264" y1="60.9328" x2="29.5264" y2="93.59" gradientTransform="matrix(1 0 0 -1 0 136)">
	<stop  offset="0" style="stop-color:#C6B5B1"/>
	<stop  offset="1" style="stop-color:#D4EDF2"/>
</linearGradient>
<path class="st3" d="M31.5,50.5c3.8,2,7.4,4.5,10.7,7.3c1.7,1.5,3.1,3.3,4.3,5.2c0.5,1.1,0.9,2.3,1,3.5c0.1,1.2,0,2.4-0.2,3.6
	c-0.3,1.2-0.9,2.4-1.8,3.2c-0.7,0.6-1.5,1.1-2.3,1.3c-0.8,0.3-1.7,0.4-2.6,0.3c-0.9-0.1-1.7-0.4-2.5-0.9c-0.8-0.5-1.4-1.1-2-1.8
	c-0.7-1-1.1-2.2-1.1-3.4c0-1.2,0.5-2.3,1.2-3.2c0.4-0.5,0.8-0.8,1.3-1.1c0.5-0.3,1.1-0.4,1.6-0.4c0.5,0,1.1,0.2,1.5,0.5
	c0.5,0.3,0.8,0.7,1.1,1.3c-0.3-0.5-0.7-0.8-1.1-1.1c-0.5-0.2-1-0.4-1.5-0.3c-0.5,0.1-1,0.2-1.4,0.5s-0.8,0.6-1.1,1
	c-0.6,0.8-0.9,1.8-0.8,2.8c0.1,1,0.5,1.9,1.1,2.7c0.6,0.8,1.4,1.3,2.3,1.7c0.9,0.3,1.8,0.4,2.8,0.2c0.9-0.2,1.7-0.6,2.4-1.3
	c0.6-0.7,1.1-1.5,1.2-2.4c0.2-1,0.2-2,0.1-3c-0.1-1-0.4-1.9-0.8-2.7c-1.1-1.7-2.5-3.3-4-4.6c-3.2-2.7-6.7-5.1-10.4-7
	C24.2,49,17.7,46,11.5,42.4h4.1C20.9,45.2,26.2,47.7,31.5,50.5z"/>
<linearGradient id="SVGID_5_" gradientUnits="userSpaceOnUse" x1="33.2878" y1="40.1362" x2="33.2878" y2="42.5377" gradientTransform="matrix(1 0 0 -1 0 136)">
	<stop  offset="0" style="stop-color:#C6B5B1"/>
	<stop  offset="1" style="stop-color:#D4EDF2"/>
</linearGradient>
<path class="st4" d="M32.5,95.5c-0.2-0.2-0.3-0.5-0.3-0.8c0-0.2,0-0.3,0.1-0.5c0-0.2,0.1-0.3,0.2-0.4c0.1-0.1,0.2-0.2,0.4-0.3
	c0.1-0.1,0.3-0.1,0.4-0.1c0.2,0,0.3,0,0.4,0.1c0.1,0.1,0.3,0.2,0.4,0.3s0.2,0.3,0.2,0.4c0,0.2,0.1,0.3,0.1,0.5c0,0.2,0,0.3-0.1,0.4
	c-0.1,0.1-0.1,0.3-0.2,0.4c-0.2,0.2-0.5,0.3-0.8,0.3C33,95.9,32.7,95.7,32.5,95.5z"/>
<linearGradient id="SVGID_6_" gradientUnits="userSpaceOnUse" x1="23.5732" y1="40.5044" x2="23.5732" y2="42.8805" gradientTransform="matrix(1 0 0 -1 0 136)">
	<stop  offset="0" style="stop-color:#C6B5B1"/>
	<stop  offset="1" style="stop-color:#D4EDF2"/>
</linearGradient>
<path class="st5" d="M23,95.3c-0.3-0.1-0.5-0.4-0.5-0.7c-0.1-0.3-0.1-0.6,0.1-0.9c0.1-0.2,0.2-0.3,0.4-0.4c0.2-0.1,0.4-0.2,0.6-0.2
	c0.2,0,0.4,0,0.5,0.1c0.2,0.1,0.3,0.1,0.4,0.3c0.1,0.1,0.2,0.3,0.3,0.4c0.1,0.2,0.1,0.3,0.1,0.5c0,0.2-0.1,0.3-0.1,0.5
	c-0.1,0.1-0.2,0.3-0.3,0.4c-0.1,0.1-0.3,0.2-0.4,0.2c-0.2,0-0.3,0-0.5,0C23.2,95.4,23.1,95.4,23,95.3L23,95.3z"/>
<linearGradient id="SVGID_7_" gradientUnits="userSpaceOnUse" x1="30.0277" y1="39.1099" x2="30.0277" y2="41.4369" gradientTransform="matrix(1 0 0 -1 0 136)">
	<stop  offset="0" style="stop-color:#C6B5B1"/>
	<stop  offset="1" style="stop-color:#D4EDF2"/>
</linearGradient>
<path class="st6" d="M29,95.8c0-0.3,0.1-0.6,0.2-0.8c0.2-0.2,0.4-0.4,0.7-0.4c0,0,0.1,0,0.1,0c0.2,0,0.4,0.1,0.6,0.2
	c0.2,0.1,0.3,0.3,0.4,0.5c0.1,0.2,0.1,0.4,0.1,0.7c0,0.2-0.1,0.4-0.3,0.6c-0.1,0.2-0.3,0.3-0.5,0.3c-0.2,0.1-0.4,0-0.6,0
	c-0.2-0.1-0.4-0.2-0.5-0.4C29,96.3,28.9,96.1,29,95.8L29,95.8z"/>
<linearGradient id="SVGID_8_" gradientUnits="userSpaceOnUse" x1="17.9696" y1="70.2783" x2="17.9696" y2="93.47" gradientTransform="matrix(1 0 0 -1 0 136)">
	<stop  offset="0" style="stop-color:#C6B5B1"/>
	<stop  offset="1" style="stop-color:#D4EDF2"/>
</linearGradient>
<path class="st7" d="M26.6,55c-2.4-1.9-5-3.5-7.7-4.7c-4.8-2.2-9.5-4.8-13.9-7.8h3.6c3.6,2.1,7.4,3.9,11.3,5.7
	c2.9,1.3,5.7,3,8.2,5.1c1.3,1.2,2.3,2.8,2.8,4.5c0.3,0.9,0.4,1.9,0.2,2.8c-0.1,0.9-0.4,1.8-0.9,2.7c-0.5,0.8-1.2,1.4-2,1.8
	c-0.8,0.4-1.7,0.6-2.6,0.6c-0.9,0-1.8-0.2-2.6-0.7c-0.8-0.4-1.5-1.1-2-1.8c-0.4-0.8-0.7-1.7-0.7-2.6c-0.1-0.9,0.2-1.8,0.8-2.5
	c0.3-0.3,0.6-0.6,1-0.8c0.4-0.2,0.8-0.2,1.2-0.1c0.4,0.1,0.8,0.3,1.1,0.5c0.3,0.3,0.6,0.6,0.7,1.1c-0.2-0.3-0.4-0.6-0.8-0.9
	c-0.3-0.2-0.7-0.4-1-0.4c-0.4,0-0.7,0.1-1,0.2c-0.3,0.2-0.6,0.4-0.8,0.7c-0.4,0.6-0.5,1.3-0.4,2c0.1,0.7,0.3,1.4,0.7,2
	c0.4,0.6,1,1,1.6,1.3c0.6,0.3,1.3,0.4,2,0.3c0.6,0,1.3-0.2,1.8-0.5c0.6-0.3,1-0.8,1.4-1.3c0.3-0.6,0.4-1.3,0.5-1.9
	c0-0.7-0.1-1.3-0.3-2C28.4,57,27.6,55.9,26.6,55z"/>
<linearGradient id="SVGID_9_" gradientUnits="userSpaceOnUse" x1="17.5471" y1="52.0532" x2="17.5471" y2="54.4498" gradientTransform="matrix(1 0 0 -1 0 136)">
	<stop  offset="0" style="stop-color:#C6B5B1"/>
	<stop  offset="1" style="stop-color:#D4EDF2"/>
</linearGradient>
<path class="st8" d="M17.5,81.6h0.2c0.3,0,0.6,0.2,0.8,0.4c0.2,0.2,0.3,0.5,0.3,0.8c0,0.3-0.1,0.6-0.4,0.8c-0.2,0.2-0.5,0.3-0.8,0.3
	c-0.3,0-0.6-0.1-0.8-0.3c-0.2-0.2-0.3-0.5-0.4-0.8c0-0.3,0.1-0.6,0.3-0.8C16.9,81.7,17.2,81.6,17.5,81.6z"/>
<linearGradient id="SVGID_10_" gradientUnits="userSpaceOnUse" x1="26.6954" y1="39.3647" x2="26.6954" y2="41.6799" gradientTransform="matrix(1 0 0 -1 0 136)">
	<stop  offset="0" style="stop-color:#C6B5B1"/>
	<stop  offset="1" style="stop-color:#D4EDF2"/>
</linearGradient>
<path class="st9" d="M26.5,96.6c-0.3-0.1-0.5-0.2-0.7-0.5c-0.2-0.2-0.2-0.5-0.2-0.8c0-0.3,0.2-0.5,0.4-0.7c0.2-0.2,0.5-0.3,0.7-0.3
	h0.2c0.1,0,0.3,0.1,0.4,0.2c0.1,0.1,0.2,0.2,0.3,0.3c0.1,0.1,0.1,0.3,0.2,0.4c0,0.1,0,0.3,0,0.4c0,0.2-0.1,0.3-0.2,0.4
	c-0.1,0.1-0.2,0.2-0.3,0.3c-0.1,0.1-0.3,0.1-0.4,0.2C26.7,96.6,26.6,96.6,26.5,96.6z"/>
<linearGradient id="SVGID_11_" gradientUnits="userSpaceOnUse" x1="67.681" y1="10.53" x2="67.681" y2="36.73" gradientTransform="matrix(1 0 0 -1 0 136)">
	<stop  offset="0" style="stop-color:#C6B5B1"/>
	<stop  offset="1" style="stop-color:#D4EDF2"/>
</linearGradient>
<path class="st10" d="M69.9,113.8c1.9,3.6,3,7.6,3.3,11.7c-3.2-2.4-5.8-5.5-7.8-9.1c-3.1-5.7-3.3-17.1-3.3-17.1S66.9,108,69.9,113.8
	z"/>
<linearGradient id="SVGID_12_" gradientUnits="userSpaceOnUse" x1="52.0789" y1="34" x2="52.0789" y2="66.33" gradientTransform="matrix(1 0 0 -1 0 136)">
	<stop  offset="0" style="stop-color:#C6B5B1"/>
	<stop  offset="1" style="stop-color:#D4EDF2"/>
</linearGradient>
<path class="st11" d="M58.8,79c-0.2,3.1-0.8,6.2-1.9,9.2c-1.1,2.9-2.7,5.6-4.7,8c-1,1.2-2.1,2.3-3.2,3.3c-1.2,1-2.4,1.8-3.7,2.6
	c2.4-1.8,4.5-4,6.3-6.4c1.8-2.4,3.2-5.1,4.3-7.9c1.1-2.8,1.8-5.8,2.1-8.8c0.2-1.5,0.3-3,0.3-4.6c0-1.5,0-3.1-0.1-4.6
	C58.8,72.7,59.1,75.9,58.8,79z"/>
<linearGradient id="SVGID_13_" gradientUnits="userSpaceOnUse" x1="6.6545" y1="57.7984" x2="6.6545" y2="83.0818" gradientTransform="matrix(1 0 0 -1 0 136)">
	<stop  offset="0" style="stop-color:#C6B5B1"/>
	<stop  offset="1" style="stop-color:#D4EDF2"/>
</linearGradient>
<path class="st12" d="M5,70c-0.2-2.7-1.9-4.5-3.6-6.4c-2.2-2.3-1.6-7.3,0.5-9.1c3.2-2.7,6.8-1.9,10.1,2c3.8,4.5,2.4,11.6-1,15.8
	c-1.5,1.9-3.3,3.4-5.4,4.4c-2.1,1-4.4,1.5-6.7,1.5v-4.4C2.9,73.8,5.1,71.6,5,70z"/>
<linearGradient id="SVGID_14_" gradientUnits="userSpaceOnUse" x1="68.3534" y1="33.96" x2="68.3534" y2="66.25" gradientTransform="matrix(1 0 0 -1 0 136)">
	<stop  offset="0" style="stop-color:#C6B5B1"/>
	<stop  offset="1" style="stop-color:#D4EDF2"/>
</linearGradient>
<path class="st13" d="M64.6,87.7c1.1,2.8,2.5,5.5,4.3,7.9c1.8,2.4,4,4.6,6.3,6.4c-1.3-0.8-2.5-1.6-3.7-2.6c-1.2-1-2.2-2.1-3.2-3.3
	c-2-2.4-3.6-5.1-4.7-8c-1.1-2.9-1.7-6-1.9-9.2c-0.2-3.1,0-6.2,0.7-9.3c-0.1,1.5-0.2,3.1-0.1,4.6C62.2,79,63,83.5,64.6,87.7
	L64.6,87.7z"/>
<linearGradient id="SVGID_15_" gradientUnits="userSpaceOnUse" x1="78.9595" y1="15.4314" x2="78.9595" y2="38.48" gradientTransform="matrix(1 0 0 -1 0 136)">
	<stop  offset="0" style="stop-color:#C6B5B1"/>
	<stop  offset="1" style="stop-color:#D4EDF2"/>
</linearGradient>
<path class="st14" d="M84.8,109.3c2.5,2.8-3.2,6.2-5.9,4.2c2.2,3.8,9.9,4.6,10.6-0.1c0,0,0.5-0.8,1.2,0.1c1.6,1.9,0,4.3-1.7,5.8
	c-3.9,3.7-19.3,0.3-22.4-21.8C69.5,105,76.6,114.6,84.8,109.3z"/>
<linearGradient id="SVGID_16_" gradientUnits="userSpaceOnUse" x1="41.2506" y1="15.4314" x2="41.2506" y2="38.48" gradientTransform="matrix(1 0 0 -1 0 136)">
	<stop  offset="0" style="stop-color:#C6B5B1"/>
	<stop  offset="1" style="stop-color:#D4EDF2"/>
</linearGradient>
<path class="st15" d="M30.7,113.4c0.7,4.8,8.4,3.9,10.6,0.1c-2.7,1.9-8.4-1.4-5.9-4.2c8.2,5.2,15.3-4.3,18.2-11.8
	c-3.1,22.1-18.5,25.5-22.4,21.8c-1.7-1.5-3.3-3.9-1.7-5.8C30.2,112.6,30.7,113.4,30.7,113.4z"/>
<linearGradient id="SVGID_17_" gradientUnits="userSpaceOnUse" x1="17.3314" y1="48.7148" x2="17.3314" y2="50.9299" gradientTransform="matrix(1 0 0 -1 0 136)">
	<stop  offset="0" style="stop-color:#C6B5B1"/>
	<stop  offset="1" style="stop-color:#D4EDF2"/>
</linearGradient>
<path class="st16" d="M17.2,85.1h0.2c0.3,0,0.5,0.2,0.7,0.4c0.2,0.2,0.3,0.5,0.3,0.8c0,0.3-0.1,0.6-0.3,0.8
	c-0.2,0.2-0.5,0.3-0.7,0.3s-0.5-0.1-0.7-0.3c-0.2-0.2-0.3-0.5-0.3-0.8c0-0.3,0.1-0.6,0.3-0.8C16.7,85.2,17,85.1,17.2,85.1z"/>
<linearGradient id="SVGID_18_" gradientUnits="userSpaceOnUse" x1="53.0585" y1="10.53" x2="53.0585" y2="36.73" gradientTransform="matrix(1 0 0 -1 0 136)">
	<stop  offset="0" style="stop-color:#C6B5B1"/>
	<stop  offset="1" style="stop-color:#D4EDF2"/>
</linearGradient>
<path class="st17" d="M58.6,99.3c0,0-0.2,11.4-3.3,17.1c-2,3.6-4.6,6.7-7.8,9.1c0.3-4.1,1.4-8.1,3.3-11.7
	C53.9,108,58.6,99.3,58.6,99.3z"/>
<linearGradient id="SVGID_19_" gradientUnits="userSpaceOnUse" x1="60.2737" y1="2" x2="60.2737" y2="36.21" gradientTransform="matrix(1 0 0 -1 0 136)">
	<stop  offset="0" style="stop-color:#C6B5B1"/>
	<stop  offset="1" style="stop-color:#D4EDF2"/>
</linearGradient>
<path class="st18" d="M62.9,119.6c0,4.9-0.9,9.8-2.6,14.4c-1.7-4.6-2.5-9.5-2.6-14.4c0-8,2.6-19.8,2.6-19.8S62.9,111.6,62.9,119.6z"
	/>
<linearGradient id="SVGID_20_" gradientUnits="userSpaceOnUse" x1="78.2107" y1="41.7847" x2="78.2107" y2="62.4175" gradientTransform="matrix(1 0 0 -1 0 136)">
	<stop  offset="0" style="stop-color:#C6B5B1"/>
	<stop  offset="1" style="stop-color:#D4EDF2"/>
</linearGradient>
<path class="st19" d="M85.1,93.1c0.1,0,0.2,0.1,0.3,0.2s0.1,0.3,0.1,0.4c0,0.1-0.1,0.3-0.2,0.4c-0.1,0.1-0.2,0.2-0.3,0.2
	c-9.8,0.3-13.7-11.9-14.1-20.1c0-0.1,0-0.2,0-0.2c0-0.1,0.1-0.1,0.1-0.2c0.1-0.1,0.1-0.1,0.2-0.1c0.1,0,0.2,0,0.2,0
	c0.1,0,0.3,0,0.4,0.1c0.1,0.1,0.2,0.2,0.2,0.3c1.1,3.7,7.2,5.7,10.2,3.2c0.1-0.1,0.2-0.1,0.3-0.1s0.2,0,0.3,0c0.1,0,0.2,0.1,0.2,0.2
	c0.1,0.1,0.1,0.2,0.1,0.3c0,0,0.1,0.1,0.1,0.2c1.4,4.2-2.2,8.4-4.5,6.7C79.2,88.7,82.5,91,85.1,93.1z"/>
<linearGradient id="SVGID_21_" gradientUnits="userSpaceOnUse" x1="102.2266" y1="45.3364" x2="102.2266" y2="47.65" gradientTransform="matrix(1 0 0 -1 0 136)">
	<stop  offset="0" style="stop-color:#C6B5B1"/>
	<stop  offset="1" style="stop-color:#D4EDF2"/>
</linearGradient>
<path class="st20" d="M101.7,90.5c-0.1-0.1-0.2-0.2-0.3-0.3c-0.1-0.1-0.2-0.3-0.2-0.4c0-0.1,0-0.3,0-0.4c0-0.2,0.1-0.3,0.1-0.4
	c0.1-0.2,0.2-0.3,0.4-0.4s0.4-0.2,0.6-0.2c0.2,0,0.4,0.1,0.5,0.2c0.1,0.1,0.2,0.2,0.3,0.3c0.1,0.1,0.2,0.3,0.2,0.4
	c0,0.1,0,0.3,0,0.4c0,0.2-0.1,0.3-0.1,0.4c-0.1,0.1-0.2,0.2-0.3,0.3c-0.1,0.1-0.2,0.2-0.4,0.2c-0.1,0-0.3,0-0.4,0
	C101.9,90.6,101.8,90.6,101.7,90.5L101.7,90.5z"/>
<linearGradient id="SVGID_22_" gradientUnits="userSpaceOnUse" x1="103.414" y1="52.1562" x2="103.414" y2="54.4413" gradientTransform="matrix(1 0 0 -1 0 136)">
	<stop  offset="0" style="stop-color:#C6B5B1"/>
	<stop  offset="1" style="stop-color:#D4EDF2"/>
</linearGradient>
<path class="st21" d="M104.5,82.5c0,0.2,0,0.3,0,0.5c0,0.2-0.1,0.3-0.2,0.4c-0.1,0.1-0.2,0.2-0.3,0.3c-0.1,0.1-0.3,0.1-0.4,0.1
	c-0.3,0-0.6-0.1-0.8-0.2c-0.2-0.2-0.4-0.4-0.4-0.7c0-0.3,0-0.6,0.2-0.8c0.2-0.2,0.4-0.4,0.7-0.5h0.2c0.3,0,0.5,0.1,0.7,0.2
	C104.3,82,104.4,82.2,104.5,82.5z"/>
<linearGradient id="SVGID_23_" gradientUnits="userSpaceOnUse" x1="103.3551" y1="48.6328" x2="103.3551" y2="50.9416" gradientTransform="matrix(1 0 0 -1 0 136)">
	<stop  offset="0" style="stop-color:#C6B5B1"/>
	<stop  offset="1" style="stop-color:#D4EDF2"/>
</linearGradient>
<path class="st22" d="M103.2,87.3c-0.3,0-0.5-0.2-0.7-0.4s-0.3-0.5-0.2-0.8s0.2-0.6,0.4-0.8c0.2-0.2,0.5-0.3,0.8-0.3h0.2
	c0.1,0,0.3,0.1,0.4,0.2c0.1,0.1,0.2,0.2,0.3,0.3c0.1,0.1,0.1,0.3,0.2,0.4c0,0.1,0,0.3,0,0.5c-0.1,0.3-0.2,0.6-0.5,0.7
	C103.8,87.3,103.5,87.4,103.2,87.3z"/>
<linearGradient id="SVGID_24_" gradientUnits="userSpaceOnUse" x1="102.324" y1="55.5261" x2="102.324" y2="57.8199" gradientTransform="matrix(1 0 0 -1 0 136)">
	<stop  offset="0" style="stop-color:#C6B5B1"/>
	<stop  offset="1" style="stop-color:#D4EDF2"/>
</linearGradient>
<path class="st23" d="M101.5,80.2c-0.2-0.2-0.3-0.5-0.3-0.8c0-0.3,0.1-0.6,0.3-0.8c0.2-0.2,0.5-0.3,0.8-0.3c0.3,0,0.6,0.1,0.8,0.3
	c0.2,0.2,0.3,0.5,0.3,0.8c0,0.3-0.1,0.6-0.3,0.8c-0.2,0.2-0.5,0.3-0.8,0.3C102,80.5,101.8,80.4,101.5,80.2z"/>
<linearGradient id="SVGID_25_" gradientUnits="userSpaceOnUse" x1="100.1043" y1="42.6028" x2="100.1043" y2="44.94" gradientTransform="matrix(1 0 0 -1 0 136)">
	<stop  offset="0" style="stop-color:#C6B5B1"/>
	<stop  offset="1" style="stop-color:#D4EDF2"/>
</linearGradient>
<path class="st24" d="M99.3,93c-0.1-0.1-0.2-0.2-0.2-0.4C99,92.5,99,92.3,99,92.2c0-0.2,0-0.3,0.1-0.4c0.1-0.1,0.1-0.3,0.3-0.4
	c0.2-0.2,0.5-0.3,0.7-0.3c0.2,0,0.3,0,0.4,0.1s0.3,0.2,0.4,0.3c0.1,0.1,0.2,0.2,0.2,0.4c0.1,0.1,0.1,0.3,0.1,0.4
	c0,0.2,0,0.3-0.1,0.4c-0.1,0.1-0.1,0.3-0.2,0.4c-0.1,0.1-0.2,0.2-0.4,0.3c-0.1,0.1-0.3,0.1-0.4,0.1c-0.2,0-0.3,0-0.4-0.1
	C99.5,93.2,99.4,93.1,99.3,93z"/>
<linearGradient id="SVGID_26_" gradientUnits="userSpaceOnUse" x1="102.8753" y1="70.2583" x2="102.8753" y2="93.5" gradientTransform="matrix(1 0 0 -1 0 136)">
	<stop  offset="0" style="stop-color:#C6B5B1"/>
	<stop  offset="1" style="stop-color:#D4EDF2"/>
</linearGradient>
<path class="st25" d="M115.9,42.5c-4.4,3-9.1,5.6-13.9,7.8c-2.8,1.2-5.4,2.8-7.7,4.7c-1.1,0.9-1.9,2.1-2.3,3.4
	c-0.2,0.6-0.3,1.3-0.3,2c0,0.7,0.2,1.3,0.5,1.9c0.4,0.6,0.8,1,1.4,1.3c0.6,0.3,1.2,0.5,1.8,0.5c0.7,0.1,1.3-0.1,2-0.3
	c0.6-0.3,1.2-0.7,1.6-1.3c0.4-0.6,0.7-1.3,0.7-2c0.1-0.7,0-1.4-0.4-2c-0.2-0.3-0.5-0.5-0.8-0.7c-0.3-0.2-0.7-0.2-1-0.2
	c-0.4,0-0.7,0.2-1,0.4c-0.3,0.2-0.6,0.5-0.8,0.9c0.1-0.4,0.4-0.8,0.7-1.1c0.3-0.3,0.7-0.5,1.1-0.5c0.4-0.1,0.8,0,1.2,0.1
	s0.7,0.4,1,0.8c0.6,0.7,0.9,1.6,0.8,2.5c0,0.9-0.2,1.8-0.7,2.6c-0.5,0.8-1.2,1.4-2,1.8c-0.8,0.4-1.7,0.7-2.6,0.7
	c-0.9,0-1.8-0.2-2.6-0.6c-0.8-0.4-1.5-1-2-1.8c-0.5-0.8-0.8-1.7-0.9-2.7c-0.1-0.9,0-1.9,0.2-2.8c0.5-1.8,1.4-3.3,2.8-4.5
	c2.5-2.1,5.3-3.8,8.2-5.1c3.8-1.8,7.7-3.6,11.3-5.7L115.9,42.5z"/>
<linearGradient id="SVGID_27_" gradientUnits="userSpaceOnUse" x1="91.314" y1="60.8227" x2="91.314" y2="93.4799" gradientTransform="matrix(1 0 0 -1 0 136)">
	<stop  offset="0" style="stop-color:#C6B5B1"/>
	<stop  offset="1" style="stop-color:#D4EDF2"/>
</linearGradient>
<path class="st26" d="M74.3,63.1c1.2-1.9,2.7-3.7,4.3-5.2c3.3-2.9,6.9-5.3,10.7-7.3c5.2-2.9,10.6-5.3,15.8-8h4.2
	c-6.2,3.6-12.7,6.6-18.9,10.1c-3.7,1.9-7.2,4.3-10.4,7c-1.6,1.3-2.9,2.9-4,4.6c-0.4,0.9-0.7,1.8-0.8,2.7c-0.1,1-0.1,2,0.1,3
	c0.2,0.9,0.6,1.8,1.2,2.4c0.7,0.7,1.5,1.1,2.4,1.3c0.9,0.2,1.9,0.1,2.8-0.2c0.9-0.3,1.7-0.9,2.3-1.7c0.6-0.7,1-1.7,1.1-2.7
	c0.1-1-0.2-2-0.8-2.8c-0.3-0.4-0.7-0.8-1.1-1c-0.4-0.3-0.9-0.4-1.4-0.5c-0.5,0-1,0.1-1.5,0.3c-0.5,0.2-0.8,0.6-1.1,1.1
	c0.2-0.5,0.6-0.9,1.1-1.3c0.5-0.3,1-0.5,1.5-0.5c0.6,0,1.1,0.2,1.6,0.4c0.5,0.3,0.9,0.6,1.3,1.1c0.8,0.9,1.2,2,1.2,3.2
	c0,1.2-0.4,2.4-1.1,3.4c-0.5,0.7-1.2,1.4-2,1.8c-0.8,0.5-1.6,0.8-2.5,0.9c-0.9,0.1-1.8,0-2.6-0.3c-0.8-0.3-1.6-0.7-2.3-1.3
	c-0.9-0.9-1.5-2-1.8-3.2c-0.3-1.2-0.4-2.4-0.2-3.6C73.4,65.4,73.8,64.2,74.3,63.1z"/>
<linearGradient id="SVGID_28_" gradientUnits="userSpaceOnUse" x1="72.2199" y1="69.6612" x2="72.2199" y2="93.4998" gradientTransform="matrix(1 0 0 -1 0 136)">
	<stop  offset="0" style="stop-color:#C6B5B1"/>
	<stop  offset="1" style="stop-color:#D4EDF2"/>
</linearGradient>
<path class="st27" d="M61.3,65.6c-0.8-5.7,0.9-15.3,6.1-23.1h15.9c-9.9,5.6-18.5,12.3-21,23.4C62.2,66.7,61.4,66.3,61.3,65.6z"/>
<linearGradient id="SVGID_29_" gradientUnits="userSpaceOnUse" x1="18.521" y1="55.5271" x2="18.521" y2="57.8199" gradientTransform="matrix(1 0 0 -1 0 136)">
	<stop  offset="0" style="stop-color:#C6B5B1"/>
	<stop  offset="1" style="stop-color:#D4EDF2"/>
</linearGradient>
<path class="st28" d="M18.5,78.2c0.3,0,0.6,0.1,0.8,0.3c0.2,0.2,0.3,0.5,0.3,0.8c0,0.3-0.1,0.6-0.3,0.8c-0.2,0.2-0.5,0.3-0.8,0.3
	c-0.3,0-0.6-0.1-0.8-0.3c-0.2-0.2-0.3-0.5-0.3-0.8c0-0.3,0.1-0.6,0.3-0.8C17.9,78.3,18.2,78.2,18.5,78.2z"/>
<linearGradient id="SVGID_30_" gradientUnits="userSpaceOnUse" x1="20.7542" y1="42.5981" x2="20.7542" y2="44.9102" gradientTransform="matrix(1 0 0 -1 0 136)">
	<stop  offset="0" style="stop-color:#C6B5B1"/>
	<stop  offset="1" style="stop-color:#D4EDF2"/>
</linearGradient>
<path class="st29" d="M20.7,91.1c0.3,0,0.6,0.1,0.8,0.3c0.1,0.1,0.2,0.2,0.3,0.4c0.1,0.1,0.1,0.3,0.1,0.4c0,0.2,0,0.3-0.1,0.4
	c-0.1,0.1-0.1,0.3-0.2,0.4c-0.2,0.2-0.5,0.4-0.8,0.4s-0.6-0.1-0.8-0.3c-0.2-0.2-0.3-0.4-0.3-0.6c0-0.2,0-0.5,0-0.7
	c0.1-0.2,0.2-0.4,0.4-0.5C20.3,91.2,20.5,91.1,20.7,91.1L20.7,91.1z"/>
<linearGradient id="SVGID_31_" gradientUnits="userSpaceOnUse" x1="48.6249" y1="69.6787" x2="48.6249" y2="93.5001" gradientTransform="matrix(1 0 0 -1 0 136)">
	<stop  offset="0" style="stop-color:#C6B5B1"/>
	<stop  offset="1" style="stop-color:#D4EDF2"/>
</linearGradient>
<path class="st30" d="M37.5,42.5h15.9c5.2,7.8,6.9,17.4,6.1,23.1c-0.1,0.7-0.9,1-1.1,0.3C56,54.8,47.4,48.1,37.5,42.5z"/>
<linearGradient id="SVGID_32_" gradientUnits="userSpaceOnUse" x1="97.3074" y1="40.575" x2="97.3074" y2="42.881" gradientTransform="matrix(1 0 0 -1 0 136)">
	<stop  offset="0" style="stop-color:#C6B5B1"/>
	<stop  offset="1" style="stop-color:#D4EDF2"/>
</linearGradient>
<path class="st31" d="M97.3,93.1c0.2,0,0.4,0.1,0.6,0.2c0.2,0.1,0.3,0.3,0.4,0.4c0.1,0.3,0.2,0.6,0.1,0.9c-0.1,0.3-0.3,0.5-0.5,0.7
	c-0.1,0.1-0.3,0.1-0.4,0.1c-0.1,0-0.3,0-0.4,0c-0.1,0-0.3-0.1-0.4-0.2c-0.1-0.1-0.2-0.2-0.3-0.3c-0.1-0.1-0.1-0.3-0.1-0.4
	c0-0.2,0-0.3,0-0.4c0-0.1,0.1-0.3,0.2-0.4s0.2-0.2,0.3-0.3C97,93.2,97.1,93.1,97.3,93.1z"/>
<linearGradient id="SVGID_33_" gradientUnits="userSpaceOnUse" x1="18.5977" y1="45.3364" x2="18.5977" y2="47.65" gradientTransform="matrix(1 0 0 -1 0 136)">
	<stop  offset="0" style="stop-color:#C6B5B1"/>
	<stop  offset="1" style="stop-color:#D4EDF2"/>
</linearGradient>
<path class="st32" d="M19.1,90.5c-0.1,0.1-0.3,0.1-0.4,0.1c-0.1,0-0.3,0-0.4,0c-0.1,0-0.3-0.1-0.4-0.2c-0.1-0.1-0.2-0.2-0.3-0.3
	c-0.1-0.1-0.1-0.3-0.1-0.4s0-0.3,0-0.4c0-0.1,0.1-0.3,0.2-0.4c0.1-0.1,0.2-0.2,0.3-0.3c0.2-0.1,0.4-0.2,0.5-0.2
	c0.2,0,0.4,0.1,0.6,0.2c0.2,0.1,0.3,0.2,0.4,0.4c0.1,0.1,0.1,0.3,0.1,0.4c0,0.2,0,0.3,0,0.5c0,0.1-0.1,0.3-0.2,0.4
	C19.4,90.3,19.3,90.4,19.1,90.5z"/>
<linearGradient id="SVGID_34_" gradientUnits="userSpaceOnUse" x1="88.8196" y1="30.03" x2="88.8196" y2="93.51" gradientTransform="matrix(1 0 0 -1 0 136)">
	<stop  offset="0" style="stop-color:#C6B5B1"/>
	<stop  offset="1" style="stop-color:#D4EDF2"/>
</linearGradient>
<path class="st33" d="M64.2,74.9c0.2-4.7,1.3-9.3,3.3-13.5s4.8-7.9,8.2-10.9c3.6-3.1,7.5-5.8,11.6-8h11.9
	c-8.5,4.4-17.1,8.6-23.2,16.3C64.6,73,70.8,96.8,89.5,99.3c8.3,1.1,14.9-4.4,17.4-12.8c2.4-8.1-8.1-13.6-8.9-6.4
	c-0.3,1.4-1,2.7-2.1,3.6c-1.1,0.9-2.4,1.4-3.8,1.3c-3-0.3-6.2-4-4-10c3.5-9.7,16.6-9.2,22.4-0.9c5.9,8.5,2.5,20.5-4.6,26.8
	c-8,7.1-19.9,6.1-28.4,0.6c-4.3-2.8-7.8-6.8-10.1-11.4C65,85.4,63.9,80.1,64.2,74.9z"/>
<linearGradient id="SVGID_35_" gradientUnits="userSpaceOnUse" x1="90.7535" y1="39.1499" x2="90.7535" y2="41.4551" gradientTransform="matrix(1 0 0 -1 0 136)">
	<stop  offset="0" style="stop-color:#C6B5B1"/>
	<stop  offset="1" style="stop-color:#D4EDF2"/>
</linearGradient>
<path class="st34" d="M90.9,94.6c0.3,0,0.5,0.2,0.7,0.4c0.2,0.2,0.3,0.5,0.2,0.8c0,0.2-0.1,0.4-0.2,0.6c-0.1,0.2-0.3,0.3-0.5,0.4
	c-0.2,0.1-0.4,0.1-0.6,0s-0.4-0.2-0.5-0.3c-0.1-0.2-0.2-0.4-0.3-0.6c0-0.2,0-0.4,0.1-0.6c0.1-0.2,0.2-0.4,0.4-0.5
	c0.2-0.1,0.4-0.2,0.6-0.2C90.8,94.5,90.8,94.5,90.9,94.6z"/>
<linearGradient id="SVGID_36_" gradientUnits="userSpaceOnUse" x1="94.0291" y1="39.3462" x2="94.0291" y2="41.6801" gradientTransform="matrix(1 0 0 -1 0 136)">
	<stop  offset="0" style="stop-color:#C6B5B1"/>
	<stop  offset="1" style="stop-color:#D4EDF2"/>
</linearGradient>
<path class="st35" d="M94.1,94.3c0.3,0,0.6,0.2,0.7,0.4c0.2,0.2,0.3,0.5,0.3,0.8c0,0.3-0.1,0.6-0.3,0.8c-0.2,0.2-0.5,0.3-0.8,0.3
	c-0.3,0-0.6-0.1-0.8-0.3c-0.2-0.2-0.3-0.5-0.3-0.8c0-0.3,0.1-0.6,0.3-0.8c0.2-0.2,0.5-0.4,0.7-0.4H94.1z"/>
<linearGradient id="SVGID_37_" gradientUnits="userSpaceOnUse" x1="87.5568" y1="40.1362" x2="87.5568" y2="42.4302" gradientTransform="matrix(1 0 0 -1 0 136)">
	<stop  offset="0" style="stop-color:#C6B5B1"/>
	<stop  offset="1" style="stop-color:#D4EDF2"/>
</linearGradient>
<path class="st36" d="M88.3,93.9c0.2,0.2,0.3,0.5,0.3,0.8c0,0.3-0.1,0.6-0.3,0.8c-0.2,0.2-0.5,0.3-0.8,0.3s-0.6-0.1-0.8-0.3
	c-0.1-0.1-0.2-0.2-0.2-0.4c-0.1-0.1-0.1-0.3-0.1-0.4c0-0.3,0.1-0.6,0.3-0.8c0.1-0.1,0.2-0.2,0.4-0.3c0.1-0.1,0.3-0.1,0.4-0.1
	C87.8,93.6,88.1,93.7,88.3,93.9z"/>
<linearGradient id="SVGID_38_" gradientUnits="userSpaceOnUse" x1="65.1888" y1="96" x2="65.1888" y2="108.5" gradientTransform="matrix(1 0 0 -1 0 136)">
	<stop  offset="0" style="stop-color:#C6B5B1"/>
	<stop  offset="1" style="stop-color:#D4EDF2"/>
</linearGradient>
<path class="st37" d="M131.4,40H-1V27.5h132.4V40z"/>
<linearGradient id="SVGID_39_" gradientUnits="userSpaceOnUse" x1="65.1888" y1="123.5" x2="65.1888" y2="136" gradientTransform="matrix(1 0 0 -1 0 136)">
	<stop  offset="0" style="stop-color:#C6B5B1"/>
	<stop  offset="1" style="stop-color:#D4EDF2"/>
</linearGradient>
<path class="st38" d="M131.4,12.5H-1V0h132.4V12.5z"/>
<linearGradient id="SVGID_40_" gradientUnits="userSpaceOnUse" x1="65.1888" y1="113.5" x2="65.1888" y2="118.5" gradientTransform="matrix(1 0 0 -1 0 136)">
	<stop  offset="0" style="stop-color:#C6B5B1"/>
	<stop  offset="1" style="stop-color:#D4EDF2"/>
</linearGradient>
<path class="st39" d="M131.4,22.5H-1v-5h132.4V22.5z"/>
</svg>
