<svg width="80" height="106" viewBox="0 0 80 106" fill="none" xmlns="http://www.w3.org/2000/svg">
<path d="M69.4183 37.8764L41.4183 0.776367C40.637 -0.258789 39.3711 -0.258789 38.5898 0.776367L10.5898 37.8764C9.80859 38.9115 9.80859 40.5889 10.5898 41.624C11.3711 42.6592 12.6973 42.6592 13.4786 41.624L38.1252 9.04727V103.35C38.1252 104.814 38.8958 106 40.0002 106C41.1045 106 41.8752 104.814 41.8752 103.35V9.04727L66.5255 41.624C66.9161 42.1416 67.4605 42.4004 67.972 42.4004C68.4836 42.4004 69.0114 42.1416 69.402 41.624C70.1833 40.5885 70.1995 38.9115 69.4183 37.8764Z" fill="#45867A"/>
</svg>
