<svg width="70" height="71" viewBox="0 0 70 71" fill="none" xmlns="http://www.w3.org/2000/svg">
<g filter="url(#filter0_d)">
<path d="M33.5777 19.8077C34.1714 19.2135 35.1346 19.2135 35.7293 19.8077C36.3235 20.4014 36.3235 21.3651 35.7293 21.9593L24.2059 33.4827H54.8233C55.666 33.4827 56.3496 34.1663 56.3496 35.0091C56.3496 35.8523 55.666 36.5354 54.8233 36.5354H24.2212L35.7446 48.0588C36.0305 48.3437 36.1911 48.7314 36.1911 49.1348C36.1911 49.5388 36.0305 49.9255 35.7446 50.2109C35.4587 50.4991 35.0672 50.6588 34.6609 50.6535C34.256 50.6516 33.8674 50.4929 33.5777 50.2109L19.4596 36.0932C19.1723 35.8055 19.0121 35.4149 19.0164 35.0091C19.0193 34.6042 19.178 34.217 19.4596 33.9258L33.5777 19.8077Z" fill="#99E1D4"/>
<path d="M34.9821 2.19425C48.2546 2.19186 60.2211 10.1864 65.3002 22.4489C70.3783 34.7118 67.5694 48.8261 58.1814 58.2084C45.3682 71.0215 24.595 71.0215 11.7823 58.2084C-1.03029 45.3962 -1.03029 24.6229 11.7823 11.8098C17.9217 5.63559 26.2753 2.17321 34.9821 2.19425V2.19425ZM34.9821 64.7717C51.3895 64.7717 64.7442 51.4165 64.7442 35.0091C64.7442 18.6017 51.3895 5.24695 34.9821 5.24695C18.5747 5.24695 5.21947 18.6017 5.21947 35.0091C5.21947 51.4165 18.5747 64.7717 34.9821 64.7717Z" fill="#99E1D4"/>
</g>
<defs>
<filter id="filter0_d" x="-2" y="-1" width="74" height="74" filterUnits="userSpaceOnUse" color-interpolation-filters="sRGB">
<feFlood flood-opacity="0" result="BackgroundImageFix"/>
<feColorMatrix in="SourceAlpha" type="matrix" values="0 0 0 0 0 0 0 0 0 0 0 0 0 0 0 0 0 0 127 0"/>
<feOffset dy="1"/>
<feGaussianBlur stdDeviation="1"/>
<feColorMatrix type="matrix" values="0 0 0 0 0 0 0 0 0 0 0 0 0 0 0 0 0 0 0.25 0"/>
<feBlend mode="normal" in2="BackgroundImageFix" result="effect1_dropShadow"/>
<feBlend mode="normal" in="SourceGraphic" in2="effect1_dropShadow" result="shape"/>
</filter>
</defs>
</svg>
