<svg width="70" height="70" viewBox="0 0 70 70" fill="none" xmlns="http://www.w3.org/2000/svg">
<path d="M36.4223 19.8077C35.8286 19.2135 34.8654 19.2135 34.2707 19.8077C33.6765 20.4014 33.6765 21.3651 34.2707 21.9593L45.7941 33.4827H15.1767C14.334 33.4827 13.6504 34.1663 13.6504 35.0091C13.6504 35.8523 14.334 36.5354 15.1767 36.5354H45.7788L34.2554 48.0588C33.9695 48.3437 33.8089 48.7314 33.8089 49.1348C33.8089 49.5388 33.9695 49.9255 34.2554 50.2109C34.5413 50.4991 34.9328 50.6588 35.3391 50.6535C35.744 50.6516 36.1326 50.4929 36.4223 50.2109L50.5404 36.0932C50.8277 35.8055 50.9879 35.4149 50.9836 35.0091C50.9807 34.6042 50.822 34.217 50.5404 33.9258L36.4223 19.8077Z" fill="#32917F"/>
<path d="M35.0189 2.19425C21.7464 2.19186 9.77986 10.1864 4.70079 22.4489C-0.37732 34.7118 2.43158 48.8261 11.8196 58.2084C24.6327 71.0215 45.406 71.0215 58.2186 58.2084C71.0313 45.3962 71.0313 24.6229 58.2186 11.8098C52.0793 5.63559 43.7257 2.17321 35.0189 2.19425ZM35.0189 64.7717C18.6115 64.7717 5.25674 51.4165 5.25674 35.0091C5.25674 18.6017 18.6115 5.24695 35.0189 5.24695C51.4263 5.24695 64.7815 18.6017 64.7815 35.0091C64.7815 51.4165 51.4263 64.7717 35.0189 64.7717Z" fill="#32917F"/>
</svg>
