<svg width="70" height="70" viewBox="0 0 70 70" fill="none" xmlns="http://www.w3.org/2000/svg">
<path d="M33.5777 19.8077C34.1714 19.2135 35.1346 19.2135 35.7293 19.8077C36.3235 20.4014 36.3235 21.3651 35.7293 21.9593L24.2059 33.4827H54.8233C55.666 33.4827 56.3496 34.1663 56.3496 35.0091C56.3496 35.8523 55.666 36.5354 54.8233 36.5354H24.2212L35.7446 48.0588C36.0305 48.3437 36.1911 48.7314 36.1911 49.1348C36.1911 49.5388 36.0305 49.9255 35.7446 50.2109C35.4587 50.4991 35.0672 50.6588 34.6609 50.6535C34.256 50.6516 33.8674 50.4929 33.5777 50.2109L19.4595 36.0932C19.1723 35.8055 19.0121 35.4149 19.0164 35.0091C19.0193 34.6042 19.178 34.217 19.4595 33.9258L33.5777 19.8077Z" fill="#32917F"/>
<path d="M34.9811 2.19425C48.2536 2.19186 60.2201 10.1864 65.2992 22.4489C70.3773 34.7118 67.5684 48.8261 58.1804 58.2084C45.3673 71.0215 24.594 71.0215 11.7814 58.2084C-1.03128 45.3962 -1.03128 24.6229 11.7814 11.8098C17.9207 5.63559 26.2743 2.17321 34.9811 2.19425V2.19425ZM34.9811 64.7717C51.3885 64.7717 64.7433 51.4165 64.7433 35.0091C64.7433 18.6017 51.3885 5.24695 34.9811 5.24695C18.5737 5.24695 5.21849 18.6017 5.21849 35.0091C5.21849 51.4165 18.5737 64.7717 34.9811 64.7717Z" fill="#32917F"/>
</svg>
