<svg width="32" height="40" viewBox="0 0 32 40" fill="none" xmlns="http://www.w3.org/2000/svg">
<path d="M13.232 35.3218L13.2311 35.3192C12.5724 33.354 11.3938 31.9056 10.0543 30.6565C9.38749 30.0348 8.67334 29.4558 7.9623 28.8896C7.84748 28.7982 7.73285 28.7072 7.61843 28.6163C7.018 28.1396 6.4237 27.6678 5.84161 27.167C4.46253 25.9807 3.20132 24.6723 2.27821 22.9355C1.35801 21.2041 0.75 19.0015 0.75 15.9989C0.75 11.9547 2.35668 8.07605 5.2166 5.21632C8.07653 2.35659 11.9554 0.75 16 0.75C20.0446 0.75 23.9235 2.35659 26.7834 5.21632C29.6433 8.07605 31.25 11.9547 31.25 15.9989C31.25 19.0027 30.6477 21.2064 29.7374 22.9385C28.8243 24.6758 27.5777 25.9841 26.2171 27.1703C25.6492 27.6654 25.0701 28.1321 24.4852 28.6034C24.3657 28.6997 24.246 28.7962 24.1261 28.8931C23.4256 29.4595 22.7226 30.0389 22.0673 30.6612C20.7511 31.9112 19.5991 33.3603 18.967 35.3248C18.9667 35.3259 18.9663 35.327 18.966 35.3281L17.9491 38.3984C17.9489 38.3989 17.9487 38.3995 17.9485 38.4C17.8614 38.658 17.6924 38.8805 17.4672 39.0337C17.2414 39.1871 16.9717 39.2625 16.6991 39.2483L16.6796 39.2473H16.66H15.54H15.5204L15.5009 39.2483C15.2283 39.2625 14.9586 39.1871 14.7328 39.0337C14.5075 38.8805 14.3385 38.6578 14.2514 38.3997C14.2512 38.3993 14.2511 38.3988 14.2509 38.3984L13.232 35.3218ZM12.2499 21.611C13.36 22.3527 14.665 22.7485 16 22.7485C17.7902 22.7485 19.5071 22.0374 20.773 20.7716C22.0388 19.5058 22.75 17.789 22.75 15.9989C22.75 14.664 22.3541 13.359 21.6124 12.249C20.8707 11.1391 19.8165 10.2739 18.5831 9.76309C17.3497 9.25224 15.9925 9.11858 14.6832 9.37901C13.3738 9.63944 12.1711 10.2823 11.227 11.2262C10.283 12.1702 9.64015 13.3728 9.3797 14.6821C9.11925 15.9914 9.25292 17.3486 9.76382 18.5819C10.2747 19.8152 11.1399 20.8694 12.2499 21.611Z" stroke="#233131" stroke-width="1.5"/>
</svg>
