<svg xmlns="http://www.w3.org/2000/svg" xmlns:xlink="http://www.w3.org/1999/xlink" width="32px" height="32px" viewBox="0 0 32 32" version="1.1">
<path fill="#233131" d="M 30.464844 22.945312 L 26.59375 19.039062 C 25.953125 18.398438 25.089844 18.015625 24.289062 18.015625 C 23.425781 18.015625 22.65625 18.367188 21.984375 19.039062 L 19.742188 21.28125 C 19.648438 21.214844 19.519531 21.152344 19.425781 21.121094 C 19.425781 21.121094 19.390625 21.121094 19.390625 21.089844 L 19.359375 21.054688 C 19.070312 20.863281 18.753906 20.671875 18.367188 20.511719 C 16.414062 19.296875 14.59375 17.601562 12.734375 15.328125 C 11.871094 14.238281 11.265625 13.28125 10.785156 12.222656 C 11.296875 11.808594 11.679688 11.390625 11.96875 11.070312 L 12.960938 10.078125 C 13.726562 9.375 14.113281 8.574219 14.113281 7.742188 C 14.113281 6.878906 13.726562 6.078125 12.992188 5.3125 L 9.953125 2.273438 C 9.664062 1.984375 9.375 1.695312 9.054688 1.40625 C 8.414062 0.800781 7.617188 0.449219 6.785156 0.449219 C 5.855469 0.449219 5.089844 0.769531 4.382812 1.472656 L 2.046875 3.808594 C 1.121094 4.671875 0.574219 5.761719 0.449219 7.105469 L 0.449219 7.136719 C 0.382812 8.800781 0.640625 10.335938 1.34375 12.257812 C 2.464844 15.265625 4.160156 18.078125 6.6875 21.183594 C 9.984375 24.894531 13.695312 27.777344 17.824219 29.761719 L 17.921875 29.792969 C 19.136719 30.335938 21.441406 31.359375 24 31.519531 L 24.351562 31.519531 C 26.046875 31.519531 27.328125 30.976562 28.382812 29.824219 C 28.769531 29.375 29.183594 28.960938 29.535156 28.574219 C 29.824219 28.351562 30.015625 28.128906 30.207031 27.902344 L 30.464844 27.648438 L 30.527344 27.585938 C 31.871094 26.113281 31.871094 24.320312 30.464844 22.945312 Z M 29.34375 26.496094 L 29.023438 26.816406 L 28.992188 26.878906 C 28.832031 27.070312 28.703125 27.230469 28.542969 27.359375 L 28.449219 27.457031 C 28.0625 27.839844 27.617188 28.289062 27.167969 28.800781 C 26.433594 29.601562 25.601562 29.953125 24.351562 29.953125 L 24.097656 29.953125 C 21.855469 29.792969 19.808594 28.894531 18.59375 28.351562 L 18.527344 28.320312 C 14.59375 26.433594 11.039062 23.679688 7.9375 20.160156 C 5.503906 17.214844 3.902344 14.527344 2.847656 11.710938 C 2.207031 9.953125 1.984375 8.671875 2.046875 7.230469 C 2.144531 6.304688 2.496094 5.566406 3.136719 4.992188 L 5.503906 2.625 C 5.886719 2.238281 6.273438 2.078125 6.753906 2.078125 C 7.167969 2.078125 7.550781 2.273438 7.902344 2.59375 L 7.9375 2.625 C 8.222656 2.878906 8.511719 3.167969 8.800781 3.457031 L 11.839844 6.496094 C 12.414062 7.070312 12.511719 7.519531 12.511719 7.777344 C 12.511719 8.03125 12.449219 8.414062 11.839844 8.960938 L 10.816406 9.984375 C 10.464844 10.367188 10.046875 10.785156 9.503906 11.230469 L 9.441406 11.296875 L 9.375 11.390625 C 9.089844 11.777344 9.054688 12.128906 9.214844 12.640625 L 9.246094 12.769531 L 9.28125 12.894531 C 9.824219 14.078125 10.496094 15.167969 11.457031 16.382812 C 13.441406 18.816406 15.425781 20.640625 17.535156 21.953125 L 17.632812 22.015625 C 17.886719 22.144531 18.144531 22.273438 18.367188 22.398438 C 18.464844 22.496094 18.59375 22.558594 18.6875 22.59375 C 18.816406 22.65625 18.910156 22.6875 18.976562 22.753906 L 19.199219 22.910156 L 19.265625 22.910156 L 19.359375 22.945312 C 19.550781 23.007812 19.679688 23.007812 19.777344 23.007812 C 20.097656 23.007812 20.382812 22.878906 20.671875 22.59375 L 23.070312 20.191406 C 23.457031 19.808594 23.808594 19.648438 24.257812 19.648438 C 24.734375 19.648438 25.183594 19.9375 25.441406 20.191406 L 29.34375 24.097656 C 30.113281 24.863281 30.144531 25.664062 29.34375 26.496094 Z M 29.34375 26.496094 "/>
</svg>
