<svg width="142" height="51" fill="none" xmlns="http://www.w3.org/2000/svg"><path fill-rule="evenodd" clip-rule="evenodd" d="M62.345 24.93c.226.391.424.811.565 1.259.113.419.198.894.198 1.37.028.196.028.364.028.56 0 .167 0 .419-.029.754v.784c.03.224.03.448.03.643.027.308.055.587.112.811.028.224.085.364.142.503a.66.66 0 00.197.197.614.614 0 00.339.084h.17c.028-.03.085-.03.113-.057.028 0 .085-.056.142-.084.056-.056.112-.14.197-.224.311-.307.537-.614.707-.895a3.8 3.8 0 00.367-.782c.029-.14.057-.253.114-.364a1.24 1.24 0 01.084-.252c.028-.307.085-.587.17-.84.112-.278.254-.558.451-.782.255-.308.566-.532.905-.672a2.48 2.48 0 011.13-.167c.34 0 .65.083.934.196.31.14.565.308.82.56.225.223.395.475.536.754.141.252.226.56.254.84v.027c0 .252 0 .504-.056.728-.057.251-.17.447-.339.614-.17.17-.34.28-.565.337a1.18 1.18 0 01-.623.084c-.226 0-.395-.029-.537-.056a1.251 1.251 0 01-.451-.168c-.114-.056-.199-.084-.284-.14l-.028.028v.084c0 .055.028.112.028.168.03.055.057.111.085.168l.17.167c.056.056.141.112.198.168.085.056.17.112.254.14.057.055.142.084.254.14.085.028.142.028.227.056.085 0 .141.027.226.027.424 0 .932-.223 1.498-.727.65-.53 1.385-1.37 2.147-2.545.368-.531.764-1.146 1.216-1.846.367-.615.791-1.343 1.272-2.154.367-.643.678-1.202 1.017-1.762.707-1.258 1.47-2.629 2.346-4.027.283-.448.565-.84.848-1.147.367-.39.706-.671 1.017-.866.282-.197.537-.337.763-.42.254-.112.51-.169.764-.169l.31-.027c.51-.028 1.018-.056 1.555-.084.508-.028 1.017-.056 1.554-.084l1.045-.084-.508.895c-.424.755-.82 1.455-1.187 2.154-.368.671-.734 1.398-1.13 2.153-.424.84-.849 1.65-1.131 2.182-.339.7-.707 1.426-1.074 2.21a36.6 36.6 0 00-1.583 3.72c-.339 1.006-.508 1.79-.508 2.349 0 .14.027.252.056.335a.605.605 0 00.142.224c.056.084.113.112.17.14.055.028.14.028.197.028h.028c1.046-.056 3.392-3.105 5.03-5.23.736-.951 1.329-1.734 1.725-2.098.31-.979.734-1.901 1.272-2.769a13.645 13.645 0 012.232-2.573c1.3-1.146 2.488-2.041 3.59-2.657 1.158-.643 2.204-1.006 3.165-1.09.396-.029.735.027 1.017.111.368.084.65.252.848.476.198.195.367.447.48.727.085.252.17.53.17.839.028.978-.226 1.902-.707 2.77-.451.838-1.158 1.621-2.062 2.348-.877.7-1.781 1.287-2.685 1.678-.905.42-1.809.672-2.742.727-.14.029-.367.029-.566.029l-.169.027c-.17.364-.339.755-.508 1.147-.198.475-.424.951-.594 1.427a6.252 6.252 0 00-.396 1.314c-.084.42-.112.84-.084 1.203 0 .196.028.391.112.56.085.167.199.335.34.475a.81.81 0 00.395.251c.199.056.453.084.735.056.254 0 .48-.056.735-.14a2.98 2.98 0 00.707-.391c.254-.14.508-.363.762-.587.255-.224.538-.504.792-.784 1.159-1.314 1.865-2.293 2.374-2.964.141-.196.283-.391.424-.56.226-.307.904-1.286 1.639-2.405.679-1.063 1.441-2.238 1.979-3.105.113-.307.282-.67.508-1.119.227-.447.509-.95.848-1.51a11.037 11.037 0 011.611-2.181c.593-.532 1.215-.895 1.837-1.007.452-.084.82-.056 1.159.112.367.14.678.42.904.755.198.28.339.587.452.951.114.335.198.727.255 1.119.028.476.028.922 0 1.398 0 .14-.029.28-.029.42a75.163 75.163 0 011.866-2.713c.65-.896 1.3-1.623 1.95-2.126.678-.56 1.357-.923 2.063-1.035.508-.084.933 0 1.329.167.395.197.706.476.989.84a3.9 3.9 0 01.621 1.174c.169.42.283.924.311 1.455.057 1.734-.197 3.329-.763 4.867-.594 1.538-1.498 2.993-2.685 4.307-1.187 1.314-2.261 2.35-3.278 3.133-1.046.81-2.035 1.286-2.939 1.482-.396.056-.792.056-1.131-.028a2.612 2.612 0 01-1.018-.476 2.2 2.2 0 01-.734-.867.98.98 0 01-.17-.392c-.311.56-.593 1.175-.904 1.791-.65 1.314-1.385 2.853-2.205 4.559l-1.272 2.684-.14.308h-.34l-1.356.084-1.385.084-.961.056.423-.867c.905-1.762 1.725-3.412 2.488-4.923l.141-.279c.791-1.567 1.498-3.049 2.176-4.447.65-1.315 1.244-2.573 1.781-3.692.537-1.119.989-2.098 1.385-2.993.395-.895.734-1.678.989-2.321.254-.671.452-1.23.565-1.679a3.58 3.58 0 00.141-.95.787.787 0 00-.056-.252c-.028-.056-.056-.14-.113-.196-.029-.027-.057-.056-.057-.056-.057-.028-.141-.028-.226-.028-.028 0-.085.028-.113.028a.454.454 0 00-.197.112 1.036 1.036 0 00-.283.168 1.863 1.863 0 00-.339.336c-.962 1.119-1.385 1.986-1.838 2.88a12.736 12.736 0 01-.847 1.623c-1.046 2.098-3.448 5.314-4.862 7.216l-.508.7c-.763 1.006-1.555 1.845-2.459 2.46-.904.643-1.865 1.063-2.911 1.203a2.873 2.873 0 01-1.61-.196 4.075 4.075 0 01-1.385-1.035 4.904 4.904 0 01-.99-1.678 5.717 5.717 0 01-.367-2.042v-.14c-.848.98-1.894 2.126-2.912 3.077-1.355 1.259-2.684 2.238-3.42 2.265a1.993 1.993 0 01-.988-.167 2.752 2.752 0 01-.82-.615c-.254-.253-.451-.588-.621-1.008a4.544 4.544 0 01-.255-1.314 9.068 9.068 0 01.057-1.735c.056-.559.17-1.174.339-1.762a15.5 15.5 0 01.51-1.76c.197-.589.394-1.148.592-1.707.142-.364.282-.727.424-1.063.113-.307.254-.615.368-.923l.254-.616c.113-.251.225-.503.34-.782.056-.168.197-.42.31-.672h-.029l.17-.363c.113-.252.17-.392.254-.532l.142-.336.028-.027a.22.22 0 00-.113.111 2.812 2.812 0 00-.367.42c-.114.112-.226.28-.339.448a3.984 3.984 0 00-.311.475c-.114.14-.198.28-.254.392-.425.698-.792 1.398-1.188 2.069l-.282.532c-.51.895-.961 1.678-1.357 2.405-.254.447-.48.867-.678 1.23-.17.28-.31.56-.453.784-.169.307-.31.559-.451.783a5.627 5.627 0 01-.34.587c-1.074 1.678-2.063 2.937-2.967 3.748-.961.923-1.866 1.343-2.713 1.314-.227 0-.453-.055-.707-.084-.226-.056-.48-.14-.735-.223a5.42 5.42 0 01-.707-.307c-.225-.14-.451-.28-.62-.476a3.472 3.472 0 01-.425-.532c-.34.448-.763.84-1.215 1.091-.51.307-1.074.447-1.724.447-.51 0-1.018-.111-1.47-.307-.48-.223-.933-.56-1.356-.95a4.696 4.696 0 01-.962-1.455c-.226-.532-.366-1.147-.423-1.846a7.874 7.874 0 010-1.148c.028-.335.057-.698.112-1.034.057-.307.085-.615.114-.84.028-.222.028-.446.028-.614 0-.14-.028-.308-.085-.476a1.546 1.546 0 00-.197-.447h-.029c-.085-.14-.226-.252-.424-.392a2.198 2.198 0 00-.508-.28c-.311.336-.65.784-.99 1.259-.452.615-.932 1.37-1.441 2.21-.509.81-.961 1.678-1.413 2.573-.425.866-.82 1.762-1.16 2.685l-.169.392-.395-.057-.622-.027c-.735-.056-1.497-.113-2.346-.197l-.876-.083.396-.728c.65-1.174 1.272-2.433 1.922-3.636.792-1.538 1.271-2.49 1.696-3.3.536-1.063 1.045-2.042 1.525-3.02.48-.952.933-1.846 1.33-2.714a56.91 56.91 0 001.101-2.293c.82-1.733 1.696-3.552 2.6-5.258.707-1.287 1.442-2.6 2.233-3.776.82-1.174 1.696-2.265 2.657-3.188a16.94 16.94 0 012.486-2.042A14.394 14.394 0 0169.551.989a14.416 14.416 0 012.855-.811c.96-.168 1.95-.197 2.968-.168.424.027.82.084 1.158.14.367.084.678.195.961.335.312.14.566.336.763.587.17.252.283.56.283.895.028.28-.029.532-.141.755-.114.224-.254.448-.48.616-.17.168-.369.308-.566.392-.254.14-.509.195-.792.167-.339-.027-.65-.195-.932-.419-.254-.224-.48-.56-.678-.924a1.624 1.624 0 00-.537-.53c-.255-.14-.594-.224-.99-.252-.48-.056-.933 0-1.356.084-.452.111-.877.308-1.271.503-.425.224-.82.476-1.188.755a7.484 7.484 0 00-1.046.867c-.424.42-.847.895-1.271 1.398a21.879 21.879 0 00-1.272 1.679 48.153 48.153 0 00-2.459 4.027 66.32 66.32 0 00-2.007 4c-.48 1.034-.904 1.985-1.356 2.964l-1.187 2.602 1.018-.84c1.158-.922 2.345-1.733 3.306-2.376.96-.644 2.007-1.26 2.939-1.651.849-.392 1.64-.615 2.261-.615 1.3.028 2.092.895 2.431 1.958.14.363.197.755.197 1.146 0 .392-.056.784-.17 1.12-.31.838-.96 1.454-1.95 1.397h-.056c-.734-.111-1.186-.475-1.412-.922a1.639 1.639 0 01-.197-.811c0-.252.055-.532.14-.756.114-.252.283-.475.51-.615-.057-.028-.114-.084-.17-.084a.82.82 0 00-.255-.056c-.31.028-.904.252-1.61.587-.792.364-1.724.895-2.572 1.455-.198.112-.481.307-.763.504-1.103.698-2.318 1.482-3.081 2.153.48.28.904.615 1.3.979a7.152 7.152 0 011.47 1.706zm-27.357 2.573c-.057.028-.114.084-.17.112l-.029.028h.227s0-.056-.028-.14zm-.538.14v-.028l-.057.028h.057zM46.744 8.876c-.423-.42-.933-.727-1.413-1.007h-.028a2.832 2.832 0 00-.65-.336 3.348 3.348 0 00-.763-.167 4.566 4.566 0 00-.849-.084c-.282.027-.565.027-.847.084-.282.056-.565.111-.82.195-.254.084-.508.196-.762.308h-.03c-.226.14-.45.251-.677.42-.227.14-.453.307-.65.503-.227.168-.396.363-.566.56-.169.195-.339.39-.48.643a4.98 4.98 0 00-.396.642c-.085.224-.197.448-.254.7a3.133 3.133 0 00-.17.7c-.028.223-.028.475-.028.727 0 .14.028.308.056.475.057.168.085.336.142.503.057.168.114.308.198.476.085.168.17.308.282.476.113.139.227.279.34.391.113.14.254.252.395.336.142.111.283.168.424.224.17.084.339.111.508.139.114.028.227.028.34.028.085 0 .17-.028.255-.028.055-.028.112-.028.141-.055l.056-.057c0-.027.029-.056.029-.084.028-.083.056-.14.056-.223.029-.14.057-.28.114-.392.027-.14.084-.252.112-.363.057-.168.142-.308.227-.42.084-.14.197-.252.338-.364.17-.111.367-.195.594-.224.17-.027.395-.027.65 0a1.745 1.745 0 01.961.503c.112.14.197.28.282.448a1.3 1.3 0 01.114.476c.028.252 0 .503-.085.727a1.49 1.49 0 01-.339.616c-.114.168-.283.307-.425.42-.17.138-.367.25-.536.335h-.03c-.169.111-.366.168-.563.224-.227.055-.425.111-.65.111-.227.028-.425.028-.623.028-.197 0-.395-.028-.565-.055a6.403 6.403 0 01-1.102-.252c-.34-.14-.679-.28-.99-.476a5.795 5.795 0 01-.904-.643c-.282-.224-.536-.476-.79-.727a6.572 6.572 0 01-.65-.84 7.453 7.453 0 01-.51-.922 5.508 5.508 0 01-.34-.951 5.676 5.676 0 01-.169-.952c0-.335 0-.67.057-.978a6.31 6.31 0 01.255-.98c.112-.278.254-.559.423-.81v-.028c.17-.251.34-.504.566-.727.226-.224.452-.448.706-.643.227-.197.481-.392.763-.56.283-.168.566-.308.877-.448a7.13 7.13 0 01.932-.363c.31-.112.622-.196.96-.28.312-.055.65-.112.99-.14.339-.028.65-.055.989-.028.339 0 .65.029.961.056.396.084.82.168 1.243.28.425.112.82.251 1.245.448.423.167.847.363 1.243.614.424.253.82.532 1.215.896a14.208 14.208 0 011.78 1.93c.48.671.876 1.37 1.187 2.042.34.698.594 1.425.792 2.153.17.7.282 1.426.339 2.153.028.7.028 1.399-.057 2.098a10.23 10.23 0 01-.396 2.07c-.197.699-.423 1.37-.706 2.014a17.524 17.524 0 01-.989 1.901c-.395.616-.82 1.176-1.272 1.735-.48.56-.96 1.09-1.497 1.593-.566.505-1.13.98-1.753 1.4-.593.447-1.215.81-1.866 1.146a16.2 16.2 0 01-2.034.811c-.706.224-1.441.392-2.205.503-.735.113-1.497.14-2.289.113a13.814 13.814 0 01-2.345-.28A9.212 9.212 0 0133.433 31a8.957 8.957 0 01-1.413-.644h-.056c-.906-.503-1.895-1.035-2.77-1.846a5.55 5.55 0 01-1.075-1.259 9.616 9.616 0 01-.706-1.287 8.73 8.73 0 01-.452-1.286c-.113-.42-.198-.866-.198-1.258s0-.756.057-1.119c.056-.364.14-.7.282-1.063a3.78 3.78 0 01.538-.923c.225-.307.48-.56.762-.783.282-.224.622-.42.99-.56.338-.167.734-.28 1.158-.363.424-.084.904-.14 1.414-.112.48 0 .96.056 1.497.168.396.084.763.224 1.102.392.34.14.65.308.933.503.282.168.536.392.763.587.226.224.452.448.622.672.197.252.367.503.508.727.113.252.227.503.34.783.084.251.141.504.198.727.056.251.084.504.112.756 0 .363 0 .67-.028.95-.056.336-.113.615-.226.867-.084.224-.197.42-.31.616a2.13 2.13 0 01-.453.53 2.278 2.278 0 01-.48.42c-.17.112-.34.224-.538.336-.141.084-.282.168-.451.252a3.384 3.384 0 00-.396.28.843.843 0 01-.198.14.526.526 0 01-.452.056.567.567 0 01-.254-.057v-.027c-.199-.084-.311-.197-.34-.364l-.17-.308.34-.307c.113-.113.226-.196.31-.337.114-.111.199-.251.283-.39.113-.168.17-.308.255-.476a3.57 3.57 0 00.197-.504c.057-.168.114-.335.142-.559.057-.168.084-.364.112-.531.03-.196.03-.364.057-.56v-.56a24.9 24.9 0 01-.084-.559 3.193 3.193 0 00-.142-.56c-.028-.195-.113-.335-.197-.502a1.434 1.434 0 00-.255-.448 1.39 1.39 0 00-.339-.363 2.468 2.468 0 00-.395-.336 2.298 2.298 0 00-.453-.224c-.17-.056-.367-.111-.566-.168h-.085a2.507 2.507 0 00-.79.028 2.08 2.08 0 00-.735.224c-.226.112-.452.224-.65.392a3.02 3.02 0 00-.537.503c-.17.196-.311.42-.424.643a3.407 3.407 0 00-.339.727c-.085.28-.141.56-.198.812-.028.28-.028.559-.028.84.028.278.057.558.141.838v.027c.056.28.17.56.283.868.141.28.283.532.48.783.197.28.453.531.707.811l.17.168c.254.252.508.503.762.7.142.139.311.251.48.335.17.111.369.195.538.308.17.084.34.139.537.223.198.056.395.168.593.224.226.056.452.111.65.14.226.055.425.111.65.14.425.084.82.14 1.215.14.425.028.82.028 1.216 0 .395-.056.791-.112 1.158-.225a4.42 4.42 0 001.16-.42c.394-.167.79-.335 1.158-.53.367-.224.735-.448 1.102-.7a9.81 9.81 0 001.046-.838v.027c.339-.307.678-.615.989-.95.31-.336.594-.7.904-1.091.283-.392.566-.783.82-1.175.283-.42.51-.839.734-1.258.057-.113.114-.224.17-.364-.31.027-.65.027-.989-.028a4.332 4.332 0 01-.82-.168 9.324 9.324 0 01-.82-.28 12.202 12.202 0 01-1.497-.783h-.028c-.565-.336-1.074-.559-1.498-.755-.311-.112-.565-.224-.79-.28 0 .14-.03.252-.087.364a.556.556 0 01-.31.308.65.65 0 01-.31.083.495.495 0 01-.284 0 .878.878 0 01-.565-.307.899.899 0 01-.225-.588c0-.167.028-.307.084-.447.028-.14.113-.252.198-.391.113-.113.198-.224.339-.308.113-.084.254-.168.395-.252.142-.056.284-.112.453-.167.17-.029.34-.085.509-.113v.028c.17-.028.367-.055.537-.055.197.027.395.027.593.055.282.056.593.112.877.224a4.5 4.5 0 01.847.335c.254.14.509.28.792.42.225.112.48.252.735.391l.678.392c.226.14.451.252.65.364.17.112.367.195.508.252.17.056.34.111.48.111.113.029.17.029.255.029.17-.476.339-.951.453-1.427.169-.56.282-1.119.395-1.706.113-.587.17-1.203.198-1.79.028-.588.028-1.203 0-1.818-.028-.531-.113-1.035-.198-1.538a10.512 10.512 0 00-.368-1.427c-.17-.447-.339-.895-.565-1.287a3.52 3.52 0 00-.763-1.034zm-12.86 18.767l.086.252.423-.252h-.508zm.086.252c0 .028 0 .028-.028 0h.028zm-1.046-7.776h.029-.03zm72.916 8.783c-.028.168.029.335.084.476.085.167.17.306.284.419a.842.842 0 00.282.195c.113.029.226.029.368.029.762-.364 1.554-1.091 2.373-2.154.848-1.119 1.724-2.63 2.572-4.56.876-1.901 1.526-3.468 1.979-4.726.452-1.23.678-2.098.678-2.63 0-.083 0-.139-.028-.167a.348.348 0 00-.142-.14v-.028c-.056-.027-.113-.056-.198-.084h-.197c-.678.224-1.442.784-2.262 1.706-.847.951-1.78 2.294-2.741 3.944-1.017 1.706-1.78 3.217-2.289 4.53-.509 1.26-.763 2.323-.763 3.19zm-13.905-5.09c.198-.029.367-.057.537-.084a4.01 4.01 0 001.16-.392c.31-.14.62-.364.96-.587.31-.253.621-.56.933-.896.48-.56.904-1.09 1.27-1.594.312-.475.566-.923.736-1.286.169-.364.31-.7.367-.951a2.26 2.26 0 00.085-.503c-.028-.14-.028-.224-.057-.28-.028-.028 0-.028-.028-.028-.056-.028-.084-.057-.141-.084h-.113c-.339.027-.707.168-1.103.475-.451.336-.96.811-1.497 1.482-.565.644-1.13 1.455-1.724 2.378a42.73 42.73 0 00-1.385 2.35zM19.33 33.209c1.696-.447 2.657 1.035 3.815 1.035l-.31.224c-.452.475-.679.447-.989 1.006-1.555-.251-5.03-1.314-2.515-2.265z" fill="#906047"/><path fill-rule="evenodd" clip-rule="evenodd" d="M17.07 33.573c-1.809 1.455-1.498 3.048-1.357 5.146-4.833-1.315-6.528 1.37-12.124-2.713C1.95 34.86.593 33.517 0 31.98c1.328.56 2.713.895 3.9 1.119 1.894.391 3.052.251 4.86 0-1.808-1.343-3.843-2.938-4.86-4.895-.763-1.37-.905-2.714-.763-3.804 1.837 2.21 5.313 4.671 9.383 6.35 4.776 1.957 8.252-1.568 10.909 1.146.452.447.593.895.593 1.23 0 .336-.141.56-.451.56-.142 0-.453 0-.905-.336-1.64-1.119-3.759-1.007-5.285.112l-.311.112zm105.219-.364c-1.696-.447-2.657 1.035-3.816 1.035l.283.224c.452.447.424.252.706.811.085-.029 5.229-.756 2.827-2.07z" fill="#906047"/><path fill-rule="evenodd" clip-rule="evenodd" d="M124.521 33.573c1.808 1.455 1.498 3.048 1.357 5.146 4.832-1.315 6.528 1.37 12.095-2.713 1.668-1.146 3.024-2.489 3.618-4.027-1.356.56-2.713.895-3.9 1.119-1.894.391-3.053.251-4.861 0 1.808-1.343 3.815-2.938 4.861-4.895.735-1.37.904-2.714.735-3.804-1.81 2.21-5.285 4.671-9.355 6.35-4.805 1.957-8.252-1.568-10.909 1.146-.452.447-.594.895-.594 1.23 0 .336.142.56.424.56.17 0 .481 0 .904-.336a4.623 4.623 0 015.314.112l.311.112z" fill="#906047"/><path fill-rule="evenodd" clip-rule="evenodd" d="M112.229 42.606a3.39 3.39 0 01.225-.474l.085-.253.141-.28.057-.167c0-.056 0-.14-.029-.195a.213.213 0 00-.056-.14c-.029-.057-.057-.084-.084-.084-.057-.029-.085-.029-.142-.029-.085.029-.17.029-.226.056a.497.497 0 00-.198.14.664.664 0 00-.198.196c-.056.056-.113.14-.17.196a1.178 1.178 0 00-.141.252c-.028.084-.056.195-.085.279-.028.084-.056.168-.056.252-.029.084-.029.167-.029.251 0 .056 0 .14.029.197 0 .056.028.083.056.14.029.027.029.055.057.055.028.029.085.029.141.029.085-.03.198-.057.283-.084.084-.029.169-.057.254-.113v-.055l.029-.056.028-.057.029-.056zm-1.301 1.51c-.17.225-.311.42-.424.588-.141.169-.255.336-.339.448a2.569 2.569 0 01-.311.28c-.113.055-.226.112-.339.112a.955.955 0 01-.396 0 1.035 1.035 0 01-.31-.14c-.114-.057-.17-.14-.227-.252a.744.744 0 01-.084-.336c0-.112 0-.224.028-.308.028-.083.084-.167.141-.251.057-.056.142-.14.227-.168a.476.476 0 01.282-.084.79.79 0 01.254.028c.085 0 .141.056.198.084a.37.37 0 01.141.168c.057.083.057.14.057.224v.167c-.028.028-.057.084-.085.113-.028.055-.085.084-.142.111-.028 0-.084.028-.14.028h-.142c-.029 0-.085 0-.113-.028h-.085l-.028-.027-.057.055-.028.029v.111l.028.028c0 .028.029.028.057.056 0 0 .028.027.057.027 0 0 .028.03.056.03s.056 0 .056.027h.17c.057 0 .114-.028.198-.084a1.24 1.24 0 00.226-.196c.084-.083.169-.196.283-.336.085-.111.197-.28.311-.42l.14-.195.114-.167c.028-.029.056-.084.085-.113a.457.457 0 00.112-.139.67.67 0 01.199-.196l.085-.084h-.029l-.17-.084c-.056-.028-.112-.084-.14-.112a.627.627 0 00-.114-.14c-.028-.056-.028-.111-.057-.167-.028-.057-.028-.112-.028-.168-.028-.056-.028-.113-.028-.197-.029-.055-.029-.111-.029-.167 0-.112 0-.223.029-.307.028-.113.056-.197.085-.28.056-.112.085-.196.142-.28.055-.083.14-.14.197-.224.085-.056.17-.14.254-.196.085-.055.17-.111.283-.168.085-.027.198-.084.311-.111.113-.028.226-.028.34-.056h.169c.056 0 .113 0 .17.028.055 0 .084.028.14.056.029 0 .085.028.114.056l.084.084c.028.027.057.056.057.084l.028-.057.085-.139.085-.168v-.056h.084l.113-.027.029.111v.084l.028.028h.085c.057 0 .112 0 .141-.028.028 0 .057-.028.085-.056.028-.028.085-.056.113-.084a.429.429 0 01.113-.084l.028-.028h.282l-.084.168c-.141.168-.255.392-.367.587a6.12 6.12 0 00-.311.616 11.77 11.77 0 00-.339.614c-.113.197-.227.42-.311.616-.113.195-.198.392-.282.56-.057.167-.142.335-.17.475-.057.14-.114.28-.142.363-.027.113-.027.197-.027.28v.112c.027.029.027.056.055.056 0 .028.029.028.057.028.028.029.057.029.085.029.028 0 .057-.03.085-.03a.421.421 0 01.112-.083c.029-.028.057-.084.114-.14.028-.028.056-.084.113-.14.028-.056.056-.083.084-.14l.085-.167c.029-.056.057-.084.085-.112 0-.056.029-.083.029-.14.056-.112.112-.196.14-.28.057-.084.114-.139.142-.168h.057c.056 0 .085 0 .112.029.028 0 .057.055.057.084v.139c-.029.029-.057.056-.084.113-.029.055-.057.14-.085.195a.586.586 0 00-.085.14 13.22 13.22 0 00-.085.168c-.057.084-.084.14-.113.195-.085.113-.17.196-.226.28l-.113.112a.374.374 0 01-.113.084c-.057.028-.085.056-.142.084-.056.028-.112.028-.169.028a.301.301 0 01-.226-.029.567.567 0 01-.227-.111.543.543 0 01-.14-.252 1.015 1.015 0 01-.057-.335v-.28c0-.056 0-.112.028-.14 0-.056 0-.112.029-.168 0-.055.028-.112.056-.196l.028-.111.056-.196.029-.112-.085.028c-.056 0-.113 0-.141.028-.057 0-.085.028-.142.056-.028 0-.084.028-.141.056l-.113.111-.142.14a.903.903 0 00-.14.196c-.057.084-.114.14-.17.224zm-6.303 1.595c.17-.056.368-.224.622-.503.255-.28.566-.7.905-1.203.311-.503.593-.95.762-1.314.199-.392.284-.7.311-.951v-.113c-.027-.027-.027-.055-.056-.083 0 0-.028 0-.056-.028h-.085c-.198.084-.396.252-.65.56a8.607 8.607 0 00-.848 1.286c-.339.53-.566.979-.735 1.37-.17.364-.282.644-.282.84v.055c0 .028.028.057.028.057 0 .027.028.027.028.027h.056zm-.565-.56c0-.531.085-1.034.254-1.51a3.87 3.87 0 01.792-1.23c.339-.363.65-.644.961-.839.311-.196.622-.335.904-.364.113 0 .198 0 .283.029.085.027.141.084.198.139.028.056.057.14.057.196 0 .028.028.028.028.055.084-.167.169-.363.254-.53l.028-.057h.057l.056-.027h.113v.111c0 .028 0 .084.029.084v.029h.028c.028.027.057 0 .085 0h.112c.029-.029.057-.057.085-.057.057-.028.085-.056.114-.083.028-.029.084-.057.112-.113l.057-.028h.057l.028.028h.028l.141.056-.084.084c-.113.197-.283.448-.481.84a25.118 25.118 0 00-1.3 2.656 3.892 3.892 0 00-.254.784v.083c.028.029.028.057.057.084h.14c.029-.027.057-.027.114-.055l.085-.085.112-.111c.114-.14.227-.28.311-.42.113-.14.198-.28.255-.42.056-.14.141-.25.169-.335.057-.112.114-.168.17-.168h.028c.028-.028.056 0 .085 0 .028 0 .056.028.085.085v.083c0 .056-.057.14-.142.28-.056.14-.169.335-.311.56-.169.223-.311.419-.451.559-.17.14-.34.251-.538.279-.084.028-.169 0-.254-.028a.638.638 0 01-.197-.195c-.029-.084-.086-.14-.086-.253-.028-.084-.028-.168-.028-.279-.028-.14 0-.308 0-.476.028-.14.057-.307.085-.475l.057-.168c-.142.196-.255.364-.368.532-.255.363-.452.643-.622.839a3.687 3.687 0 01-.508.475c-.142.14-.283.195-.396.195-.113 0-.198 0-.283-.055a.475.475 0 01-.169-.167.816.816 0 01-.113-.28c-.029-.084-.029-.196-.029-.336zm-1.243-3.103a1.832 1.832 0 00-.339.167c-.17.112-.339.252-.509.42l-.537.53a3.571 3.571 0 00-.311.365h.029c.169 0 .339-.056.536-.112.198-.084.424-.196.65-.336.226-.112.396-.252.538-.39a.688.688 0 00.169-.449v-.084c-.028 0-.028-.027-.057-.056-.028-.028-.056-.028-.085-.028-.027-.027-.056-.027-.084-.027zm-1.752-.364h.056c.113.027.141.14.141.308 0 .111-.028.279-.084.475a6.228 6.228 0 01-.255.782c.085-.111.198-.223.282-.306.256-.308.51-.56.764-.784a3.57 3.57 0 01.678-.532c.227-.139.424-.223.593-.223a.315.315 0 01.227 0c.084.028.141.056.198.084.056.056.113.112.141.168.029.084.029.14.029.223 0 .196-.057.364-.199.56a3.592 3.592 0 01-.565.615 3.122 3.122 0 01-.848.476 3.752 3.752 0 01-.791.251l.169.084c.114.084.199.168.283.28.056.084.113.196.141.307.029.113.029.224.029.337v.727c0 .084 0 .14.028.195 0 .056.028.112.028.14l.057.056c.029 0 .084.028.113 0h.085s.028 0 .028-.028c.028 0 .028 0 .057-.028.028-.028.028-.056.056-.083.084-.084.169-.168.226-.252.028-.085.085-.169.085-.253a.555.555 0 01.113-.223c.028-.056.085-.084.17-.112h.056c.029 0 .056.029.056.029.028.027.057.027.057.083v.056c0 .056-.029.14-.057.251-.056.084-.112.224-.226.337a.85.85 0 01-.339.363c-.112.111-.282.168-.451.196-.114 0-.256 0-.368-.056a.832.832 0 01-.339-.197.752.752 0 01-.255-.335c-.056-.111-.084-.28-.113-.447v-.28c.029-.112.029-.195.057-.28.027-.083.027-.167.027-.223.029-.057.029-.112.029-.168 0-.056-.029-.084-.029-.14a.21.21 0 00-.055-.112.382.382 0 00-.114-.084.393.393 0 00-.169-.056 2.677 2.677 0 00-.339.42 6.366 6.366 0 00-.396.643c-.142.252-.282.476-.396.727a4.75 4.75 0 00-.34.783l-.027.057h-.085l-.085.027-.028-.084c0-.027 0-.056-.028-.056 0-.027 0-.027-.028-.055h-.199c-.028.028-.055.028-.084.055a3.192 3.192 0 01-.085.084.362.362 0 01-.113.084l-.028.029h-.113l-.17.027.085-.168c.112-.251.254-.503.368-.754.225-.448.424-.868.62-1.232.51-.922.68-1.622.793-2.069.141-.504.197-.727.536-.727l.34.028zm-3.957 4.195c.17-.224.339-.392.452-.56a3.07 3.07 0 00.226-.391.555.555 0 01.141-.252c.057-.084.114-.14.17-.14h.085c.028 0 .028.029.056.029.028.027.028.055.057.084v.055a.537.537 0 01-.085.252c-.056.112-.141.223-.254.391-.085.113-.198.253-.283.364-.085.112-.17.224-.254.308a.867.867 0 01-.227.224c-.084.055-.169.14-.226.168-.112.084-.225.111-.339.168a1.074 1.074 0 01-.762-.029.856.856 0 01-.368-.28 1.466 1.466 0 01-.226-.419 1.442 1.442 0 01-.085-.504c0-.39.085-.782.226-1.146a4.75 4.75 0 01.707-1.09c.31-.365.622-.644.989-.84.339-.196.707-.336 1.102-.363.113-.029.226 0 .34 0a.655.655 0 01.282.14.5.5 0 01.198.223.599.599 0 01.085.335c0 .14-.03.28-.057.42-.057.14-.113.28-.198.42-.084.14-.169.252-.254.308a.975.975 0 01-.34.168c-.056 0-.112 0-.17-.03-.055-.027-.084-.054-.14-.083a.614.614 0 01-.113-.14c0-.055-.028-.112-.028-.195 0-.084 0-.168.056-.252.028-.056.056-.14.113-.196.057-.056.142-.112.198-.167a.53.53 0 01.226-.056h.113c.056 0 .085-.028.113-.028.028-.029.028-.029.057-.056 0-.028.028-.084.028-.113 0-.027.028-.055.028-.111s-.028-.084-.056-.14c0-.028-.029-.056-.057-.084-.028-.028-.085-.056-.141-.084h-.142c-.282.056-.565.224-.82.475-.282.28-.565.672-.847 1.12-.283.475-.508.894-.65 1.258-.142.364-.226.644-.226.867 0 .084 0 .14.029.196.028.084.055.111.084.168.056.027.113.056.17.056.028.028.113.028.17.028a.81.81 0 00.254-.057c.056 0 .141-.055.197-.084.057-.056.141-.083.198-.14l.198-.195zm-5.624-3.104c-.142.195-.283.335-.367.503a2.438 2.438 0 00-.255.447.945.945 0 01-.141.337.385.385 0 01-.199.167h-.055c-.03 0-.057-.028-.085-.028 0-.028-.029-.028-.029-.056-.028-.028-.028-.056-.028-.083.028-.057.057-.197.142-.337.084-.168.197-.335.339-.587.141-.224.282-.42.451-.56a.784.784 0 01.48-.279.332.332 0 01.284.056c.085.028.17.112.226.196.028.084.085.168.113.28 0 .083.028.195.028.307v.392a6.28 6.28 0 01-.085.363v.029l.142-.224c.17-.252.339-.504.537-.728.17-.251.367-.448.537-.587.198-.14.367-.251.565-.251a.396.396 0 01.31.055c.113.084.17.168.255.28.057.112.113.224.142.363a.901.901 0 01.028.392c0 .532-.085.979-.255 1.427-.17.419-.423.81-.762 1.174a5.47 5.47 0 01-.905.783c-.283.224-.537.336-.791.336a.469.469 0 01-.283-.028.664.664 0 01-.255-.168 35.821 35.821 0 00-.17-.251c-.027-.084-.056-.168-.056-.252-.113.195-.197.39-.31.643-.198.364-.425.783-.65 1.23-.199.42-.396.812-.594 1.231-.198.392-.367.755-.509 1.035l-.028.056h-.085v.028h-.141v-.196h-.028c0-.028-.029-.028-.029-.028h-.085c-.028 0-.055 0-.055.028-.03 0-.057 0-.085.028-.03 0-.057.028-.114.056-.028.028-.056.056-.085.112l-.028.028h-.311l.085-.14.82-1.622.734-1.399.142-.251c.396-.811.735-1.455 1.017-2.014.142-.308.283-.587.425-.839.112-.224.197-.448.282-.643.085-.196.142-.337.17-.476.027-.14.056-.224.056-.28v-.111c-.029-.028-.029-.057-.057-.084 0 0 0-.029-.028-.029h-.114c-.027 0-.055 0-.084.029 0 0-.028.028-.085.056l-.084.084zm.198 3.44c0 .056 0 .112.028.14 0 .056.028.111.085.167l.084.084c.057 0 .085.028.113.028.226-.084.453-.28.679-.56.254-.306.508-.727.763-1.258.254-.56.452-1.007.593-1.37.141-.336.226-.616.226-.784 0-.027 0-.056-.028-.083 0-.028-.028-.057-.028-.084-.029-.028-.056-.028-.085-.056h-.056c-.198.056-.424.224-.65.475-.254.252-.509.643-.82 1.119-.283.448-.51.867-.65 1.23-.17.364-.254.672-.254.952zm-3.788.923a.628.628 0 01-.395-.056c-.141-.056-.255-.168-.367-.28a2.464 2.464 0 01-.227-.475 1.496 1.496 0 01-.085-.532c0-.475.113-.895.284-1.287.197-.391.48-.783.847-1.09.367-.336.678-.56.99-.727.31-.196.592-.28.847-.308.084 0 .17 0 .255.028.085.027.17.084.197.14a.557.557 0 01.113.168c.029.084.029.14.029.224 0 .251-.057.503-.199.755-.14.224-.31.419-.565.615a4.311 4.311 0 01-.735.447c-.254.113-.48.168-.734.197h-.226c-.057.111-.113.251-.17.363-.056.111-.113.251-.17.391-.056.112-.084.252-.112.363-.028.113-.057.224-.057.337 0 .055.029.111.057.168 0 .055.028.139.084.167a.22.22 0 00.113.112c.057 0 .142.029.226 0 .057 0 .142 0 .199-.028a.46.46 0 00.197-.112 1.37 1.37 0 00.226-.196c.085-.056.142-.111.227-.195.197-.253.367-.448.508-.616.113-.14.198-.28.254-.364.057-.111.085-.195.142-.223.056-.084.113-.14.17-.14.028 0 .028 0 .055.028.03 0 .057 0 .085.028 0 .028.03.028.03.084v.055c0 .057-.058.197-.2.365-.084.14-.254.363-.451.614-.198.28-.424.505-.678.672-.226.168-.48.28-.764.308zm.227-2.49c.084-.028.17-.028.254-.056a1.03 1.03 0 00.31-.111.593.593 0 00.283-.168c.085-.056.17-.14.254-.251.17-.14.284-.308.368-.42.113-.14.17-.28.227-.364.055-.112.084-.224.112-.28.028-.084.028-.14.028-.195v-.084l-.028-.028c-.028 0-.028-.029-.057-.029h-.055c-.085 0-.199.057-.311.14a1.48 1.48 0 00-.424.42c-.17.168-.34.392-.509.67-.141.225-.283.476-.452.757zm-2.29-1.705c0-.029 0-.029-.027-.057 0 0 0-.027-.03-.027v-.029h-.027c-.142.029-.34.168-.566.42-.226.28-.508.643-.82 1.118-.31.476-.592.98-.876 1.455-.282.475-.536 1.007-.791 1.483v.055h-.225v-.168l-.03-.027h-.197c-.028 0-.028.027-.057.027-.055.029-.084.084-.141.113l-.085.084h-.309l.085-.14c.197-.364.424-.784.62-1.176.2-.39.425-.81.623-1.258.226-.419.367-.783.48-1.09.113-.28.17-.504.17-.644v-.056c0-.028-.028-.056-.028-.056l-.029-.027h-.056c-.056 0-.113.027-.198.111-.113.084-.197.195-.311.336-.14.167-.282.364-.424.56-.112.195-.254.39-.396.615-.141.224-.282.475-.451.727a16.96 16.96 0 00-.425.727l-.395.755c-.114.224-.226.448-.34.616l-.028.055h-.169v-.084c-.028-.028-.028-.028-.028-.055-.029-.029-.029-.029-.057-.029h-.227c-.028.029-.056.029-.085.056-.028 0-.056.028-.085.028l-.085.084h-.084l-.057.029h-.198l.113-.168c.254-.42.51-.895.764-1.316l.678-1.258c.226-.391.396-.755.48-1.035.113-.251.17-.448.17-.587v-.056c0-.028-.028-.028-.028-.056 0 0-.029 0-.029-.028h-.113c0 .028-.028.028-.056.028-.028.029-.028.056-.056.056l-.086.084c-.14.168-.254.308-.367.476-.113.14-.17.279-.254.391-.057.14-.114.252-.17.336a.38.38 0 01-.198.167h-.056c-.029 0-.057-.027-.057-.027-.028-.029-.056-.056-.056-.084v-.056c0-.056.056-.168.141-.308.085-.14.198-.308.339-.56.142-.224.283-.391.453-.53.17-.14.339-.224.508-.28h.028c.085 0 .17.028.226.083.085.057.142.113.17.197a.295.295 0 01.085.195.672.672 0 01.029.224c0 .168 0 .335-.03.503-.027.14-.056.308-.112.476l-.057.084c.17-.252.311-.476.509-.755.198-.308.368-.56.537-.727.197-.197.367-.308.537-.337.085 0 .17.029.255.056.084.03.14.113.197.197.028.055.085.139.085.223.028.084.057.167.057.252 0 .14-.03.252-.03.42a3.203 3.203 0 01-.112.447l-.085.335.113-.195c.198-.28.396-.532.594-.811a3.12 3.12 0 01.593-.7c.198-.167.367-.251.566-.279.085-.029.17 0 .254.028.057.056.142.112.197.167.03.084.085.168.114.252.028.112.028.196.028.336.028.14 0 .307-.028.475-.057.168-.114.308-.17.476-.084.167-.169.307-.254.475-.084.14-.17.308-.255.448l-.056.084c-.17.28-.31.503-.452.755a2.675 2.675 0 00-.141.308c-.029.111-.057.195-.057.279 0 .084.028.14.028.168a.4.4 0 00.085.112c.029 0 .057.028.057.028.028.028.056.028.084.028.028 0 .057-.028.085-.028.028 0 .057-.028.085-.056.028-.028.057-.028.085-.056.028-.028.028-.056.056-.084.141-.14.227-.28.312-.419.112-.14.17-.253.225-.364.057-.14.114-.224.17-.308.056-.084.113-.111.169-.14h.057c.029 0 .056.029.056.029.029.027.029.027.057.056v.084c0 .055-.056.167-.113.306-.085.113-.198.28-.34.476-.112.197-.253.42-.423.532a.71.71 0 01-.509.224c-.113.028-.198 0-.31-.056a.869.869 0 01-.227-.224c-.085-.084-.112-.196-.17-.336a1.649 1.649 0 01-.056-.392c0-.14 0-.307.029-.446.056-.168.112-.337.17-.505.084-.167.169-.306.253-.474.085-.169.17-.337.255-.476.17-.28.31-.532.423-.727l.085-.14.17-.336a.564.564 0 00.056-.167zm-7.602 3.775c.17-.223.311-.42.424-.56.113-.168.197-.279.254-.39.057-.113.085-.197.142-.252.056-.085.112-.14.17-.14h.084c.028.028.057.028.057.055.028 0 .056.029.056.056v.057a.613.613 0 01-.085.279c-.056.084-.142.224-.254.364-.085.111-.17.252-.282.363-.085.113-.17.252-.255.337-.085.055-.141.139-.226.195-.085.056-.17.111-.254.168a1.067 1.067 0 01-.311.14 1.08 1.08 0 01-.34.055 1.04 1.04 0 01-.424-.084 1.273 1.273 0 01-.367-.307 1.267 1.267 0 01-.226-.475 1.36 1.36 0 01-.085-.505c0-.39.085-.782.226-1.146.17-.363.396-.727.707-1.063a3.27 3.27 0 01.99-.81 2.53 2.53 0 011.1-.336c.115 0 .255 0 .34.027.114.029.226.084.311.14.057.057.142.14.17.252a.59.59 0 01.084.336c0 .14-.028.307-.056.448-.056.14-.113.251-.198.391s-.17.223-.254.307a.87.87 0 01-.34.14c-.056 0-.112 0-.169-.027-.057-.03-.085-.057-.141-.084-.028-.057-.085-.113-.085-.168-.028-.056-.057-.113-.057-.168 0-.084.029-.168.057-.251a.488.488 0 01.141-.224.714.714 0 01.17-.14.545.545 0 01.226-.057h.141c.029 0 .057 0 .085-.027.029 0 .029-.028.056-.028 0-.056.028-.084.028-.112.03-.028.03-.084.03-.112 0-.056-.03-.084-.03-.14-.028-.028-.055-.084-.084-.112-.028-.028-.085-.056-.14-.084h-.142c-.284.028-.566.196-.82.447-.283.252-.565.616-.848 1.092-.283.475-.509.866-.65 1.23-.141.363-.226.643-.226.867 0 .112 0 .168.028.252.028.056.057.112.114.14a.156.156 0 00.14.084c.057.028.114.028.17.028.085 0 .17 0 .254-.028.057-.029.142-.056.198-.112a.846.846 0 00.198-.14c.057-.056.141-.112.198-.168zm-6.077.504c.17-.056.396-.224.623-.476.254-.308.565-.672.904-1.175.339-.475.593-.895.763-1.286a2.48 2.48 0 00.31-.923v-.113c-.027-.027-.027-.055-.056-.083l-.056-.056h-.085c-.198.056-.425.224-.65.504-.283.279-.565.7-.876 1.23-.311.532-.566.979-.735 1.343a3.31 3.31 0 00-.283.867s0 .028.029.055c0 .03.028.03.028.057 0 .027.029.027.029.027.028 0 .028 0 .055.029zm-6.67-.14c.114 0 .256-.056.425-.196.198-.168.396-.42.621-.755a3.86 3.86 0 00.34-.504c.113-.167.255-.364.367-.587.113-.167.226-.307.311-.475.198-.336.424-.7.65-1.091.085-.112.17-.196.226-.28.085-.084.17-.168.255-.224.085-.056.14-.084.197-.111.057-.029.085-.029.142-.056v-.028l.056-.084.085.055h.028l.057.029v.055c0 .029.028.056.028.056 0 .028 0 .028.028.057l.029.027h.085c.027 0 .084 0 .112-.027.028 0 .085-.029.085-.029h.028v-.028c.057-.027.114-.083.198-.14l.028-.027.03.027h.253l-.113.14c-.085.112-.14.252-.227.363l-.254.42-.085.169c-.14.224-.282.475-.395.698-.085.168-.17.308-.255.448-.084.14-.14.28-.225.42l-.085.196a5.53 5.53 0 00-.31.587c-.058.111-.085.195-.142.308-.057.084-.085.223-.113.279-.029.084-.057.14-.057.196-.028.056-.028.084-.028.084v.086h.028s-.028 0 0 0c.028-.03.057-.085.113-.113a.884.884 0 01.141-.196c.057-.084.142-.196.198-.28.114-.14.226-.307.368-.503l.085-.112v-.056c.169-.224.338-.475.48-.7.085-.111.17-.251.254-.39.085-.113.17-.253.254-.392l.057-.056c.142-.252.283-.476.396-.671.028-.056.028-.084.056-.14l.029-.056c0-.056.028-.084.056-.14l.029-.056.028-.029.084-.167.028-.056c.03-.056.057-.14.086-.196l.028-.055h.226l.028.084v.084s0 .027.028.027c0 0 0 .028.029.028h.056c.057 0 .113 0 .141-.028.028 0 .057-.027.085-.027.057-.029.085-.084.142-.113l.056-.055.028-.029h.283l-.085.168c-.113.196-.225.392-.34.588l-.338.587c-.085.168-.226.363-.34.587-.113.197-.197.392-.31.587-.198.392-.367.727-.48 1.008-.086.279-.142.503-.142.67v.113c.029.028.029.055.056.084a3 3 0 00.057.055h.142c.028-.027.056-.027.056-.027.029-.028.057-.057.085-.057 0-.027.028-.027.056-.055.113-.14.198-.252.282-.392.057-.112.142-.251.171-.364.056-.111.085-.195.14-.279a.894.894 0 01.199-.168h.056c.029 0 .057.028.084.028.057.028.057.084.057.111v.03a.454.454 0 01-.084.223 1.814 1.814 0 01-.17.336c-.028.055-.113.139-.141.195l-.113.168c-.028.056-.057.084-.114.14a.213.213 0 01-.112.111v.029c-.028 0-.057.055-.085.084-.028.027-.085.055-.113.084-.057.027-.113.055-.17.055-.056.029-.113.029-.169.029-.086 0-.141-.03-.226-.057-.085-.027-.142-.084-.199-.14-.055-.084-.112-.168-.14-.28-.057-.083-.057-.195-.057-.363-.028-.14 0-.28 0-.447.028-.14.057-.308.113-.476a.507.507 0 00.056-.195 2.32 2.32 0 01-.226.335l-.141.223c-.085.113-.17.224-.226.337-.084.111-.17.223-.226.335v.028c-.085.084-.17.196-.226.28-.085.084-.142.168-.227.223-.028.056-.084.084-.14.113-.057.055-.114.055-.17.055-.029.029-.085 0-.141 0-.057-.028-.085-.055-.142-.084-.028-.055-.057-.084-.085-.14a.394.394 0 01-.056-.167c-.028-.056-.056-.112-.056-.196-.03-.056-.03-.14-.03-.252 0-.056.03-.14.058-.195 0-.084.028-.168.056-.253.028-.139.085-.279.141-.42v-.054c.029-.084.057-.14.085-.224l.113-.224c.028-.084.057-.14.085-.224l.085-.168.763-1.482h-.028c-.028.084-.085.14-.142.224l-.028.028c-.028.027-.057.084-.084.111-.03.029-.03.056-.057.084l-.113.168c-.085.168-.198.336-.311.532-.085.14-.17.28-.254.391l-.142.28-.141.224a2.793 2.793 0 01-.17.307l-.113.168c-.056.084-.084.14-.112.195-.311.448-.566.812-.82 1.035-.255.224-.51.364-.707.336h-.198c-.056-.028-.113-.028-.198-.055a12.664 12.664 0 00-.169-.084c-.057-.029-.114-.084-.17-.113a.66.66 0 01-.169-.306.694.694 0 01-.085-.365c0-.111 0-.195.028-.307.028-.084.085-.168.142-.252a.61.61 0 01.226-.14c.085-.055.17-.055.282-.055.085 0 .17 0 .254.027a.839.839 0 01.199.14.496.496 0 01.14.196c.03.056.03.14.057.196 0 .055-.028.14-.028.168-.029.055-.029.111-.084.139-.03.084-.085.112-.114.112v.028h-.311c-.028 0-.085-.028-.113-.028-.028-.028-.057-.028-.085-.084-.027 0-.027 0-.027.056-.03 0-.03 0-.03.028v.084c0 .028.03.056.03.056 0 .028.028.056.028.056.027.028.056.028.084.056 0 0 .028.028.057.028.028.028.056.028.085.028.028.028.028.028.056.028h.084zm-6.019-2.462c.085-.195.17-.363.226-.503l.084-.224a.811.811 0 00.114-.223c.057-.084.085-.14.113-.197-.028-.055-.028-.139-.056-.195 0-.056-.029-.112-.057-.168a.22.22 0 00-.114-.112c-.028-.028-.084-.028-.112-.028-.085 0-.17 0-.255.028a1.284 1.284 0 01-.197.084c-.057.056-.114.112-.198.167a.869.869 0 00-.142.197 1.135 1.135 0 00-.14.252c-.03.083-.085.167-.114.251-.028.084-.028.168-.056.252v.251c0 .056 0 .14.028.197 0 .055.028.111.057.167.028.028.056.057.085.084.028.028.055.028.112.028.113 0 .198 0 .311-.028.085-.027.142-.056.227-.084 0-.027.028-.056.028-.084v-.028l.027-.028.03-.056zm-1.329 1.343c-.14.195-.282.392-.395.532-.141.168-.255.307-.367.42a.884.884 0 01-.311.25.755.755 0 01-.34.085c-.141 0-.282-.028-.395-.057a2.934 2.934 0 01-.311-.167c-.113-.084-.17-.196-.226-.308a.846.846 0 01-.084-.363c0-.112 0-.224.028-.308a.655.655 0 01.169-.252.624.624 0 01.226-.14.85.85 0 01.282-.055c.085 0 .17.027.255.055a.514.514 0 01.198.14c.056.056.113.112.142.168.028.084.056.14.056.224 0 .056 0 .111-.028.168-.028.056-.028.084-.085.111-.029.056-.085.084-.114.084-.056.029-.112.029-.17.029h-.14c-.057-.029-.085-.029-.114-.057-.027 0-.055-.027-.084-.027l-.028-.029c-.028.029-.028.029-.057.056 0 0-.028 0-.028.028v.084c.028.029.028.084.028.084l.057.056.057.056c.028 0 .056.028.084.028 0 0 .028.029.056.029.03 0 .057.027.085.027h.085c.057 0 .113 0 .198-.056a.652.652 0 00.227-.195l.282-.28c.084-.112.197-.252.31-.393l.085-.083v-.028c.057-.084.113-.14.17-.224.028-.028.057-.084.085-.111a.222.222 0 01.112-.113c.03-.027.057-.084.085-.111.029-.028.085-.057.114-.084.028-.028.057-.028.084-.056h-.027c-.086-.056-.142-.084-.199-.14-.057-.028-.085-.084-.113-.112-.056-.055-.084-.112-.113-.168a13.181 13.181 0 00-.085-.168c0-.056-.028-.111-.028-.195 0-.056-.028-.112-.028-.168v-.196c0-.111 0-.195.028-.308 0-.084.028-.195.085-.28.028-.083.085-.167.142-.25.055-.057.112-.14.197-.197.085-.084.141-.14.254-.168.085-.055.17-.111.283-.139.113-.029.198-.056.311-.085h.537c.057.029.112.029.141.056.057.03.085.057.142.084.028 0 .085.057.113.084.027.029.056.056.084.084.028.029.057.056.057.112l.028-.056.085-.14c.028-.055.028-.084.085-.168v-.056h.226v.169c0 .028.028.028.028.055h.029c.028.029.056.029.084.029.056 0 .085 0 .141-.029.029 0 .057 0 .057-.027.057-.028.085-.057.113-.084.056-.028.084-.057.113-.084h.311l-.084.14c-.142.195-.256.39-.368.587-.113.195-.198.392-.311.56l-.17.307c-.142.28-.311.56-.48.895-.113.196-.198.363-.283.531-.056.168-.141.308-.17.448-.056.14-.113.28-.14.363-.029.113-.029.197-.029.308v.112c.028.028.028.056.056.084.03.028.057.028.057.056h.169c.028-.028.085-.028.114-.056.028-.056.085-.084.113-.112.028-.056.057-.084.112-.14.03-.084.057-.112.085-.168.03-.055.057-.111.085-.14.029-.055.057-.112.085-.14 0-.056.029-.083.029-.112l.14-.279a.477.477 0 01.17-.168h.057c.056 0 .084.028.113.057.028 0 .056.055.056.083v.028c0 .028-.028.056-.028.111-.028.03-.057.057-.057.113l-.028.028c-.056.084-.084.196-.17.28l-.084.168c-.057.055-.085.139-.141.195a.577.577 0 01-.113.168c-.029.028-.057.084-.085.112-.029.028-.085.055-.114.084-.027.028-.084.055-.112.084a.404.404 0 01-.17.055.306.306 0 01-.141.029h-.028c-.085 0-.142-.029-.227-.056a.375.375 0 01-.197-.168.537.537 0 01-.141-.252 1.585 1.585 0 01-.057-.364v-.308a.78.78 0 01.057-.251v-.028l.028-.14v-.028c.028-.056.028-.111.056-.167v-.028l.085-.253h-.254c-.03 0-.085.029-.114.029-.056.028-.085.028-.14.055-.03.029-.085.056-.114.113-.056.027-.113.056-.14.111-.058.056-.085.113-.171.168-.028.056-.113.14-.17.224zm-6.302.811c.17-.056.368-.224.622-.476.255-.251.566-.614.905-1.062a8.22 8.22 0 00.762-1.26c.199-.335.283-.642.311-.894v-.112c-.028-.027-.028-.084-.056-.084-.028-.027-.028-.056-.056-.056-.03-.027-.057-.027-.085-.027-.198.056-.425.224-.679.475-.254.28-.536.671-.847 1.174-.312.505-.566.952-.735 1.287-.17.364-.255.616-.283.811v.084c.028 0 .028.029.056.084 0 .028.028.028.028.028.03 0 .03.028.057.028zm-.593-.671c0-.532.085-1.035.282-1.483a3 3 0 01.792-1.174c.339-.308.65-.56.96-.727.312-.14.622-.224.905-.224.113 0 .198.027.282.056a.466.466 0 01.17.168.3.3 0 01.085.195c0 .029.028.056.028.084l.255-.476v-.055l.057-.056h.112l.085.027v.084c0 .029.028.084.028.113v.027h.226c.057 0 .085-.027.114-.027a.362.362 0 01.113-.084c.027-.029.056-.056.084-.084l.057-.029.056.03h.029l.028.027.112.027-.055.113c-.114.14-.284.392-.481.755-.17.307-.396.727-.678 1.259-.255.503-.48.95-.622 1.286a3.53 3.53 0 00-.254.811v.084c.028.028.028.056.056.056v.028s.028 0 .028.028h.142c.028-.028.056-.028.085-.056a.218.218 0 00.112-.056l.085-.084c.113-.167.254-.308.34-.419.084-.14.169-.28.226-.392.084-.14.141-.251.197-.335.057-.084.114-.14.17-.14h.113c.028.027.057.056.057.084v.056l.028.027-.028.028c0 .029-.057.14-.142.252-.056.14-.17.308-.31.504a2.088 2.088 0 01-.481.587c-.17.111-.34.195-.509.195a.847.847 0 01-.283-.055.442.442 0 01-.17-.224.838.838 0 01-.112-.28h.028a.993.993 0 01-.056-.28c0-.167 0-.335.028-.475l.085-.503c.027-.056.027-.113.056-.197-.141.197-.254.365-.367.505-.255.335-.481.587-.65.782-.198.197-.34.364-.509.448-.142.084-.282.14-.396.14-.113-.028-.197-.056-.282-.084a1.507 1.507 0 01-.17-.224c-.028-.084-.084-.196-.113-.308 0-.083-.028-.195-.028-.335zm-1.243-3.3c-.085 0-.227.056-.368.111-.142.084-.311.224-.509.364-.198.168-.368.308-.508.447-.142.113-.226.224-.34.337l.029.027h.028c.17 0 .339-.027.537-.056a3.16 3.16 0 00.65-.252c.225-.084.424-.195.536-.335a.563.563 0 00.17-.42v-.083c-.028-.029-.028-.057-.056-.084-.029 0-.057-.029-.085-.029-.029-.027-.056-.027-.084-.027zm-1.47-.671c.17.027.197.139.17.335-.057.308-.284.782-.538 1.23.085-.056.142-.14.227-.224.254-.251.508-.475.762-.67.255-.197.48-.364.68-.448.224-.112.423-.168.592-.168.085 0 .17 0 .255.029a.845.845 0 01.197.139.913.913 0 01.114.167.53.53 0 01.056.224c0 .168-.085.364-.226.56a2.77 2.77 0 01-.594.503c-.254.196-.536.308-.847.42a5.349 5.349 0 01-.763.14c.056.028.113.083.17.112a.972.972 0 01.282.308c.056.084.113.195.141.307.028.112.028.224.057.364 0 .056-.029.167-.029.279v.448c0 .084 0 .14.029.195 0 .084.028.113.028.168.028.029.057.056.084.056.029.028.057.028.113.028h.085l.057-.055c.028 0 .057-.029.057-.057a1.84 1.84 0 00.226-.251c.028-.084.085-.14.085-.224a.438.438 0 01.112-.196c.057-.083.113-.112.17-.112h.057c.028 0 .056.029.084.029 0 .027.028.055.028.083 0 .028.028.028.028.056-.028.084-.056.14-.084.251-.056.085-.141.197-.226.337a1.063 1.063 0 01-.339.363c-.141.056-.283.112-.453.112a.923.923 0 01-.395-.084 1.004 1.004 0 01-.34-.28 1.206 1.206 0 01-.253-.363 1.192 1.192 0 01-.085-.475v-.28c0-.084.028-.168.057-.28 0-.084.028-.14.028-.224v-.28a.61.61 0 00-.085-.14c0-.056-.057-.083-.114-.112l-.17-.084c-.112.084-.197.224-.31.364a5.32 5.32 0 00-.424.588c-.14.224-.282.475-.396.7-.113.25-.225.475-.339.754l-.028.056h-.197v-.168l-.03-.028c-.027-.028-.027-.028-.055-.028-.029-.027-.057-.027-.086-.027h-.085c-.028.027-.055.027-.084.027a.412.412 0 00-.085.112 3.35 3.35 0 01-.085.084l-.056.028h-.113l-.14-.028.055-.168.537-.95.48-.924c.255-.447.425-.81.594-1.119l.227-.42c.226-.39.31-.67.366-.838.085-.28.114-.364.34-.335l.424.084zm-4.042.223c-.254.028-.508.167-.791.391-.31.252-.622.616-.933 1.063-.31.448-.565.867-.734 1.203-.17.335-.255.615-.255.867v.111c.028.057.028.084.056.084l.086.084h.085c.197-.027.451-.168.734-.42.255-.25.565-.614.905-1.062.339-.475.62-.895.79-1.23.199-.336.284-.616.311-.84v-.084c-.027-.027-.056-.084-.084-.084 0-.027-.057-.055-.085-.083h-.085zm.593.224l.227-.308.112-.168.03-.055h.084c.057.027.085.027.113.055l.056.029h.085c.028.027.057.027.113.027h.34c.085-.027.14-.027.17-.027h.197c.028 0 .028.027.057.027a.06.06 0 01.056.056c.028.028.028.056.028.084 0 .028 0 .084-.028.112-.028.027-.056.056-.113.056h-.142c-.056 0-.085 0-.112.028-.028 0-.057 0-.085.027-.028 0-.057.029-.085.057-.029.027-.085.056-.114.083-.084.113-.197.252-.31.42a6.066 6.066 0 00-.395.672c-.227.475-.509.979-.792 1.566l-.113.224c-.17.335-.339.643-.51.978-.169.336-.338.644-.508.923a6.88 6.88 0 01-.508.811c-.17.224-.34.448-.509.616-.17.14-.339.28-.537.364-.17.111-.367.195-.565.251-.198.084-.396.112-.622.14a2.471 2.471 0 01-.65 0c-.254-.028-.509-.056-.706-.14a1.375 1.375 0 01-.538-.251c-.14-.113-.254-.224-.31-.337h-.029a.903.903 0 01-.112-.363c0-.084.027-.168.056-.224 0-.056.056-.14.113-.167a.575.575 0 01.17-.112c.056-.029.141-.029.197-.029.085 0 .142.029.198.057.057 0 .113.056.17.084.028.056.085.083.112.14 0 .056.03.111.03.195 0 .056-.03.14-.03.168-.027.084-.084.112-.14.14-.029.027-.029.027-.057.056v.055c0 .029 0 .056.028.084.029.056.085.085.142.14a.71.71 0 00.254.113c.084.027.198.055.339.084h.424c.141-.029.283-.057.395-.084a1.52 1.52 0 00.368-.197c.142-.056.255-.167.367-.251.085-.112.17-.196.283-.336.113-.111.198-.251.311-.391.113-.14.198-.308.31-.476.114-.168.199-.336.311-.53.114-.197.227-.449.368-.673.113-.224.226-.447.34-.698l.31-.588.056-.084-.084.112c-.226.252-.424.503-.622.699-.17.224-.367.364-.537.475-.197.113-.367.168-.565.14-.142 0-.255-.027-.34-.111a.555.555 0 01-.253-.253.723.723 0 01-.17-.363 1.688 1.688 0 01-.057-.419c0-.448.085-.895.254-1.287a3.7 3.7 0 01.82-1.062c.368-.308.707-.56 1.074-.7.34-.168.707-.224 1.046-.224.141 0 .254.029.339.084a.416.416 0 01.255.168c.056.056.085.14.113.196a.21.21 0 01.027.112zm-8.026 3.16c.17-.028.396-.168.622-.392.283-.251.565-.587.905-1.034a9.59 9.59 0 00.79-1.203c.17-.364.284-.643.284-.895.027-.056 0-.083 0-.112 0-.028-.03-.055-.057-.084 0-.027-.028-.027-.057-.055-.028 0-.056-.029-.085-.029-.197.056-.424.197-.65.448a7.52 7.52 0 00-.875 1.147c-.311.475-.566.895-.735 1.23-.17.336-.254.616-.283.784 0 .027 0 .056.029.083 0 0 0 .028.028.057 0 .027.028.027.028.027.029.028.056.028.056.028zm-.593-.643c0-.531.085-1.034.282-1.455a2.63 2.63 0 01.792-1.119c.339-.306.65-.53.989-.698.311-.14.622-.197.904-.197.113 0 .198.029.255.084.084.029.169.084.198.168l.085.169v.111l.197-.364.085-.139.028-.084.084.028h.143v.195c0 .029.029.029.029.029l.028.027h.197c.03 0 .057-.027.085-.027a.213.213 0 01.114-.056c.028-.028.084-.057.112-.084l.057-.057.057.029.028.028h.028l.114.056-.085.084c-.114.168-.255.42-.453.727-.197.335-.424.727-.707 1.23-.254.504-.48.923-.62 1.26-.142.335-.227.586-.255.754 0 .028 0 .056.028.084 0 .028 0 .056.028.084l.029.027c.028 0 .055 0 .084.03.028 0 .028 0 .056-.03.03 0 .057 0 .085-.027.029-.028.085-.028.114-.056l.084-.084c.142-.14.255-.252.34-.392.112-.111.197-.252.254-.363a.979.979 0 01.17-.308.483.483 0 01.169-.168h.029c.027 0 .055.028.084.028.028.029.056.029.056.084.029.029.029.029.029.056v.029c-.029.055-.057.139-.142.279-.084.111-.197.28-.339.476a2.21 2.21 0 01-.48.53.85.85 0 01-.509.17c-.113.027-.198 0-.254-.057-.085-.056-.141-.14-.198-.224l-.085-.252c-.028-.084-.028-.195-.028-.28-.029-.168 0-.307 0-.474.028-.168.056-.308.113-.476 0-.084.028-.14.057-.196a5.833 5.833 0 00-.396.504c-.255.307-.453.53-.65.727a2.68 2.68 0 01-.48.39c-.17.084-.312.14-.425.113-.112-.029-.197-.056-.254-.112-.085-.028-.141-.112-.198-.196-.028-.084-.085-.167-.113-.28-.028-.111-.028-.223-.028-.335zm-2.092-1.93l.113-.28c.057-.083.085-.167.114-.224l.084-.14c.028-.084.057-.167.085-.223l.028-.056c.057-.084.085-.168.114-.224.028-.027.028-.055.056-.084.029-.056.029-.084.056-.14h.028a3.346 3.346 0 01-.084.084.222.222 0 00-.113.113c-.028.056-.057.083-.085.111l-.084.112c-.085.14-.17.28-.255.391l-.17.253-.14.223c-.085.14-.17.252-.255.392l-.311.503c-.057.085-.085.14-.142.196a.587.587 0 01-.084.14c-.311.42-.566.727-.82.923-.282.195-.508.308-.735.28-.057-.029-.112-.029-.17-.056-.056 0-.112-.029-.197-.056-.056-.028-.141-.057-.198-.084-.056-.057-.085-.084-.142-.14a.753.753 0 01-.17-.28.747.747 0 01-.084-.335c0-.14 0-.224.029-.308.028-.112.085-.168.14-.252.085-.056.142-.112.256-.14.085-.027.17-.027.282-.027.085.027.142.027.226.084a.494.494 0 01.198.14.49.49 0 01.141.195c.028.056.057.111.057.195 0 .056-.029.113-.029.168a.565.565 0 01-.084.14c-.029.029-.085.056-.141.084h-.142c-.056 0-.084 0-.141-.028a.21.21 0 01-.113-.056l-.114-.056-.027.029v.111c0 .029.027.056.027.056.03.028.03.056.057.056 0 .028.028.056.057.056.028.028.056.028.085.056 0 0 .028.028.056.028.029.028.056.028.084.028.03 0 .03 0 .057.028.142 0 .283-.056.453-.168.17-.14.396-.335.593-.643.113-.112.226-.252.34-.448a4.89 4.89 0 00.395-.559c.085-.112.17-.28.282-.448.199-.307.425-.643.679-1.007.085-.111.17-.195.226-.252.113-.111.198-.167.282-.223.085-.028.142-.083.198-.083.029-.03.057-.03.085-.03l.029-.054h.085l.112.027v.028h.029l-.029.112c0 .028.029.056.029.056l.028.028h.084c.057.028.113 0 .142 0 .028 0 .056 0 .085-.028l.112-.056.085-.083h.312l-.085.139a6.567 6.567 0 00-.368.56c-.113.195-.198.363-.31.531-.114.195-.227.363-.34.56-.113.195-.198.363-.31.559-.199.363-.368.67-.481.95-.085.253-.142.448-.142.616v.111c.028.029.028.056.057.084l.056.056c.029 0 .057 0 .085.029.029 0 .057 0 .085-.029h.056c0-.027.03-.027.057-.056.028 0 .028-.027.057-.055.113-.113.197-.224.282-.308a.934.934 0 00.17-.335l.141-.28c.057-.085.113-.14.198-.14h.029c.027 0 .084.028.112.028a.214.214 0 01.057.14 1.222 1.222 0 00-.085.195c-.056.084-.113.197-.198.308a.57.57 0 01-.113.168c-.029.056-.056.111-.113.168-.028.027-.056.084-.085.111-.056.056-.085.085-.113.14a.394.394 0 00-.112.084c-.057 0-.085.029-.114.056-.056.028-.113.057-.17.057h-.17a.545.545 0 01-.225-.057 1.237 1.237 0 01-.198-.167.876.876 0 01-.141-.28c-.057-.085-.057-.196-.057-.336-.028-.14 0-.28 0-.447.029-.14.085-.28.114-.448.056-.14.112-.28.169-.447l.17-.42zm-5.03 1.399c.169-.168.31-.308.424-.448a5.41 5.41 0 00.255-.336c.055-.111.084-.195.14-.251.057-.084.114-.112.198-.112.028 0 .028.028.057.028.028 0 .056.028.085.056l.028.028v.084c0 .056-.028.14-.113.251a7.9 7.9 0 01-.226.308c-.114.14-.199.252-.283.335a2.298 2.298 0 01-.282.252c-.142.14-.284.252-.48.336-.086.028-.2.056-.312.084a.68.68 0 01-.339 0c-.17-.028-.311-.056-.424-.14a.967.967 0 01-.339-.336 1.156 1.156 0 01-.255-.447 2.517 2.517 0 01-.056-.503c-.029-.392.056-.727.227-1.092.14-.335.394-.643.705-.95.311-.308.65-.532.99-.672a3.05 3.05 0 011.102-.195c.142.028.254.028.367.084a.584.584 0 01.283.168c.085.055.142.14.17.251a.588.588 0 01.085.336c0 .14-.028.28-.057.419a1.49 1.49 0 01-.198.364.67.67 0 01-.283.28c-.085.056-.197.112-.31.083-.057 0-.114 0-.17-.027-.056-.028-.085-.057-.141-.112a.646.646 0 01-.114-.14c0-.056-.028-.14-.028-.196 0-.084 0-.168.057-.223.028-.084.085-.14.14-.197a.758.758 0 01.171-.14c.085-.028.17-.028.226-.028h.084l.03.028h.027c.057 0 .085 0 .085-.028.028 0 .057 0 .057-.027.028-.029.028-.056.028-.084.028-.029.028-.056.028-.112s-.028-.084-.028-.14c-.028-.028-.057-.083-.085-.112-.057-.028-.085-.084-.142-.112-.055 0-.112-.028-.17-.028-.253.029-.535.14-.819.336-.282.223-.536.56-.82.98-.281.39-.508.781-.677 1.09-.142.335-.227.587-.227.81 0 .084 0 .14.028.224.03.057.057.112.114.168.056.029.085.084.142.113.084 0 .14.027.197.027a.4.4 0 00.254 0 .511.511 0 00.198-.056c.056-.028.141-.084.198-.111.057-.057.142-.113.197-.168zm42.223 2.014c0-.56.113-1.063.282-1.511a3.09 3.09 0 01.792-1.203c.339-.335.65-.616.961-.783.311-.196.622-.28.904-.28.113 0 .198 0 .282.028a.495.495 0 01.171.168c.056.056.085.14.085.196.028.028.028.055.028.084l.197-.42.057-.112.028-.055h.226v.084c0 .055.028.084.028.111v.028h.226c.03-.028.085-.028.114-.055.028 0 .056-.029.085-.056a.22.22 0 00.112-.112l.057-.029.056.03h.057l.142.054-.085.113c-.114.167-.283.42-.48.782-.198.336-.424.756-.679 1.287-.254.503-.48.951-.622 1.315-.141.363-.226.643-.254.839v.084c.028 0 .028.027.057.056 0 0 0 .028.028.028h.141c.028 0 .056-.028.085-.057.028-.027.056-.027.113-.055l.084-.084c.114-.168.255-.308.34-.475.084-.14.169-.252.226-.392.084-.14.141-.252.17-.308.084-.111.14-.168.198-.168v-.027h.028c.027 0 .056.027.056.027.056.028.085.028.085.084v.084c0 .056-.057.168-.141.308-.085.111-.17.28-.312.53a3.19 3.19 0 01-.451.56c-.17.14-.34.224-.538.224a.273.273 0 01-.254-.056.341.341 0 01-.198-.195.453.453 0 01-.085-.252.999.999 0 01-.056-.28c0-.196 0-.363.028-.504v-.027c.028-.14.057-.308.085-.476.028-.056.028-.111.057-.167-.114.167-.255.335-.368.503-.254.335-.452.616-.65.84a3.37 3.37 0 01-.48.446c-.17.112-.31.168-.425.168-.084-.027-.17-.027-.254-.084a.65.65 0 01-.197-.195c-.03-.084-.085-.168-.085-.28a1.375 1.375 0 01-.057-.363zm-55.506-2.127c0-1.23.424-2.768.424-3.999.17-2.909-.707-5.258 1.385-6.684-3.759 7.552 107.31 7.188 105.954 0 2.12 1.426 1.214 3.776 1.356 6.684 0 1.23.452 2.769.452 4 .678 7.914-108.922 9.509-109.57 0z" fill="#906047"/></svg>