<svg width="26" height="26" viewBox="0 0 26 26" fill="none" xmlns="http://www.w3.org/2000/svg">
<path d="M25.6443 13.0508C25.6443 14.818 25.6088 16.5903 25.6545 18.3575C25.7307 21.4856 23.7654 23.9028 21.2619 24.9793C20.2564 25.411 19.2002 25.6395 18.1084 25.6395C14.6908 25.6446 11.2682 25.6903 7.85059 25.6243C5.27598 25.5735 3.1584 24.4969 1.64004 22.3743C0.842773 21.2571 0.461914 19.9875 0.461914 18.6114C0.461914 14.9704 0.461914 11.3344 0.461914 7.6934C0.461914 4.7227 1.90918 2.64574 4.47871 1.29496C5.5959 0.710978 6.80957 0.46215 8.07402 0.457072C11.39 0.457072 14.7111 0.43676 18.0271 0.467228C20.6018 0.487541 22.7498 1.4727 24.3342 3.54457C25.2178 4.70238 25.6443 6.03285 25.6443 7.49535C25.6443 9.34379 25.6443 11.1973 25.6443 13.0508ZM2.33574 13.0508C2.33574 14.9145 2.33574 16.7731 2.33574 18.6368C2.33574 19.4696 2.52871 20.2516 2.96035 20.9575C4.09277 22.811 5.8041 23.7149 7.92676 23.7504C11.3342 23.8012 14.7467 23.7707 18.1592 23.7606C18.9971 23.7606 19.8096 23.5879 20.5662 23.2274C22.6279 22.2422 23.7807 20.6731 23.7705 18.3168C23.7502 14.7114 23.7654 11.1059 23.7654 7.50043C23.7654 6.47973 23.476 5.54535 22.8717 4.7227C21.7037 3.1434 20.0889 2.36645 18.1592 2.34613C14.7568 2.30551 11.3545 2.3309 7.95215 2.33598C7.22598 2.33598 6.5252 2.48324 5.84473 2.73715C3.97598 3.43285 2.23926 5.19496 2.32051 7.78988C2.38145 9.54692 2.33574 11.2989 2.33574 13.0508Z" />
<path d="M13.081 18.4337C9.80563 18.4337 7.165 15.8236 7.15992 12.5736C7.15484 9.37435 9.81578 6.75404 13.0709 6.75404C16.3361 6.74896 18.9869 9.36419 18.992 12.5888C18.992 15.8083 16.3463 18.4286 13.081 18.4337ZM13.081 16.5548C15.3103 16.5548 17.1181 14.7724 17.1131 12.5786C17.108 10.4052 15.3002 8.62786 13.081 8.62786C10.8517 8.62786 9.03375 10.4001 9.03375 12.5888C9.03883 14.7826 10.8517 16.5599 13.081 16.5548Z" />
<path d="M19.6776 4.97656C20.3631 4.97656 20.9217 5.56055 20.9217 6.27656C20.9166 6.99258 20.353 7.57148 19.6674 7.56641C18.992 7.56133 18.4385 6.98242 18.4385 6.28164C18.4334 5.56562 18.992 4.97656 19.6776 4.97656Z" />
</svg>
